G04 #@! TF.GenerationSoftware,KiCad,Pcbnew,(5.1.6-0-10_14)*
G04 #@! TF.CreationDate,2022-12-11T18:06:32+09:00*
G04 #@! TF.ProjectId,cool644,636f6f6c-3634-4342-9e6b-696361645f70,rev?*
G04 #@! TF.SameCoordinates,Original*
G04 #@! TF.FileFunction,Legend,Top*
G04 #@! TF.FilePolarity,Positive*
%FSLAX46Y46*%
G04 Gerber Fmt 4.6, Leading zero omitted, Abs format (unit mm)*
G04 Created by KiCad (PCBNEW (5.1.6-0-10_14)) date 2022-12-11 18:06:32*
%MOMM*%
%LPD*%
G01*
G04 APERTURE LIST*
%ADD10C,0.300000*%
%ADD11C,0.150000*%
%ADD12C,0.120000*%
%ADD13C,0.125000*%
G04 APERTURE END LIST*
D10*
X-1481428Y9594285D02*
X-1552857Y9522857D01*
X-1767142Y9451428D01*
X-1910000Y9451428D01*
X-2124285Y9522857D01*
X-2267142Y9665714D01*
X-2338571Y9808571D01*
X-2410000Y10094285D01*
X-2410000Y10308571D01*
X-2338571Y10594285D01*
X-2267142Y10737142D01*
X-2124285Y10880000D01*
X-1910000Y10951428D01*
X-1767142Y10951428D01*
X-1552857Y10880000D01*
X-1481428Y10808571D01*
X-624285Y9451428D02*
X-767142Y9522857D01*
X-838571Y9594285D01*
X-909999Y9737142D01*
X-909999Y10165714D01*
X-838571Y10308571D01*
X-767142Y10380000D01*
X-624285Y10451428D01*
X-410000Y10451428D01*
X-267142Y10380000D01*
X-195714Y10308571D01*
X-124285Y10165714D01*
X-124285Y9737142D01*
X-195714Y9594285D01*
X-267142Y9522857D01*
X-410000Y9451428D01*
X-624285Y9451428D01*
X732857Y9451428D02*
X590000Y9522857D01*
X518571Y9665714D01*
X518571Y10951428D01*
X1590000Y10951428D02*
X1732857Y10951428D01*
X1875714Y10880000D01*
X1947142Y10808571D01*
X2018571Y10665714D01*
X2090000Y10380000D01*
X2090000Y10022857D01*
X2018571Y9737142D01*
X1947142Y9594285D01*
X1875714Y9522857D01*
X1732857Y9451428D01*
X1590000Y9451428D01*
X1447142Y9522857D01*
X1375714Y9594285D01*
X1304285Y9737142D01*
X1232857Y10022857D01*
X1232857Y10380000D01*
X1304285Y10665714D01*
X1375714Y10808571D01*
X1447142Y10880000D01*
X1590000Y10951428D01*
X55858571Y11574285D02*
X55787142Y11502857D01*
X55572857Y11431428D01*
X55430000Y11431428D01*
X55215714Y11502857D01*
X55072857Y11645714D01*
X55001428Y11788571D01*
X54930000Y12074285D01*
X54930000Y12288571D01*
X55001428Y12574285D01*
X55072857Y12717142D01*
X55215714Y12860000D01*
X55430000Y12931428D01*
X55572857Y12931428D01*
X55787142Y12860000D01*
X55858571Y12788571D01*
X56715714Y11431428D02*
X56572857Y11502857D01*
X56501428Y11574285D01*
X56430000Y11717142D01*
X56430000Y12145714D01*
X56501428Y12288571D01*
X56572857Y12360000D01*
X56715714Y12431428D01*
X56930000Y12431428D01*
X57072857Y12360000D01*
X57144285Y12288571D01*
X57215714Y12145714D01*
X57215714Y11717142D01*
X57144285Y11574285D01*
X57072857Y11502857D01*
X56930000Y11431428D01*
X56715714Y11431428D01*
X58072857Y11431428D02*
X57930000Y11502857D01*
X57858571Y11645714D01*
X57858571Y12931428D01*
X58501428Y12931428D02*
X59430000Y12931428D01*
X58930000Y12360000D01*
X59144285Y12360000D01*
X59287142Y12288571D01*
X59358571Y12217142D01*
X59430000Y12074285D01*
X59430000Y11717142D01*
X59358571Y11574285D01*
X59287142Y11502857D01*
X59144285Y11431428D01*
X58715714Y11431428D01*
X58572857Y11502857D01*
X58501428Y11574285D01*
X17298571Y9624285D02*
X17227142Y9552857D01*
X17012857Y9481428D01*
X16870000Y9481428D01*
X16655714Y9552857D01*
X16512857Y9695714D01*
X16441428Y9838571D01*
X16370000Y10124285D01*
X16370000Y10338571D01*
X16441428Y10624285D01*
X16512857Y10767142D01*
X16655714Y10910000D01*
X16870000Y10981428D01*
X17012857Y10981428D01*
X17227142Y10910000D01*
X17298571Y10838571D01*
X18155714Y9481428D02*
X18012857Y9552857D01*
X17941428Y9624285D01*
X17870000Y9767142D01*
X17870000Y10195714D01*
X17941428Y10338571D01*
X18012857Y10410000D01*
X18155714Y10481428D01*
X18370000Y10481428D01*
X18512857Y10410000D01*
X18584285Y10338571D01*
X18655714Y10195714D01*
X18655714Y9767142D01*
X18584285Y9624285D01*
X18512857Y9552857D01*
X18370000Y9481428D01*
X18155714Y9481428D01*
X19512857Y9481428D02*
X19370000Y9552857D01*
X19298571Y9695714D01*
X19298571Y10981428D01*
X20870000Y9481428D02*
X20012857Y9481428D01*
X20441428Y9481428D02*
X20441428Y10981428D01*
X20298571Y10767142D01*
X20155714Y10624285D01*
X20012857Y10552857D01*
X-8731428Y-39074285D02*
X-9445714Y-39574285D01*
X-8731428Y-39931428D02*
X-10231428Y-39931428D01*
X-10231428Y-39360000D01*
X-10160000Y-39217142D01*
X-10088571Y-39145714D01*
X-9945714Y-39074285D01*
X-9731428Y-39074285D01*
X-9588571Y-39145714D01*
X-9517142Y-39217142D01*
X-9445714Y-39360000D01*
X-9445714Y-39931428D01*
X-8731428Y-38217142D02*
X-8802857Y-38360000D01*
X-8874285Y-38431428D01*
X-9017142Y-38502857D01*
X-9445714Y-38502857D01*
X-9588571Y-38431428D01*
X-9660000Y-38360000D01*
X-9731428Y-38217142D01*
X-9731428Y-38002857D01*
X-9660000Y-37860000D01*
X-9588571Y-37788571D01*
X-9445714Y-37717142D01*
X-9017142Y-37717142D01*
X-8874285Y-37788571D01*
X-8802857Y-37860000D01*
X-8731428Y-38002857D01*
X-8731428Y-38217142D01*
X-9731428Y-37217142D02*
X-8731428Y-36931428D01*
X-9445714Y-36645714D01*
X-8731428Y-36360000D01*
X-9731428Y-36074285D01*
X-10088571Y-35574285D02*
X-10160000Y-35502857D01*
X-10231428Y-35360000D01*
X-10231428Y-35002857D01*
X-10160000Y-34860000D01*
X-10088571Y-34788571D01*
X-9945714Y-34717142D01*
X-9802857Y-34717142D01*
X-9588571Y-34788571D01*
X-8731428Y-35645714D01*
X-8731428Y-34717142D01*
X74908571Y11684285D02*
X74837142Y11612857D01*
X74622857Y11541428D01*
X74480000Y11541428D01*
X74265714Y11612857D01*
X74122857Y11755714D01*
X74051428Y11898571D01*
X73980000Y12184285D01*
X73980000Y12398571D01*
X74051428Y12684285D01*
X74122857Y12827142D01*
X74265714Y12970000D01*
X74480000Y13041428D01*
X74622857Y13041428D01*
X74837142Y12970000D01*
X74908571Y12898571D01*
X75765714Y11541428D02*
X75622857Y11612857D01*
X75551428Y11684285D01*
X75480000Y11827142D01*
X75480000Y12255714D01*
X75551428Y12398571D01*
X75622857Y12470000D01*
X75765714Y12541428D01*
X75980000Y12541428D01*
X76122857Y12470000D01*
X76194285Y12398571D01*
X76265714Y12255714D01*
X76265714Y11827142D01*
X76194285Y11684285D01*
X76122857Y11612857D01*
X75980000Y11541428D01*
X75765714Y11541428D01*
X77122857Y11541428D02*
X76980000Y11612857D01*
X76908571Y11755714D01*
X76908571Y13041428D01*
X78337142Y12541428D02*
X78337142Y11541428D01*
X77980000Y13112857D02*
X77622857Y12041428D01*
X78551428Y12041428D01*
X36628571Y9614285D02*
X36557142Y9542857D01*
X36342857Y9471428D01*
X36200000Y9471428D01*
X35985714Y9542857D01*
X35842857Y9685714D01*
X35771428Y9828571D01*
X35700000Y10114285D01*
X35700000Y10328571D01*
X35771428Y10614285D01*
X35842857Y10757142D01*
X35985714Y10900000D01*
X36200000Y10971428D01*
X36342857Y10971428D01*
X36557142Y10900000D01*
X36628571Y10828571D01*
X37485714Y9471428D02*
X37342857Y9542857D01*
X37271428Y9614285D01*
X37200000Y9757142D01*
X37200000Y10185714D01*
X37271428Y10328571D01*
X37342857Y10400000D01*
X37485714Y10471428D01*
X37700000Y10471428D01*
X37842857Y10400000D01*
X37914285Y10328571D01*
X37985714Y10185714D01*
X37985714Y9757142D01*
X37914285Y9614285D01*
X37842857Y9542857D01*
X37700000Y9471428D01*
X37485714Y9471428D01*
X38842857Y9471428D02*
X38700000Y9542857D01*
X38628571Y9685714D01*
X38628571Y10971428D01*
X39342857Y10828571D02*
X39414285Y10900000D01*
X39557142Y10971428D01*
X39914285Y10971428D01*
X40057142Y10900000D01*
X40128571Y10828571D01*
X40200000Y10685714D01*
X40200000Y10542857D01*
X40128571Y10328571D01*
X39271428Y9471428D01*
X40200000Y9471428D01*
X-8561428Y-58244285D02*
X-9275714Y-58744285D01*
X-8561428Y-59101428D02*
X-10061428Y-59101428D01*
X-10061428Y-58530000D01*
X-9990000Y-58387142D01*
X-9918571Y-58315714D01*
X-9775714Y-58244285D01*
X-9561428Y-58244285D01*
X-9418571Y-58315714D01*
X-9347142Y-58387142D01*
X-9275714Y-58530000D01*
X-9275714Y-59101428D01*
X-8561428Y-57387142D02*
X-8632857Y-57530000D01*
X-8704285Y-57601428D01*
X-8847142Y-57672857D01*
X-9275714Y-57672857D01*
X-9418571Y-57601428D01*
X-9490000Y-57530000D01*
X-9561428Y-57387142D01*
X-9561428Y-57172857D01*
X-9490000Y-57030000D01*
X-9418571Y-56958571D01*
X-9275714Y-56887142D01*
X-8847142Y-56887142D01*
X-8704285Y-56958571D01*
X-8632857Y-57030000D01*
X-8561428Y-57172857D01*
X-8561428Y-57387142D01*
X-9561428Y-56387142D02*
X-8561428Y-56101428D01*
X-9275714Y-55815714D01*
X-8561428Y-55530000D01*
X-9561428Y-55244285D01*
X-10061428Y-54815714D02*
X-10061428Y-53887142D01*
X-9490000Y-54387142D01*
X-9490000Y-54172857D01*
X-9418571Y-54030000D01*
X-9347142Y-53958571D01*
X-9204285Y-53887142D01*
X-8847142Y-53887142D01*
X-8704285Y-53958571D01*
X-8632857Y-54030000D01*
X-8561428Y-54172857D01*
X-8561428Y-54601428D01*
X-8632857Y-54744285D01*
X-8704285Y-54815714D01*
X-8771428Y-614285D02*
X-9485714Y-1114285D01*
X-8771428Y-1471428D02*
X-10271428Y-1471428D01*
X-10271428Y-900000D01*
X-10200000Y-757142D01*
X-10128571Y-685714D01*
X-9985714Y-614285D01*
X-9771428Y-614285D01*
X-9628571Y-685714D01*
X-9557142Y-757142D01*
X-9485714Y-900000D01*
X-9485714Y-1471428D01*
X-8771428Y242857D02*
X-8842857Y100000D01*
X-8914285Y28571D01*
X-9057142Y-42857D01*
X-9485714Y-42857D01*
X-9628571Y28571D01*
X-9700000Y100000D01*
X-9771428Y242857D01*
X-9771428Y457142D01*
X-9700000Y600000D01*
X-9628571Y671428D01*
X-9485714Y742857D01*
X-9057142Y742857D01*
X-8914285Y671428D01*
X-8842857Y600000D01*
X-8771428Y457142D01*
X-8771428Y242857D01*
X-9771428Y1242857D02*
X-8771428Y1528571D01*
X-9485714Y1814285D01*
X-8771428Y2100000D01*
X-9771428Y2385714D01*
X-10271428Y3242857D02*
X-10271428Y3385714D01*
X-10200000Y3528571D01*
X-10128571Y3599999D01*
X-9985714Y3671428D01*
X-9700000Y3742857D01*
X-9342857Y3742857D01*
X-9057142Y3671428D01*
X-8914285Y3599999D01*
X-8842857Y3528571D01*
X-8771428Y3385714D01*
X-8771428Y3242857D01*
X-8842857Y3099999D01*
X-8914285Y3028571D01*
X-9057142Y2957142D01*
X-9342857Y2885714D01*
X-9700000Y2885714D01*
X-9985714Y2957142D01*
X-10128571Y3028571D01*
X-10200000Y3099999D01*
X-10271428Y3242857D01*
X-8601428Y-19784285D02*
X-9315714Y-20284285D01*
X-8601428Y-20641428D02*
X-10101428Y-20641428D01*
X-10101428Y-20070000D01*
X-10030000Y-19927142D01*
X-9958571Y-19855714D01*
X-9815714Y-19784285D01*
X-9601428Y-19784285D01*
X-9458571Y-19855714D01*
X-9387142Y-19927142D01*
X-9315714Y-20070000D01*
X-9315714Y-20641428D01*
X-8601428Y-18927142D02*
X-8672857Y-19070000D01*
X-8744285Y-19141428D01*
X-8887142Y-19212857D01*
X-9315714Y-19212857D01*
X-9458571Y-19141428D01*
X-9530000Y-19070000D01*
X-9601428Y-18927142D01*
X-9601428Y-18712857D01*
X-9530000Y-18570000D01*
X-9458571Y-18498571D01*
X-9315714Y-18427142D01*
X-8887142Y-18427142D01*
X-8744285Y-18498571D01*
X-8672857Y-18570000D01*
X-8601428Y-18712857D01*
X-8601428Y-18927142D01*
X-9601428Y-17927142D02*
X-8601428Y-17641428D01*
X-9315714Y-17355714D01*
X-8601428Y-17070000D01*
X-9601428Y-16784285D01*
X-8601428Y-15427142D02*
X-8601428Y-16284285D01*
X-8601428Y-15855714D02*
X-10101428Y-15855714D01*
X-9887142Y-15998571D01*
X-9744285Y-16141428D01*
X-9672857Y-16284285D01*
D11*
X6100000Y896000D02*
X2490000Y896000D01*
X6100000Y4850000D02*
X6100000Y905000D01*
X-4800000Y6804000D02*
X3825000Y6804000D01*
X-4800000Y2896000D02*
X-4800000Y6804000D01*
X-4800000Y2850000D02*
X250000Y2804000D01*
X-2275000Y-8225000D02*
X2275000Y-8225000D01*
X-2275000Y-3575000D02*
X275000Y-3575000D01*
X2575000Y-1375000D02*
X7275000Y-1375000D01*
X3500000Y-6025000D02*
X7275000Y-6025000D01*
X-2300000Y-3600000D02*
X-2300000Y-8200000D01*
X7275000Y-1400000D02*
X7300000Y-6000000D01*
X2280000Y-7500000D02*
X2280000Y-8200000D01*
X6089000Y4920000D02*
G75*
G03*
X3825000Y6804000I-2074000J-190000D01*
G01*
X2485000Y920000D02*
G75*
G03*
X225000Y2800000I-2070000J-190000D01*
G01*
X2570000Y-1400000D02*
G75*
G02*
X200000Y-3570000I-2270000J100000D01*
G01*
X2280000Y-7450000D02*
G75*
G02*
X3500000Y-6030000I1320000J100000D01*
G01*
X44200000Y896000D02*
X40590000Y896000D01*
X44200000Y4850000D02*
X44200000Y905000D01*
X33300000Y6804000D02*
X41925000Y6804000D01*
X33300000Y2896000D02*
X33300000Y6804000D01*
X33300000Y2850000D02*
X38350000Y2804000D01*
X35825000Y-8225000D02*
X40375000Y-8225000D01*
X35825000Y-3575000D02*
X38375000Y-3575000D01*
X40675000Y-1375000D02*
X45375000Y-1375000D01*
X41600000Y-6025000D02*
X45375000Y-6025000D01*
X35800000Y-3600000D02*
X35800000Y-8200000D01*
X45375000Y-1400000D02*
X45400000Y-6000000D01*
X40380000Y-7500000D02*
X40380000Y-8200000D01*
X44189000Y4920000D02*
G75*
G03*
X41925000Y6804000I-2074000J-190000D01*
G01*
X40585000Y920000D02*
G75*
G03*
X38325000Y2800000I-2070000J-190000D01*
G01*
X40670000Y-1400000D02*
G75*
G02*
X38300000Y-3570000I-2270000J100000D01*
G01*
X40380000Y-7450000D02*
G75*
G02*
X41600000Y-6030000I1320000J100000D01*
G01*
X37700000Y8000000D02*
X38600000Y8500000D01*
X38600000Y8500000D02*
X38600000Y7500000D01*
X38600000Y7500000D02*
X37700000Y8000000D01*
X37600000Y8500000D02*
X37600000Y7500000D01*
X40800000Y8750000D02*
X35400000Y8750000D01*
X35400000Y8750000D02*
X35400000Y7250000D01*
X35400000Y7250000D02*
X40800000Y7250000D01*
X40800000Y7250000D02*
X40800000Y8750000D01*
X56750000Y8000000D02*
X57650000Y8500000D01*
X57650000Y8500000D02*
X57650000Y7500000D01*
X57650000Y7500000D02*
X56750000Y8000000D01*
X56650000Y8500000D02*
X56650000Y7500000D01*
X59850000Y8750000D02*
X54450000Y8750000D01*
X54450000Y8750000D02*
X54450000Y7250000D01*
X54450000Y7250000D02*
X59850000Y7250000D01*
X59850000Y7250000D02*
X59850000Y8750000D01*
X75800000Y8000000D02*
X76700000Y8500000D01*
X76700000Y8500000D02*
X76700000Y7500000D01*
X76700000Y7500000D02*
X75800000Y8000000D01*
X75700000Y8500000D02*
X75700000Y7500000D01*
X78900000Y8750000D02*
X73500000Y8750000D01*
X73500000Y8750000D02*
X73500000Y7250000D01*
X73500000Y7250000D02*
X78900000Y7250000D01*
X78900000Y7250000D02*
X78900000Y8750000D01*
X18650000Y8000000D02*
X19550000Y8500000D01*
X19550000Y8500000D02*
X19550000Y7500000D01*
X19550000Y7500000D02*
X18650000Y8000000D01*
X18550000Y8500000D02*
X18550000Y7500000D01*
X21750000Y8750000D02*
X16350000Y8750000D01*
X16350000Y8750000D02*
X16350000Y7250000D01*
X16350000Y7250000D02*
X21750000Y7250000D01*
X21750000Y7250000D02*
X21750000Y8750000D01*
X78480000Y-7500000D02*
X78480000Y-8200000D01*
X83475000Y-1400000D02*
X83500000Y-6000000D01*
X73900000Y-3600000D02*
X73900000Y-8200000D01*
X79700000Y-6025000D02*
X83475000Y-6025000D01*
X78775000Y-1375000D02*
X83475000Y-1375000D01*
X73925000Y-3575000D02*
X76475000Y-3575000D01*
X73925000Y-8225000D02*
X78475000Y-8225000D01*
X71400000Y2850000D02*
X76450000Y2804000D01*
X71400000Y2896000D02*
X71400000Y6804000D01*
X71400000Y6804000D02*
X80025000Y6804000D01*
X82300000Y4850000D02*
X82300000Y905000D01*
X82300000Y896000D02*
X78690000Y896000D01*
X78480000Y-7450000D02*
G75*
G02*
X79700000Y-6030000I1320000J100000D01*
G01*
X78770000Y-1400000D02*
G75*
G02*
X76400000Y-3570000I-2270000J100000D01*
G01*
X78685000Y920000D02*
G75*
G03*
X76425000Y2800000I-2070000J-190000D01*
G01*
X82289000Y4920000D02*
G75*
G03*
X80025000Y6804000I-2074000J-190000D01*
G01*
X35130000Y32070000D02*
X41130000Y32070000D01*
X41130000Y32070000D02*
X41130000Y20070000D01*
X41130000Y20070000D02*
X35130000Y20070000D01*
X35130000Y20070000D02*
X35130000Y32070000D01*
X31350000Y19350000D02*
X31350000Y25050000D01*
X31350000Y25050000D02*
X31100000Y25050000D01*
X31350000Y19350000D02*
X31100000Y19350000D01*
X28150000Y19350000D02*
X28400000Y19350000D01*
X28150000Y19350000D02*
X28150000Y25050000D01*
X28150000Y25050000D02*
X28400000Y25050000D01*
X43830000Y29660000D02*
X43830000Y19760000D01*
X46130000Y29660000D02*
X46130000Y19760000D01*
X46130000Y19760000D02*
X43830000Y19760000D01*
X43830000Y29660000D02*
X46130000Y29660000D01*
X25150000Y896000D02*
X21540000Y896000D01*
X25150000Y4850000D02*
X25150000Y905000D01*
X14250000Y6804000D02*
X22875000Y6804000D01*
X14250000Y2896000D02*
X14250000Y6804000D01*
X14250000Y2850000D02*
X19300000Y2804000D01*
X16775000Y-8225000D02*
X21325000Y-8225000D01*
X16775000Y-3575000D02*
X19325000Y-3575000D01*
X21625000Y-1375000D02*
X26325000Y-1375000D01*
X22550000Y-6025000D02*
X26325000Y-6025000D01*
X16750000Y-3600000D02*
X16750000Y-8200000D01*
X26325000Y-1400000D02*
X26350000Y-6000000D01*
X21330000Y-7500000D02*
X21330000Y-8200000D01*
X25139000Y4920000D02*
G75*
G03*
X22875000Y6804000I-2074000J-190000D01*
G01*
X21535000Y920000D02*
G75*
G03*
X19275000Y2800000I-2070000J-190000D01*
G01*
X21620000Y-1400000D02*
G75*
G02*
X19250000Y-3570000I-2270000J100000D01*
G01*
X21330000Y-7450000D02*
G75*
G02*
X22550000Y-6030000I1320000J100000D01*
G01*
X-400000Y-11050000D02*
X500000Y-10550000D01*
X500000Y-10550000D02*
X500000Y-11550000D01*
X500000Y-11550000D02*
X-400000Y-11050000D01*
X-500000Y-10550000D02*
X-500000Y-11550000D01*
X2700000Y-10300000D02*
X-2700000Y-10300000D01*
X-2700000Y-10300000D02*
X-2700000Y-11800000D01*
X-2700000Y-11800000D02*
X2700000Y-11800000D01*
X2700000Y-11800000D02*
X2700000Y-10300000D01*
X56750000Y-11050000D02*
X57650000Y-10550000D01*
X57650000Y-10550000D02*
X57650000Y-11550000D01*
X57650000Y-11550000D02*
X56750000Y-11050000D01*
X56650000Y-10550000D02*
X56650000Y-11550000D01*
X59850000Y-10300000D02*
X54450000Y-10300000D01*
X54450000Y-10300000D02*
X54450000Y-11800000D01*
X54450000Y-11800000D02*
X59850000Y-11800000D01*
X59850000Y-11800000D02*
X59850000Y-10300000D01*
X18650000Y-49150000D02*
X19550000Y-48650000D01*
X19550000Y-48650000D02*
X19550000Y-49650000D01*
X19550000Y-49650000D02*
X18650000Y-49150000D01*
X18550000Y-48650000D02*
X18550000Y-49650000D01*
X21750000Y-48400000D02*
X16350000Y-48400000D01*
X16350000Y-48400000D02*
X16350000Y-49900000D01*
X16350000Y-49900000D02*
X21750000Y-49900000D01*
X21750000Y-49900000D02*
X21750000Y-48400000D01*
X37700000Y-11050000D02*
X38600000Y-10550000D01*
X38600000Y-10550000D02*
X38600000Y-11550000D01*
X38600000Y-11550000D02*
X37700000Y-11050000D01*
X37600000Y-10550000D02*
X37600000Y-11550000D01*
X40800000Y-10300000D02*
X35400000Y-10300000D01*
X35400000Y-10300000D02*
X35400000Y-11800000D01*
X35400000Y-11800000D02*
X40800000Y-11800000D01*
X40800000Y-11800000D02*
X40800000Y-10300000D01*
X18650000Y-11050000D02*
X19550000Y-10550000D01*
X19550000Y-10550000D02*
X19550000Y-11550000D01*
X19550000Y-11550000D02*
X18650000Y-11050000D01*
X18550000Y-10550000D02*
X18550000Y-11550000D01*
X21750000Y-10300000D02*
X16350000Y-10300000D01*
X16350000Y-10300000D02*
X16350000Y-11800000D01*
X16350000Y-11800000D02*
X21750000Y-11800000D01*
X21750000Y-11800000D02*
X21750000Y-10300000D01*
X37700000Y-49150000D02*
X38600000Y-48650000D01*
X38600000Y-48650000D02*
X38600000Y-49650000D01*
X38600000Y-49650000D02*
X37700000Y-49150000D01*
X37600000Y-48650000D02*
X37600000Y-49650000D01*
X40800000Y-48400000D02*
X35400000Y-48400000D01*
X35400000Y-48400000D02*
X35400000Y-49900000D01*
X35400000Y-49900000D02*
X40800000Y-49900000D01*
X40800000Y-49900000D02*
X40800000Y-48400000D01*
X56750000Y-49150000D02*
X57650000Y-48650000D01*
X57650000Y-48650000D02*
X57650000Y-49650000D01*
X57650000Y-49650000D02*
X56750000Y-49150000D01*
X56650000Y-48650000D02*
X56650000Y-49650000D01*
X59850000Y-48400000D02*
X54450000Y-48400000D01*
X54450000Y-48400000D02*
X54450000Y-49900000D01*
X54450000Y-49900000D02*
X59850000Y-49900000D01*
X59850000Y-49900000D02*
X59850000Y-48400000D01*
X23482000Y28646400D02*
X-6998000Y28646400D01*
X23482000Y31186400D02*
X23482000Y28646400D01*
X-6998000Y31186400D02*
X23482000Y31186400D01*
X-6998000Y28646400D02*
X-6998000Y31186400D01*
X23482000Y13426400D02*
X-6998000Y13426400D01*
X23482000Y15966400D02*
X23482000Y13426400D01*
X-6998000Y15966400D02*
X23482000Y15966400D01*
X-6998000Y13426400D02*
X-6998000Y15966400D01*
X78880000Y9890000D02*
X78880000Y11390000D01*
X73480000Y9890000D02*
X78880000Y9890000D01*
X73480000Y11390000D02*
X73480000Y9890000D01*
X78880000Y11390000D02*
X73480000Y11390000D01*
X75680000Y11140000D02*
X75680000Y10140000D01*
X76680000Y10140000D02*
X75780000Y10640000D01*
X76680000Y11140000D02*
X76680000Y10140000D01*
X75780000Y10640000D02*
X76680000Y11140000D01*
X82300000Y-37204000D02*
X78690000Y-37204000D01*
X82300000Y-33250000D02*
X82300000Y-37195000D01*
X71400000Y-31296000D02*
X80025000Y-31296000D01*
X71400000Y-35204000D02*
X71400000Y-31296000D01*
X71400000Y-35250000D02*
X76450000Y-35296000D01*
X73925000Y-46325000D02*
X78475000Y-46325000D01*
X73925000Y-41675000D02*
X76475000Y-41675000D01*
X78775000Y-39475000D02*
X83475000Y-39475000D01*
X79700000Y-44125000D02*
X83475000Y-44125000D01*
X73900000Y-41700000D02*
X73900000Y-46300000D01*
X83475000Y-39500000D02*
X83500000Y-44100000D01*
X78480000Y-45600000D02*
X78480000Y-46300000D01*
X82289000Y-33180000D02*
G75*
G03*
X80025000Y-31296000I-2074000J-190000D01*
G01*
X78685000Y-37180000D02*
G75*
G03*
X76425000Y-35300000I-2070000J-190000D01*
G01*
X78770000Y-39500000D02*
G75*
G02*
X76400000Y-41670000I-2270000J100000D01*
G01*
X78480000Y-45550000D02*
G75*
G02*
X79700000Y-44130000I1320000J100000D01*
G01*
X56750000Y-30100000D02*
X57650000Y-29600000D01*
X57650000Y-29600000D02*
X57650000Y-30600000D01*
X57650000Y-30600000D02*
X56750000Y-30100000D01*
X56650000Y-29600000D02*
X56650000Y-30600000D01*
X59850000Y-29350000D02*
X54450000Y-29350000D01*
X54450000Y-29350000D02*
X54450000Y-30850000D01*
X54450000Y-30850000D02*
X59850000Y-30850000D01*
X59850000Y-30850000D02*
X59850000Y-29350000D01*
X6100000Y-18154000D02*
X2490000Y-18154000D01*
X6100000Y-14200000D02*
X6100000Y-18145000D01*
X-4800000Y-12246000D02*
X3825000Y-12246000D01*
X-4800000Y-16154000D02*
X-4800000Y-12246000D01*
X-4800000Y-16200000D02*
X250000Y-16246000D01*
X-2275000Y-27275000D02*
X2275000Y-27275000D01*
X-2275000Y-22625000D02*
X275000Y-22625000D01*
X2575000Y-20425000D02*
X7275000Y-20425000D01*
X3500000Y-25075000D02*
X7275000Y-25075000D01*
X-2300000Y-22650000D02*
X-2300000Y-27250000D01*
X7275000Y-20450000D02*
X7300000Y-25050000D01*
X2280000Y-26550000D02*
X2280000Y-27250000D01*
X6089000Y-14130000D02*
G75*
G03*
X3825000Y-12246000I-2074000J-190000D01*
G01*
X2485000Y-18130000D02*
G75*
G03*
X225000Y-16250000I-2070000J-190000D01*
G01*
X2570000Y-20450000D02*
G75*
G02*
X200000Y-22620000I-2270000J100000D01*
G01*
X2280000Y-26500000D02*
G75*
G02*
X3500000Y-25080000I1320000J100000D01*
G01*
X21330000Y-64650000D02*
X21330000Y-65350000D01*
X26325000Y-58550000D02*
X26350000Y-63150000D01*
X16750000Y-60750000D02*
X16750000Y-65350000D01*
X22550000Y-63175000D02*
X26325000Y-63175000D01*
X21625000Y-58525000D02*
X26325000Y-58525000D01*
X16775000Y-60725000D02*
X19325000Y-60725000D01*
X16775000Y-65375000D02*
X21325000Y-65375000D01*
X14250000Y-54300000D02*
X19300000Y-54346000D01*
X14250000Y-54254000D02*
X14250000Y-50346000D01*
X14250000Y-50346000D02*
X22875000Y-50346000D01*
X25150000Y-52300000D02*
X25150000Y-56245000D01*
X25150000Y-56254000D02*
X21540000Y-56254000D01*
X21330000Y-64600000D02*
G75*
G02*
X22550000Y-63180000I1320000J100000D01*
G01*
X21620000Y-58550000D02*
G75*
G02*
X19250000Y-60720000I-2270000J100000D01*
G01*
X21535000Y-56230000D02*
G75*
G03*
X19275000Y-54350000I-2070000J-190000D01*
G01*
X25139000Y-52230000D02*
G75*
G03*
X22875000Y-50346000I-2074000J-190000D01*
G01*
X44200000Y-56254000D02*
X40590000Y-56254000D01*
X44200000Y-52300000D02*
X44200000Y-56245000D01*
X33300000Y-50346000D02*
X41925000Y-50346000D01*
X33300000Y-54254000D02*
X33300000Y-50346000D01*
X33300000Y-54300000D02*
X38350000Y-54346000D01*
X35825000Y-65375000D02*
X40375000Y-65375000D01*
X35825000Y-60725000D02*
X38375000Y-60725000D01*
X40675000Y-58525000D02*
X45375000Y-58525000D01*
X41600000Y-63175000D02*
X45375000Y-63175000D01*
X35800000Y-60750000D02*
X35800000Y-65350000D01*
X45375000Y-58550000D02*
X45400000Y-63150000D01*
X40380000Y-64650000D02*
X40380000Y-65350000D01*
X44189000Y-52230000D02*
G75*
G03*
X41925000Y-50346000I-2074000J-190000D01*
G01*
X40585000Y-56230000D02*
G75*
G03*
X38325000Y-54350000I-2070000J-190000D01*
G01*
X40670000Y-58550000D02*
G75*
G02*
X38300000Y-60720000I-2270000J100000D01*
G01*
X40380000Y-64600000D02*
G75*
G02*
X41600000Y-63180000I1320000J100000D01*
G01*
X59430000Y-64650000D02*
X59430000Y-65350000D01*
X64425000Y-58550000D02*
X64450000Y-63150000D01*
X54850000Y-60750000D02*
X54850000Y-65350000D01*
X60650000Y-63175000D02*
X64425000Y-63175000D01*
X59725000Y-58525000D02*
X64425000Y-58525000D01*
X54875000Y-60725000D02*
X57425000Y-60725000D01*
X54875000Y-65375000D02*
X59425000Y-65375000D01*
X52350000Y-54300000D02*
X57400000Y-54346000D01*
X52350000Y-54254000D02*
X52350000Y-50346000D01*
X52350000Y-50346000D02*
X60975000Y-50346000D01*
X63250000Y-52300000D02*
X63250000Y-56245000D01*
X63250000Y-56254000D02*
X59640000Y-56254000D01*
X59430000Y-64600000D02*
G75*
G02*
X60650000Y-63180000I1320000J100000D01*
G01*
X59720000Y-58550000D02*
G75*
G02*
X57350000Y-60720000I-2270000J100000D01*
G01*
X59635000Y-56230000D02*
G75*
G03*
X57375000Y-54350000I-2070000J-190000D01*
G01*
X63239000Y-52230000D02*
G75*
G03*
X60975000Y-50346000I-2074000J-190000D01*
G01*
X82300000Y-56254000D02*
X78690000Y-56254000D01*
X82300000Y-52300000D02*
X82300000Y-56245000D01*
X71400000Y-50346000D02*
X80025000Y-50346000D01*
X71400000Y-54254000D02*
X71400000Y-50346000D01*
X71400000Y-54300000D02*
X76450000Y-54346000D01*
X73925000Y-65375000D02*
X78475000Y-65375000D01*
X73925000Y-60725000D02*
X76475000Y-60725000D01*
X78775000Y-58525000D02*
X83475000Y-58525000D01*
X79700000Y-63175000D02*
X83475000Y-63175000D01*
X73900000Y-60750000D02*
X73900000Y-65350000D01*
X83475000Y-58550000D02*
X83500000Y-63150000D01*
X78480000Y-64650000D02*
X78480000Y-65350000D01*
X82289000Y-52230000D02*
G75*
G03*
X80025000Y-50346000I-2074000J-190000D01*
G01*
X78685000Y-56230000D02*
G75*
G03*
X76425000Y-54350000I-2070000J-190000D01*
G01*
X78770000Y-58550000D02*
G75*
G02*
X76400000Y-60720000I-2270000J100000D01*
G01*
X78480000Y-64600000D02*
G75*
G02*
X79700000Y-63180000I1320000J100000D01*
G01*
X2280000Y-64650000D02*
X2280000Y-65350000D01*
X7275000Y-58550000D02*
X7300000Y-63150000D01*
X-2300000Y-60750000D02*
X-2300000Y-65350000D01*
X3500000Y-63175000D02*
X7275000Y-63175000D01*
X2575000Y-58525000D02*
X7275000Y-58525000D01*
X-2275000Y-60725000D02*
X275000Y-60725000D01*
X-2275000Y-65375000D02*
X2275000Y-65375000D01*
X-4800000Y-54300000D02*
X250000Y-54346000D01*
X-4800000Y-54254000D02*
X-4800000Y-50346000D01*
X-4800000Y-50346000D02*
X3825000Y-50346000D01*
X6100000Y-52300000D02*
X6100000Y-56245000D01*
X6100000Y-56254000D02*
X2490000Y-56254000D01*
X2280000Y-64600000D02*
G75*
G02*
X3500000Y-63180000I1320000J100000D01*
G01*
X2570000Y-58550000D02*
G75*
G02*
X200000Y-60720000I-2270000J100000D01*
G01*
X2485000Y-56230000D02*
G75*
G03*
X225000Y-54350000I-2070000J-190000D01*
G01*
X6089000Y-52230000D02*
G75*
G03*
X3825000Y-50346000I-2074000J-190000D01*
G01*
X25150000Y-18154000D02*
X21540000Y-18154000D01*
X25150000Y-14200000D02*
X25150000Y-18145000D01*
X14250000Y-12246000D02*
X22875000Y-12246000D01*
X14250000Y-16154000D02*
X14250000Y-12246000D01*
X14250000Y-16200000D02*
X19300000Y-16246000D01*
X16775000Y-27275000D02*
X21325000Y-27275000D01*
X16775000Y-22625000D02*
X19325000Y-22625000D01*
X21625000Y-20425000D02*
X26325000Y-20425000D01*
X22550000Y-25075000D02*
X26325000Y-25075000D01*
X16750000Y-22650000D02*
X16750000Y-27250000D01*
X26325000Y-20450000D02*
X26350000Y-25050000D01*
X21330000Y-26550000D02*
X21330000Y-27250000D01*
X25139000Y-14130000D02*
G75*
G03*
X22875000Y-12246000I-2074000J-190000D01*
G01*
X21535000Y-18130000D02*
G75*
G03*
X19275000Y-16250000I-2070000J-190000D01*
G01*
X21620000Y-20450000D02*
G75*
G02*
X19250000Y-22620000I-2270000J100000D01*
G01*
X21330000Y-26500000D02*
G75*
G02*
X22550000Y-25080000I1320000J100000D01*
G01*
X40380000Y-26550000D02*
X40380000Y-27250000D01*
X45375000Y-20450000D02*
X45400000Y-25050000D01*
X35800000Y-22650000D02*
X35800000Y-27250000D01*
X41600000Y-25075000D02*
X45375000Y-25075000D01*
X40675000Y-20425000D02*
X45375000Y-20425000D01*
X35825000Y-22625000D02*
X38375000Y-22625000D01*
X35825000Y-27275000D02*
X40375000Y-27275000D01*
X33300000Y-16200000D02*
X38350000Y-16246000D01*
X33300000Y-16154000D02*
X33300000Y-12246000D01*
X33300000Y-12246000D02*
X41925000Y-12246000D01*
X44200000Y-14200000D02*
X44200000Y-18145000D01*
X44200000Y-18154000D02*
X40590000Y-18154000D01*
X40380000Y-26500000D02*
G75*
G02*
X41600000Y-25080000I1320000J100000D01*
G01*
X40670000Y-20450000D02*
G75*
G02*
X38300000Y-22620000I-2270000J100000D01*
G01*
X40585000Y-18130000D02*
G75*
G03*
X38325000Y-16250000I-2070000J-190000D01*
G01*
X44189000Y-14130000D02*
G75*
G03*
X41925000Y-12246000I-2074000J-190000D01*
G01*
X59430000Y-26550000D02*
X59430000Y-27250000D01*
X64425000Y-20450000D02*
X64450000Y-25050000D01*
X54850000Y-22650000D02*
X54850000Y-27250000D01*
X60650000Y-25075000D02*
X64425000Y-25075000D01*
X59725000Y-20425000D02*
X64425000Y-20425000D01*
X54875000Y-22625000D02*
X57425000Y-22625000D01*
X54875000Y-27275000D02*
X59425000Y-27275000D01*
X52350000Y-16200000D02*
X57400000Y-16246000D01*
X52350000Y-16154000D02*
X52350000Y-12246000D01*
X52350000Y-12246000D02*
X60975000Y-12246000D01*
X63250000Y-14200000D02*
X63250000Y-18145000D01*
X63250000Y-18154000D02*
X59640000Y-18154000D01*
X59430000Y-26500000D02*
G75*
G02*
X60650000Y-25080000I1320000J100000D01*
G01*
X59720000Y-20450000D02*
G75*
G02*
X57350000Y-22620000I-2270000J100000D01*
G01*
X59635000Y-18130000D02*
G75*
G03*
X57375000Y-16250000I-2070000J-190000D01*
G01*
X63239000Y-14130000D02*
G75*
G03*
X60975000Y-12246000I-2074000J-190000D01*
G01*
X78480000Y-26550000D02*
X78480000Y-27250000D01*
X83475000Y-20450000D02*
X83500000Y-25050000D01*
X73900000Y-22650000D02*
X73900000Y-27250000D01*
X79700000Y-25075000D02*
X83475000Y-25075000D01*
X78775000Y-20425000D02*
X83475000Y-20425000D01*
X73925000Y-22625000D02*
X76475000Y-22625000D01*
X73925000Y-27275000D02*
X78475000Y-27275000D01*
X71400000Y-16200000D02*
X76450000Y-16246000D01*
X71400000Y-16154000D02*
X71400000Y-12246000D01*
X71400000Y-12246000D02*
X80025000Y-12246000D01*
X82300000Y-14200000D02*
X82300000Y-18145000D01*
X82300000Y-18154000D02*
X78690000Y-18154000D01*
X78480000Y-26500000D02*
G75*
G02*
X79700000Y-25080000I1320000J100000D01*
G01*
X78770000Y-20450000D02*
G75*
G02*
X76400000Y-22620000I-2270000J100000D01*
G01*
X78685000Y-18130000D02*
G75*
G03*
X76425000Y-16250000I-2070000J-190000D01*
G01*
X82289000Y-14130000D02*
G75*
G03*
X80025000Y-12246000I-2074000J-190000D01*
G01*
X6100000Y-37204000D02*
X2490000Y-37204000D01*
X6100000Y-33250000D02*
X6100000Y-37195000D01*
X-4800000Y-31296000D02*
X3825000Y-31296000D01*
X-4800000Y-35204000D02*
X-4800000Y-31296000D01*
X-4800000Y-35250000D02*
X250000Y-35296000D01*
X-2275000Y-46325000D02*
X2275000Y-46325000D01*
X-2275000Y-41675000D02*
X275000Y-41675000D01*
X2575000Y-39475000D02*
X7275000Y-39475000D01*
X3500000Y-44125000D02*
X7275000Y-44125000D01*
X-2300000Y-41700000D02*
X-2300000Y-46300000D01*
X7275000Y-39500000D02*
X7300000Y-44100000D01*
X2280000Y-45600000D02*
X2280000Y-46300000D01*
X6089000Y-33180000D02*
G75*
G03*
X3825000Y-31296000I-2074000J-190000D01*
G01*
X2485000Y-37180000D02*
G75*
G03*
X225000Y-35300000I-2070000J-190000D01*
G01*
X2570000Y-39500000D02*
G75*
G02*
X200000Y-41670000I-2270000J100000D01*
G01*
X2280000Y-45550000D02*
G75*
G02*
X3500000Y-44130000I1320000J100000D01*
G01*
X21330000Y-45600000D02*
X21330000Y-46300000D01*
X26325000Y-39500000D02*
X26350000Y-44100000D01*
X16750000Y-41700000D02*
X16750000Y-46300000D01*
X22550000Y-44125000D02*
X26325000Y-44125000D01*
X21625000Y-39475000D02*
X26325000Y-39475000D01*
X16775000Y-41675000D02*
X19325000Y-41675000D01*
X16775000Y-46325000D02*
X21325000Y-46325000D01*
X14250000Y-35250000D02*
X19300000Y-35296000D01*
X14250000Y-35204000D02*
X14250000Y-31296000D01*
X14250000Y-31296000D02*
X22875000Y-31296000D01*
X25150000Y-33250000D02*
X25150000Y-37195000D01*
X25150000Y-37204000D02*
X21540000Y-37204000D01*
X21330000Y-45550000D02*
G75*
G02*
X22550000Y-44130000I1320000J100000D01*
G01*
X21620000Y-39500000D02*
G75*
G02*
X19250000Y-41670000I-2270000J100000D01*
G01*
X21535000Y-37180000D02*
G75*
G03*
X19275000Y-35300000I-2070000J-190000D01*
G01*
X25139000Y-33180000D02*
G75*
G03*
X22875000Y-31296000I-2074000J-190000D01*
G01*
X44200000Y-37204000D02*
X40590000Y-37204000D01*
X44200000Y-33250000D02*
X44200000Y-37195000D01*
X33300000Y-31296000D02*
X41925000Y-31296000D01*
X33300000Y-35204000D02*
X33300000Y-31296000D01*
X33300000Y-35250000D02*
X38350000Y-35296000D01*
X35825000Y-46325000D02*
X40375000Y-46325000D01*
X35825000Y-41675000D02*
X38375000Y-41675000D01*
X40675000Y-39475000D02*
X45375000Y-39475000D01*
X41600000Y-44125000D02*
X45375000Y-44125000D01*
X35800000Y-41700000D02*
X35800000Y-46300000D01*
X45375000Y-39500000D02*
X45400000Y-44100000D01*
X40380000Y-45600000D02*
X40380000Y-46300000D01*
X44189000Y-33180000D02*
G75*
G03*
X41925000Y-31296000I-2074000J-190000D01*
G01*
X40585000Y-37180000D02*
G75*
G03*
X38325000Y-35300000I-2070000J-190000D01*
G01*
X40670000Y-39500000D02*
G75*
G02*
X38300000Y-41670000I-2270000J100000D01*
G01*
X40380000Y-45550000D02*
G75*
G02*
X41600000Y-44130000I1320000J100000D01*
G01*
X59430000Y-45600000D02*
X59430000Y-46300000D01*
X64425000Y-39500000D02*
X64450000Y-44100000D01*
X54850000Y-41700000D02*
X54850000Y-46300000D01*
X60650000Y-44125000D02*
X64425000Y-44125000D01*
X59725000Y-39475000D02*
X64425000Y-39475000D01*
X54875000Y-41675000D02*
X57425000Y-41675000D01*
X54875000Y-46325000D02*
X59425000Y-46325000D01*
X52350000Y-35250000D02*
X57400000Y-35296000D01*
X52350000Y-35204000D02*
X52350000Y-31296000D01*
X52350000Y-31296000D02*
X60975000Y-31296000D01*
X63250000Y-33250000D02*
X63250000Y-37195000D01*
X63250000Y-37204000D02*
X59640000Y-37204000D01*
X59430000Y-45550000D02*
G75*
G02*
X60650000Y-44130000I1320000J100000D01*
G01*
X59720000Y-39500000D02*
G75*
G02*
X57350000Y-41670000I-2270000J100000D01*
G01*
X59635000Y-37180000D02*
G75*
G03*
X57375000Y-35300000I-2070000J-190000D01*
G01*
X63239000Y-33180000D02*
G75*
G03*
X60975000Y-31296000I-2074000J-190000D01*
G01*
X-400000Y-30100000D02*
X500000Y-29600000D01*
X500000Y-29600000D02*
X500000Y-30600000D01*
X500000Y-30600000D02*
X-400000Y-30100000D01*
X-500000Y-29600000D02*
X-500000Y-30600000D01*
X2700000Y-29350000D02*
X-2700000Y-29350000D01*
X-2700000Y-29350000D02*
X-2700000Y-30850000D01*
X-2700000Y-30850000D02*
X2700000Y-30850000D01*
X2700000Y-30850000D02*
X2700000Y-29350000D01*
X56800000Y10620000D02*
X57700000Y11120000D01*
X57700000Y11120000D02*
X57700000Y10120000D01*
X57700000Y10120000D02*
X56800000Y10620000D01*
X56700000Y11120000D02*
X56700000Y10120000D01*
X59900000Y11370000D02*
X54500000Y11370000D01*
X54500000Y11370000D02*
X54500000Y9870000D01*
X54500000Y9870000D02*
X59900000Y9870000D01*
X59900000Y9870000D02*
X59900000Y11370000D01*
X37700000Y-30100000D02*
X38600000Y-29600000D01*
X38600000Y-29600000D02*
X38600000Y-30600000D01*
X38600000Y-30600000D02*
X37700000Y-30100000D01*
X37600000Y-29600000D02*
X37600000Y-30600000D01*
X40800000Y-29350000D02*
X35400000Y-29350000D01*
X35400000Y-29350000D02*
X35400000Y-30850000D01*
X35400000Y-30850000D02*
X40800000Y-30850000D01*
X40800000Y-30850000D02*
X40800000Y-29350000D01*
X18650000Y-30100000D02*
X19550000Y-29600000D01*
X19550000Y-29600000D02*
X19550000Y-30600000D01*
X19550000Y-30600000D02*
X18650000Y-30100000D01*
X18550000Y-29600000D02*
X18550000Y-30600000D01*
X21750000Y-29350000D02*
X16350000Y-29350000D01*
X16350000Y-29350000D02*
X16350000Y-30850000D01*
X16350000Y-30850000D02*
X21750000Y-30850000D01*
X21750000Y-30850000D02*
X21750000Y-29350000D01*
X75800000Y-11050000D02*
X76700000Y-10550000D01*
X76700000Y-10550000D02*
X76700000Y-11550000D01*
X76700000Y-11550000D02*
X75800000Y-11050000D01*
X75700000Y-10550000D02*
X75700000Y-11550000D01*
X78900000Y-10300000D02*
X73500000Y-10300000D01*
X73500000Y-10300000D02*
X73500000Y-11800000D01*
X73500000Y-11800000D02*
X78900000Y-11800000D01*
X78900000Y-11800000D02*
X78900000Y-10300000D01*
X-400000Y8000000D02*
X500000Y8500000D01*
X500000Y8500000D02*
X500000Y7500000D01*
X500000Y7500000D02*
X-400000Y8000000D01*
X-500000Y8500000D02*
X-500000Y7500000D01*
X2700000Y8750000D02*
X-2700000Y8750000D01*
X-2700000Y8750000D02*
X-2700000Y7250000D01*
X-2700000Y7250000D02*
X2700000Y7250000D01*
X2700000Y7250000D02*
X2700000Y8750000D01*
X63250000Y896000D02*
X59640000Y896000D01*
X63250000Y4850000D02*
X63250000Y905000D01*
X52350000Y6804000D02*
X60975000Y6804000D01*
X52350000Y2896000D02*
X52350000Y6804000D01*
X52350000Y2850000D02*
X57400000Y2804000D01*
X54875000Y-8225000D02*
X59425000Y-8225000D01*
X54875000Y-3575000D02*
X57425000Y-3575000D01*
X59725000Y-1375000D02*
X64425000Y-1375000D01*
X60650000Y-6025000D02*
X64425000Y-6025000D01*
X54850000Y-3600000D02*
X54850000Y-8200000D01*
X64425000Y-1400000D02*
X64450000Y-6000000D01*
X59430000Y-7500000D02*
X59430000Y-8200000D01*
X63239000Y4920000D02*
G75*
G03*
X60975000Y6804000I-2074000J-190000D01*
G01*
X59635000Y920000D02*
G75*
G03*
X57375000Y2800000I-2070000J-190000D01*
G01*
X59720000Y-1400000D02*
G75*
G02*
X57350000Y-3570000I-2270000J100000D01*
G01*
X59430000Y-7450000D02*
G75*
G02*
X60650000Y-6030000I1320000J100000D01*
G01*
X75800000Y-49150000D02*
X76700000Y-48650000D01*
X76700000Y-48650000D02*
X76700000Y-49650000D01*
X76700000Y-49650000D02*
X75800000Y-49150000D01*
X75700000Y-48650000D02*
X75700000Y-49650000D01*
X78900000Y-48400000D02*
X73500000Y-48400000D01*
X73500000Y-48400000D02*
X73500000Y-49900000D01*
X73500000Y-49900000D02*
X78900000Y-49900000D01*
X78900000Y-49900000D02*
X78900000Y-48400000D01*
X-400000Y-49150000D02*
X500000Y-48650000D01*
X500000Y-48650000D02*
X500000Y-49650000D01*
X500000Y-49650000D02*
X-400000Y-49150000D01*
X-500000Y-48650000D02*
X-500000Y-49650000D01*
X2700000Y-48400000D02*
X-2700000Y-48400000D01*
X-2700000Y-48400000D02*
X-2700000Y-49900000D01*
X-2700000Y-49900000D02*
X2700000Y-49900000D01*
X2700000Y-49900000D02*
X2700000Y-48400000D01*
X75800000Y-30100000D02*
X76700000Y-29600000D01*
X76700000Y-29600000D02*
X76700000Y-30600000D01*
X76700000Y-30600000D02*
X75800000Y-30100000D01*
X75700000Y-29600000D02*
X75700000Y-30600000D01*
X78900000Y-29350000D02*
X73500000Y-29350000D01*
X73500000Y-29350000D02*
X73500000Y-30850000D01*
X73500000Y-30850000D02*
X78900000Y-30850000D01*
X78900000Y-30850000D02*
X78900000Y-29350000D01*
X59100000Y29720000D02*
X59100000Y32260000D01*
X69260000Y32260000D02*
X69260000Y29720000D01*
X59100000Y32260000D02*
X69260000Y32260000D01*
X59100000Y29720000D02*
X69260000Y29720000D01*
D12*
X57920000Y20200000D02*
G75*
G03*
X57920000Y20200000I-3000000J0D01*
G01*
X56720000Y26500000D02*
X61620000Y26500000D01*
X61620000Y13900000D02*
X56720000Y13900000D01*
X53120000Y13900000D02*
X48220000Y13900000D01*
X48220000Y13900000D02*
X48220000Y16700000D01*
X53020000Y26500000D02*
X48220000Y26500000D01*
X48220000Y26500000D02*
X48220000Y24000000D01*
X47420000Y24000000D02*
X47120000Y24300000D01*
X47120000Y24300000D02*
X47720000Y24300000D01*
X47720000Y24300000D02*
X47420000Y24000000D01*
X61620000Y26500000D02*
X61620000Y23900000D01*
X61620000Y21500000D02*
X61620000Y18900000D01*
X61620000Y16500000D02*
X61620000Y13900000D01*
X54920000Y20700000D02*
X54920000Y19700000D01*
X54420000Y20200000D02*
X55420000Y20200000D01*
X74025001Y20200000D02*
X75025001Y20200000D01*
X74525001Y20700000D02*
X74525001Y19700000D01*
X81225001Y16500000D02*
X81225001Y13900000D01*
X81225001Y21500000D02*
X81225001Y18900000D01*
X81225001Y26500000D02*
X81225001Y23900000D01*
X67325001Y24300000D02*
X67025001Y24000000D01*
X66725001Y24300000D02*
X67325001Y24300000D01*
X67025001Y24000000D02*
X66725001Y24300000D01*
X67825001Y26500000D02*
X67825001Y24000000D01*
X72625001Y26500000D02*
X67825001Y26500000D01*
X67825001Y13900000D02*
X67825001Y16700000D01*
X72725001Y13900000D02*
X67825001Y13900000D01*
X81225001Y13900000D02*
X76325001Y13900000D01*
X76325001Y26500000D02*
X81225001Y26500000D01*
X77525001Y20200000D02*
G75*
G03*
X77525001Y20200000I-3000000J0D01*
G01*
D11*
X59080000Y11390000D02*
X59080000Y13930000D01*
X69240000Y13930000D02*
X69240000Y11390000D01*
X59080000Y13930000D02*
X69240000Y13930000D01*
X59080000Y11390000D02*
X69240000Y11390000D01*
X35618095Y26167619D02*
X36189523Y26167619D01*
X35903809Y25167619D02*
X35903809Y26167619D01*
X37094285Y25167619D02*
X36760952Y25643809D01*
X36522857Y25167619D02*
X36522857Y26167619D01*
X36903809Y26167619D01*
X36999047Y26120000D01*
X37046666Y26072380D01*
X37094285Y25977142D01*
X37094285Y25834285D01*
X37046666Y25739047D01*
X36999047Y25691428D01*
X36903809Y25643809D01*
X36522857Y25643809D01*
X38094285Y25167619D02*
X37760952Y25643809D01*
X37522857Y25167619D02*
X37522857Y26167619D01*
X37903809Y26167619D01*
X37999047Y26120000D01*
X38046666Y26072380D01*
X38094285Y25977142D01*
X38094285Y25834285D01*
X38046666Y25739047D01*
X37999047Y25691428D01*
X37903809Y25643809D01*
X37522857Y25643809D01*
X38475238Y25215238D02*
X38618095Y25167619D01*
X38856190Y25167619D01*
X38951428Y25215238D01*
X38999047Y25262857D01*
X39046666Y25358095D01*
X39046666Y25453333D01*
X38999047Y25548571D01*
X38951428Y25596190D01*
X38856190Y25643809D01*
X38665714Y25691428D01*
X38570476Y25739047D01*
X38522857Y25786666D01*
X38475238Y25881904D01*
X38475238Y25977142D01*
X38522857Y26072380D01*
X38570476Y26120000D01*
X38665714Y26167619D01*
X38903809Y26167619D01*
X39046666Y26120000D01*
X30202380Y20747619D02*
X29726190Y20414285D01*
X30202380Y20176190D02*
X29202380Y20176190D01*
X29202380Y20557142D01*
X29250000Y20652380D01*
X29297619Y20700000D01*
X29392857Y20747619D01*
X29535714Y20747619D01*
X29630952Y20700000D01*
X29678571Y20652380D01*
X29726190Y20557142D01*
X29726190Y20176190D01*
X29678571Y21176190D02*
X29678571Y21509523D01*
X30202380Y21652380D02*
X30202380Y21176190D01*
X29202380Y21176190D01*
X29202380Y21652380D01*
X30154761Y22033333D02*
X30202380Y22176190D01*
X30202380Y22414285D01*
X30154761Y22509523D01*
X30107142Y22557142D01*
X30011904Y22604761D01*
X29916666Y22604761D01*
X29821428Y22557142D01*
X29773809Y22509523D01*
X29726190Y22414285D01*
X29678571Y22223809D01*
X29630952Y22128571D01*
X29583333Y22080952D01*
X29488095Y22033333D01*
X29392857Y22033333D01*
X29297619Y22080952D01*
X29250000Y22128571D01*
X29202380Y22223809D01*
X29202380Y22461904D01*
X29250000Y22604761D01*
X29678571Y23033333D02*
X29678571Y23366666D01*
X30202380Y23509523D02*
X30202380Y23033333D01*
X29202380Y23033333D01*
X29202380Y23509523D01*
X29202380Y23795238D02*
X29202380Y24366666D01*
X30202380Y24080952D02*
X29202380Y24080952D01*
X46542380Y24347619D02*
X46542380Y24538095D01*
X46590000Y24633333D01*
X46685238Y24728571D01*
X46875714Y24776190D01*
X47209047Y24776190D01*
X47399523Y24728571D01*
X47494761Y24633333D01*
X47542380Y24538095D01*
X47542380Y24347619D01*
X47494761Y24252380D01*
X47399523Y24157142D01*
X47209047Y24109523D01*
X46875714Y24109523D01*
X46685238Y24157142D01*
X46590000Y24252380D01*
X46542380Y24347619D01*
X47542380Y25680952D02*
X47542380Y25204761D01*
X46542380Y25204761D01*
X47018571Y26014285D02*
X47018571Y26347619D01*
X47542380Y26490476D02*
X47542380Y26014285D01*
X46542380Y26014285D01*
X46542380Y26490476D01*
X47542380Y26919047D02*
X46542380Y26919047D01*
X46542380Y27157142D01*
X46590000Y27300000D01*
X46685238Y27395238D01*
X46780476Y27442857D01*
X46970952Y27490476D01*
X47113809Y27490476D01*
X47304285Y27442857D01*
X47399523Y27395238D01*
X47494761Y27300000D01*
X47542380Y27157142D01*
X47542380Y26919047D01*
D13*
X12391285Y26879047D02*
X12034142Y26712380D01*
X12391285Y26593333D02*
X11641285Y26593333D01*
X11641285Y26783809D01*
X11677000Y26831428D01*
X11712714Y26855238D01*
X11784142Y26879047D01*
X11891285Y26879047D01*
X11962714Y26855238D01*
X11998428Y26831428D01*
X12034142Y26783809D01*
X12034142Y26593333D01*
X11641285Y27188571D02*
X11641285Y27283809D01*
X11677000Y27331428D01*
X11748428Y27379047D01*
X11891285Y27402857D01*
X12141285Y27402857D01*
X12284142Y27379047D01*
X12355571Y27331428D01*
X12391285Y27283809D01*
X12391285Y27188571D01*
X12355571Y27140952D01*
X12284142Y27093333D01*
X12141285Y27069523D01*
X11891285Y27069523D01*
X11748428Y27093333D01*
X11677000Y27140952D01*
X11641285Y27188571D01*
X11641285Y27569523D02*
X12391285Y27688571D01*
X11855571Y27783809D01*
X12391285Y27879047D01*
X11641285Y27998095D01*
X12391285Y28450476D02*
X12391285Y28164761D01*
X12391285Y28307619D02*
X11641285Y28307619D01*
X11748428Y28260000D01*
X11819857Y28212380D01*
X11855571Y28164761D01*
X14867857Y11762380D02*
X14903571Y11738571D01*
X14939285Y11667142D01*
X14939285Y11619523D01*
X14903571Y11548095D01*
X14832142Y11500476D01*
X14760714Y11476666D01*
X14617857Y11452857D01*
X14510714Y11452857D01*
X14367857Y11476666D01*
X14296428Y11500476D01*
X14225000Y11548095D01*
X14189285Y11619523D01*
X14189285Y11667142D01*
X14225000Y11738571D01*
X14260714Y11762380D01*
X14189285Y12071904D02*
X14189285Y12167142D01*
X14225000Y12214761D01*
X14296428Y12262380D01*
X14439285Y12286190D01*
X14689285Y12286190D01*
X14832142Y12262380D01*
X14903571Y12214761D01*
X14939285Y12167142D01*
X14939285Y12071904D01*
X14903571Y12024285D01*
X14832142Y11976666D01*
X14689285Y11952857D01*
X14439285Y11952857D01*
X14296428Y11976666D01*
X14225000Y12024285D01*
X14189285Y12071904D01*
X14939285Y12738571D02*
X14939285Y12500476D01*
X14189285Y12500476D01*
X14439285Y13119523D02*
X14939285Y13119523D01*
X14153571Y13000476D02*
X14689285Y12881428D01*
X14689285Y13190952D01*
X14939285Y26829047D02*
X14582142Y26662380D01*
X14939285Y26543333D02*
X14189285Y26543333D01*
X14189285Y26733809D01*
X14225000Y26781428D01*
X14260714Y26805238D01*
X14332142Y26829047D01*
X14439285Y26829047D01*
X14510714Y26805238D01*
X14546428Y26781428D01*
X14582142Y26733809D01*
X14582142Y26543333D01*
X14189285Y27138571D02*
X14189285Y27233809D01*
X14225000Y27281428D01*
X14296428Y27329047D01*
X14439285Y27352857D01*
X14689285Y27352857D01*
X14832142Y27329047D01*
X14903571Y27281428D01*
X14939285Y27233809D01*
X14939285Y27138571D01*
X14903571Y27090952D01*
X14832142Y27043333D01*
X14689285Y27019523D01*
X14439285Y27019523D01*
X14296428Y27043333D01*
X14225000Y27090952D01*
X14189285Y27138571D01*
X14189285Y27519523D02*
X14939285Y27638571D01*
X14403571Y27733809D01*
X14939285Y27829047D01*
X14189285Y27948095D01*
X14260714Y28114761D02*
X14225000Y28138571D01*
X14189285Y28186190D01*
X14189285Y28305238D01*
X14225000Y28352857D01*
X14260714Y28376666D01*
X14332142Y28400476D01*
X14403571Y28400476D01*
X14510714Y28376666D01*
X14939285Y28090952D01*
X14939285Y28400476D01*
X17463357Y11762380D02*
X17499071Y11738571D01*
X17534785Y11667142D01*
X17534785Y11619523D01*
X17499071Y11548095D01*
X17427642Y11500476D01*
X17356214Y11476666D01*
X17213357Y11452857D01*
X17106214Y11452857D01*
X16963357Y11476666D01*
X16891928Y11500476D01*
X16820500Y11548095D01*
X16784785Y11619523D01*
X16784785Y11667142D01*
X16820500Y11738571D01*
X16856214Y11762380D01*
X16784785Y12071904D02*
X16784785Y12167142D01*
X16820500Y12214761D01*
X16891928Y12262380D01*
X17034785Y12286190D01*
X17284785Y12286190D01*
X17427642Y12262380D01*
X17499071Y12214761D01*
X17534785Y12167142D01*
X17534785Y12071904D01*
X17499071Y12024285D01*
X17427642Y11976666D01*
X17284785Y11952857D01*
X17034785Y11952857D01*
X16891928Y11976666D01*
X16820500Y12024285D01*
X16784785Y12071904D01*
X17534785Y12738571D02*
X17534785Y12500476D01*
X16784785Y12500476D01*
X16784785Y13143333D02*
X16784785Y12905238D01*
X17141928Y12881428D01*
X17106214Y12905238D01*
X17070500Y12952857D01*
X17070500Y13071904D01*
X17106214Y13119523D01*
X17141928Y13143333D01*
X17213357Y13167142D01*
X17391928Y13167142D01*
X17463357Y13143333D01*
X17499071Y13119523D01*
X17534785Y13071904D01*
X17534785Y12952857D01*
X17499071Y12905238D01*
X17463357Y12881428D01*
X17534785Y26829047D02*
X17177642Y26662380D01*
X17534785Y26543333D02*
X16784785Y26543333D01*
X16784785Y26733809D01*
X16820500Y26781428D01*
X16856214Y26805238D01*
X16927642Y26829047D01*
X17034785Y26829047D01*
X17106214Y26805238D01*
X17141928Y26781428D01*
X17177642Y26733809D01*
X17177642Y26543333D01*
X16784785Y27138571D02*
X16784785Y27233809D01*
X16820500Y27281428D01*
X16891928Y27329047D01*
X17034785Y27352857D01*
X17284785Y27352857D01*
X17427642Y27329047D01*
X17499071Y27281428D01*
X17534785Y27233809D01*
X17534785Y27138571D01*
X17499071Y27090952D01*
X17427642Y27043333D01*
X17284785Y27019523D01*
X17034785Y27019523D01*
X16891928Y27043333D01*
X16820500Y27090952D01*
X16784785Y27138571D01*
X16784785Y27519523D02*
X17534785Y27638571D01*
X16999071Y27733809D01*
X17534785Y27829047D01*
X16784785Y27948095D01*
X16784785Y28090952D02*
X16784785Y28400476D01*
X17070500Y28233809D01*
X17070500Y28305238D01*
X17106214Y28352857D01*
X17141928Y28376666D01*
X17213357Y28400476D01*
X17391928Y28400476D01*
X17463357Y28376666D01*
X17499071Y28352857D01*
X17534785Y28305238D01*
X17534785Y28162380D01*
X17499071Y28114761D01*
X17463357Y28090952D01*
X19646428Y12107619D02*
X19682142Y12179047D01*
X19717857Y12202857D01*
X19789285Y12226666D01*
X19896428Y12226666D01*
X19967857Y12202857D01*
X20003571Y12179047D01*
X20039285Y12131428D01*
X20039285Y11940952D01*
X19289285Y11940952D01*
X19289285Y12107619D01*
X19325000Y12155238D01*
X19360714Y12179047D01*
X19432142Y12202857D01*
X19503571Y12202857D01*
X19575000Y12179047D01*
X19610714Y12155238D01*
X19646428Y12107619D01*
X19646428Y11940952D01*
X19360714Y12417142D02*
X19325000Y12440952D01*
X19289285Y12488571D01*
X19289285Y12607619D01*
X19325000Y12655238D01*
X19360714Y12679047D01*
X19432142Y12702857D01*
X19503571Y12702857D01*
X19610714Y12679047D01*
X20039285Y12393333D01*
X20039285Y12702857D01*
X19618428Y27257619D02*
X19654142Y27329047D01*
X19689857Y27352857D01*
X19761285Y27376666D01*
X19868428Y27376666D01*
X19939857Y27352857D01*
X19975571Y27329047D01*
X20011285Y27281428D01*
X20011285Y27090952D01*
X19261285Y27090952D01*
X19261285Y27257619D01*
X19297000Y27305238D01*
X19332714Y27329047D01*
X19404142Y27352857D01*
X19475571Y27352857D01*
X19547000Y27329047D01*
X19582714Y27305238D01*
X19618428Y27257619D01*
X19618428Y27090952D01*
X19511285Y27805238D02*
X20011285Y27805238D01*
X19225571Y27686190D02*
X19761285Y27567142D01*
X19761285Y27876666D01*
X22221928Y27257619D02*
X22257642Y27329047D01*
X22293357Y27352857D01*
X22364785Y27376666D01*
X22471928Y27376666D01*
X22543357Y27352857D01*
X22579071Y27329047D01*
X22614785Y27281428D01*
X22614785Y27090952D01*
X21864785Y27090952D01*
X21864785Y27257619D01*
X21900500Y27305238D01*
X21936214Y27329047D01*
X22007642Y27352857D01*
X22079071Y27352857D01*
X22150500Y27329047D01*
X22186214Y27305238D01*
X22221928Y27257619D01*
X22221928Y27090952D01*
X21864785Y27829047D02*
X21864785Y27590952D01*
X22221928Y27567142D01*
X22186214Y27590952D01*
X22150500Y27638571D01*
X22150500Y27757619D01*
X22186214Y27805238D01*
X22221928Y27829047D01*
X22293357Y27852857D01*
X22471928Y27852857D01*
X22543357Y27829047D01*
X22579071Y27805238D01*
X22614785Y27757619D01*
X22614785Y27638571D01*
X22579071Y27590952D01*
X22543357Y27567142D01*
X22196428Y12007619D02*
X22232142Y12079047D01*
X22267857Y12102857D01*
X22339285Y12126666D01*
X22446428Y12126666D01*
X22517857Y12102857D01*
X22553571Y12079047D01*
X22589285Y12031428D01*
X22589285Y11840952D01*
X21839285Y11840952D01*
X21839285Y12007619D01*
X21875000Y12055238D01*
X21910714Y12079047D01*
X21982142Y12102857D01*
X22053571Y12102857D01*
X22125000Y12079047D01*
X22160714Y12055238D01*
X22196428Y12007619D01*
X22196428Y11840952D01*
X21839285Y12555238D02*
X21839285Y12460000D01*
X21875000Y12412380D01*
X21910714Y12388571D01*
X22017857Y12340952D01*
X22160714Y12317142D01*
X22446428Y12317142D01*
X22517857Y12340952D01*
X22553571Y12364761D01*
X22589285Y12412380D01*
X22589285Y12507619D01*
X22553571Y12555238D01*
X22517857Y12579047D01*
X22446428Y12602857D01*
X22267857Y12602857D01*
X22196428Y12579047D01*
X22160714Y12555238D01*
X22125000Y12507619D01*
X22125000Y12412380D01*
X22160714Y12364761D01*
X22196428Y12340952D01*
X22267857Y12317142D01*
X4717857Y11812380D02*
X4753571Y11788571D01*
X4789285Y11717142D01*
X4789285Y11669523D01*
X4753571Y11598095D01*
X4682142Y11550476D01*
X4610714Y11526666D01*
X4467857Y11502857D01*
X4360714Y11502857D01*
X4217857Y11526666D01*
X4146428Y11550476D01*
X4075000Y11598095D01*
X4039285Y11669523D01*
X4039285Y11717142D01*
X4075000Y11788571D01*
X4110714Y11812380D01*
X4039285Y12121904D02*
X4039285Y12217142D01*
X4075000Y12264761D01*
X4146428Y12312380D01*
X4289285Y12336190D01*
X4539285Y12336190D01*
X4682142Y12312380D01*
X4753571Y12264761D01*
X4789285Y12217142D01*
X4789285Y12121904D01*
X4753571Y12074285D01*
X4682142Y12026666D01*
X4539285Y12002857D01*
X4289285Y12002857D01*
X4146428Y12026666D01*
X4075000Y12074285D01*
X4039285Y12121904D01*
X4789285Y12788571D02*
X4789285Y12550476D01*
X4039285Y12550476D01*
X4039285Y13050476D02*
X4039285Y13098095D01*
X4075000Y13145714D01*
X4110714Y13169523D01*
X4182142Y13193333D01*
X4325000Y13217142D01*
X4503571Y13217142D01*
X4646428Y13193333D01*
X4717857Y13169523D01*
X4753571Y13145714D01*
X4789285Y13098095D01*
X4789285Y13050476D01*
X4753571Y13002857D01*
X4717857Y12979047D01*
X4646428Y12955238D01*
X4503571Y12931428D01*
X4325000Y12931428D01*
X4182142Y12955238D01*
X4110714Y12979047D01*
X4075000Y13002857D01*
X4039285Y13050476D01*
X4735571Y27113857D02*
X4771285Y27185285D01*
X4771285Y27304333D01*
X4735571Y27351952D01*
X4699857Y27375761D01*
X4628428Y27399571D01*
X4557000Y27399571D01*
X4485571Y27375761D01*
X4449857Y27351952D01*
X4414142Y27304333D01*
X4378428Y27209095D01*
X4342714Y27161476D01*
X4307000Y27137666D01*
X4235571Y27113857D01*
X4164142Y27113857D01*
X4092714Y27137666D01*
X4057000Y27161476D01*
X4021285Y27209095D01*
X4021285Y27328142D01*
X4057000Y27399571D01*
X4771285Y27613857D02*
X4021285Y27613857D01*
X4021285Y27732904D01*
X4057000Y27804333D01*
X4128428Y27851952D01*
X4199857Y27875761D01*
X4342714Y27899571D01*
X4449857Y27899571D01*
X4592714Y27875761D01*
X4664142Y27851952D01*
X4735571Y27804333D01*
X4771285Y27732904D01*
X4771285Y27613857D01*
X4557000Y28090047D02*
X4557000Y28328142D01*
X4771285Y28042428D02*
X4021285Y28209095D01*
X4771285Y28375761D01*
X7239857Y11862380D02*
X7275571Y11838571D01*
X7311285Y11767142D01*
X7311285Y11719523D01*
X7275571Y11648095D01*
X7204142Y11600476D01*
X7132714Y11576666D01*
X6989857Y11552857D01*
X6882714Y11552857D01*
X6739857Y11576666D01*
X6668428Y11600476D01*
X6597000Y11648095D01*
X6561285Y11719523D01*
X6561285Y11767142D01*
X6597000Y11838571D01*
X6632714Y11862380D01*
X6561285Y12171904D02*
X6561285Y12267142D01*
X6597000Y12314761D01*
X6668428Y12362380D01*
X6811285Y12386190D01*
X7061285Y12386190D01*
X7204142Y12362380D01*
X7275571Y12314761D01*
X7311285Y12267142D01*
X7311285Y12171904D01*
X7275571Y12124285D01*
X7204142Y12076666D01*
X7061285Y12052857D01*
X6811285Y12052857D01*
X6668428Y12076666D01*
X6597000Y12124285D01*
X6561285Y12171904D01*
X7311285Y12838571D02*
X7311285Y12600476D01*
X6561285Y12600476D01*
X7311285Y13267142D02*
X7311285Y12981428D01*
X7311285Y13124285D02*
X6561285Y13124285D01*
X6668428Y13076666D01*
X6739857Y13029047D01*
X6775571Y12981428D01*
X7275571Y27125761D02*
X7311285Y27197190D01*
X7311285Y27316238D01*
X7275571Y27363857D01*
X7239857Y27387666D01*
X7168428Y27411476D01*
X7097000Y27411476D01*
X7025571Y27387666D01*
X6989857Y27363857D01*
X6954142Y27316238D01*
X6918428Y27221000D01*
X6882714Y27173380D01*
X6847000Y27149571D01*
X6775571Y27125761D01*
X6704142Y27125761D01*
X6632714Y27149571D01*
X6597000Y27173380D01*
X6561285Y27221000D01*
X6561285Y27340047D01*
X6597000Y27411476D01*
X7239857Y27911476D02*
X7275571Y27887666D01*
X7311285Y27816238D01*
X7311285Y27768619D01*
X7275571Y27697190D01*
X7204142Y27649571D01*
X7132714Y27625761D01*
X6989857Y27601952D01*
X6882714Y27601952D01*
X6739857Y27625761D01*
X6668428Y27649571D01*
X6597000Y27697190D01*
X6561285Y27768619D01*
X6561285Y27816238D01*
X6597000Y27887666D01*
X6632714Y27911476D01*
X7311285Y28363857D02*
X7311285Y28125761D01*
X6561285Y28125761D01*
X9779857Y11812380D02*
X9815571Y11788571D01*
X9851285Y11717142D01*
X9851285Y11669523D01*
X9815571Y11598095D01*
X9744142Y11550476D01*
X9672714Y11526666D01*
X9529857Y11502857D01*
X9422714Y11502857D01*
X9279857Y11526666D01*
X9208428Y11550476D01*
X9137000Y11598095D01*
X9101285Y11669523D01*
X9101285Y11717142D01*
X9137000Y11788571D01*
X9172714Y11812380D01*
X9101285Y12121904D02*
X9101285Y12217142D01*
X9137000Y12264761D01*
X9208428Y12312380D01*
X9351285Y12336190D01*
X9601285Y12336190D01*
X9744142Y12312380D01*
X9815571Y12264761D01*
X9851285Y12217142D01*
X9851285Y12121904D01*
X9815571Y12074285D01*
X9744142Y12026666D01*
X9601285Y12002857D01*
X9351285Y12002857D01*
X9208428Y12026666D01*
X9137000Y12074285D01*
X9101285Y12121904D01*
X9851285Y12788571D02*
X9851285Y12550476D01*
X9101285Y12550476D01*
X9172714Y12931428D02*
X9137000Y12955238D01*
X9101285Y13002857D01*
X9101285Y13121904D01*
X9137000Y13169523D01*
X9172714Y13193333D01*
X9244142Y13217142D01*
X9315571Y13217142D01*
X9422714Y13193333D01*
X9851285Y12907619D01*
X9851285Y13217142D01*
X9889285Y26829047D02*
X9532142Y26662380D01*
X9889285Y26543333D02*
X9139285Y26543333D01*
X9139285Y26733809D01*
X9175000Y26781428D01*
X9210714Y26805238D01*
X9282142Y26829047D01*
X9389285Y26829047D01*
X9460714Y26805238D01*
X9496428Y26781428D01*
X9532142Y26733809D01*
X9532142Y26543333D01*
X9139285Y27138571D02*
X9139285Y27233809D01*
X9175000Y27281428D01*
X9246428Y27329047D01*
X9389285Y27352857D01*
X9639285Y27352857D01*
X9782142Y27329047D01*
X9853571Y27281428D01*
X9889285Y27233809D01*
X9889285Y27138571D01*
X9853571Y27090952D01*
X9782142Y27043333D01*
X9639285Y27019523D01*
X9389285Y27019523D01*
X9246428Y27043333D01*
X9175000Y27090952D01*
X9139285Y27138571D01*
X9139285Y27519523D02*
X9889285Y27638571D01*
X9353571Y27733809D01*
X9889285Y27829047D01*
X9139285Y27948095D01*
X9139285Y28233809D02*
X9139285Y28281428D01*
X9175000Y28329047D01*
X9210714Y28352857D01*
X9282142Y28376666D01*
X9425000Y28400476D01*
X9603571Y28400476D01*
X9746428Y28376666D01*
X9817857Y28352857D01*
X9853571Y28329047D01*
X9889285Y28281428D01*
X9889285Y28233809D01*
X9853571Y28186190D01*
X9817857Y28162380D01*
X9746428Y28138571D01*
X9603571Y28114761D01*
X9425000Y28114761D01*
X9282142Y28138571D01*
X9210714Y28162380D01*
X9175000Y28186190D01*
X9139285Y28233809D01*
X12367857Y11712380D02*
X12403571Y11688571D01*
X12439285Y11617142D01*
X12439285Y11569523D01*
X12403571Y11498095D01*
X12332142Y11450476D01*
X12260714Y11426666D01*
X12117857Y11402857D01*
X12010714Y11402857D01*
X11867857Y11426666D01*
X11796428Y11450476D01*
X11725000Y11498095D01*
X11689285Y11569523D01*
X11689285Y11617142D01*
X11725000Y11688571D01*
X11760714Y11712380D01*
X11689285Y12021904D02*
X11689285Y12117142D01*
X11725000Y12164761D01*
X11796428Y12212380D01*
X11939285Y12236190D01*
X12189285Y12236190D01*
X12332142Y12212380D01*
X12403571Y12164761D01*
X12439285Y12117142D01*
X12439285Y12021904D01*
X12403571Y11974285D01*
X12332142Y11926666D01*
X12189285Y11902857D01*
X11939285Y11902857D01*
X11796428Y11926666D01*
X11725000Y11974285D01*
X11689285Y12021904D01*
X12439285Y12688571D02*
X12439285Y12450476D01*
X11689285Y12450476D01*
X11689285Y12807619D02*
X11689285Y13117142D01*
X11975000Y12950476D01*
X11975000Y13021904D01*
X12010714Y13069523D01*
X12046428Y13093333D01*
X12117857Y13117142D01*
X12296428Y13117142D01*
X12367857Y13093333D01*
X12403571Y13069523D01*
X12439285Y13021904D01*
X12439285Y12879047D01*
X12403571Y12831428D01*
X12367857Y12807619D01*
X1580500Y27340047D02*
X1544785Y27292428D01*
X1544785Y27221000D01*
X1580500Y27149571D01*
X1651928Y27101952D01*
X1723357Y27078142D01*
X1866214Y27054333D01*
X1973357Y27054333D01*
X2116214Y27078142D01*
X2187642Y27101952D01*
X2259071Y27149571D01*
X2294785Y27221000D01*
X2294785Y27268619D01*
X2259071Y27340047D01*
X2223357Y27363857D01*
X1973357Y27363857D01*
X1973357Y27268619D01*
X2294785Y27578142D02*
X1544785Y27578142D01*
X2294785Y27863857D01*
X1544785Y27863857D01*
X2294785Y28101952D02*
X1544785Y28101952D01*
X1544785Y28221000D01*
X1580500Y28292428D01*
X1651928Y28340047D01*
X1723357Y28363857D01*
X1866214Y28387666D01*
X1973357Y28387666D01*
X2116214Y28363857D01*
X2187642Y28340047D01*
X2259071Y28292428D01*
X2294785Y28221000D01*
X2294785Y28101952D01*
X1481285Y11877833D02*
X2231285Y12044500D01*
X1481285Y12211166D01*
X2159857Y12663547D02*
X2195571Y12639738D01*
X2231285Y12568309D01*
X2231285Y12520690D01*
X2195571Y12449261D01*
X2124142Y12401642D01*
X2052714Y12377833D01*
X1909857Y12354023D01*
X1802714Y12354023D01*
X1659857Y12377833D01*
X1588428Y12401642D01*
X1517000Y12449261D01*
X1481285Y12520690D01*
X1481285Y12568309D01*
X1517000Y12639738D01*
X1552714Y12663547D01*
X2159857Y13163547D02*
X2195571Y13139738D01*
X2231285Y13068309D01*
X2231285Y13020690D01*
X2195571Y12949261D01*
X2124142Y12901642D01*
X2052714Y12877833D01*
X1909857Y12854023D01*
X1802714Y12854023D01*
X1659857Y12877833D01*
X1588428Y12901642D01*
X1517000Y12949261D01*
X1481285Y13020690D01*
X1481285Y13068309D01*
X1517000Y13139738D01*
X1552714Y13163547D01*
X-959500Y27403547D02*
X-995214Y27355928D01*
X-995214Y27284500D01*
X-959500Y27213071D01*
X-888071Y27165452D01*
X-816642Y27141642D01*
X-673785Y27117833D01*
X-566642Y27117833D01*
X-423785Y27141642D01*
X-352357Y27165452D01*
X-280928Y27213071D01*
X-245214Y27284500D01*
X-245214Y27332119D01*
X-280928Y27403547D01*
X-316642Y27427357D01*
X-566642Y27427357D01*
X-566642Y27332119D01*
X-245214Y27641642D02*
X-995214Y27641642D01*
X-245214Y27927357D01*
X-995214Y27927357D01*
X-245214Y28165452D02*
X-995214Y28165452D01*
X-995214Y28284500D01*
X-959500Y28355928D01*
X-888071Y28403547D01*
X-816642Y28427357D01*
X-673785Y28451166D01*
X-566642Y28451166D01*
X-423785Y28427357D01*
X-352357Y28403547D01*
X-280928Y28355928D01*
X-245214Y28284500D01*
X-245214Y28165452D01*
X-245214Y12270690D02*
X-602357Y12104023D01*
X-245214Y11984976D02*
X-995214Y11984976D01*
X-995214Y12175452D01*
X-959500Y12223071D01*
X-923785Y12246880D01*
X-852357Y12270690D01*
X-745214Y12270690D01*
X-673785Y12246880D01*
X-638071Y12223071D01*
X-602357Y12175452D01*
X-602357Y11984976D01*
X-280928Y12461166D02*
X-245214Y12532595D01*
X-245214Y12651642D01*
X-280928Y12699261D01*
X-316642Y12723071D01*
X-388071Y12746880D01*
X-459500Y12746880D01*
X-530928Y12723071D01*
X-566642Y12699261D01*
X-602357Y12651642D01*
X-638071Y12556404D01*
X-673785Y12508785D01*
X-709500Y12484976D01*
X-780928Y12461166D01*
X-852357Y12461166D01*
X-923785Y12484976D01*
X-959500Y12508785D01*
X-995214Y12556404D01*
X-995214Y12675452D01*
X-959500Y12746880D01*
X-995214Y12889738D02*
X-995214Y13175452D01*
X-245214Y13032595D02*
X-995214Y13032595D01*
X-2860714Y26860000D02*
X-3610714Y26860000D01*
X-3610714Y26979047D01*
X-3575000Y27050476D01*
X-3503571Y27098095D01*
X-3432142Y27121904D01*
X-3289285Y27145714D01*
X-3182142Y27145714D01*
X-3039285Y27121904D01*
X-2967857Y27098095D01*
X-2896428Y27050476D01*
X-2860714Y26979047D01*
X-2860714Y26860000D01*
X-3075000Y27336190D02*
X-3075000Y27574285D01*
X-2860714Y27288571D02*
X-3610714Y27455238D01*
X-2860714Y27621904D01*
X-3610714Y27717142D02*
X-3610714Y28002857D01*
X-2860714Y27860000D02*
X-3610714Y27860000D01*
X-3075000Y28145714D02*
X-3075000Y28383809D01*
X-2860714Y28098095D02*
X-3610714Y28264761D01*
X-2860714Y28431428D01*
X-3563000Y12163547D02*
X-3598714Y12115928D01*
X-3598714Y12044500D01*
X-3563000Y11973071D01*
X-3491571Y11925452D01*
X-3420142Y11901642D01*
X-3277285Y11877833D01*
X-3170142Y11877833D01*
X-3027285Y11901642D01*
X-2955857Y11925452D01*
X-2884428Y11973071D01*
X-2848714Y12044500D01*
X-2848714Y12092119D01*
X-2884428Y12163547D01*
X-2920142Y12187357D01*
X-3170142Y12187357D01*
X-3170142Y12092119D01*
X-2848714Y12401642D02*
X-3598714Y12401642D01*
X-2848714Y12687357D01*
X-3598714Y12687357D01*
X-2848714Y12925452D02*
X-3598714Y12925452D01*
X-3598714Y13044500D01*
X-3563000Y13115928D01*
X-3491571Y13163547D01*
X-3420142Y13187357D01*
X-3277285Y13211166D01*
X-3170142Y13211166D01*
X-3027285Y13187357D01*
X-2955857Y13163547D01*
X-2884428Y13115928D01*
X-2848714Y13044500D01*
X-2848714Y12925452D01*
X-5388714Y27438571D02*
X-5388714Y27200476D01*
X-6138714Y27200476D01*
X-5781571Y27605238D02*
X-5781571Y27771904D01*
X-5388714Y27843333D02*
X-5388714Y27605238D01*
X-6138714Y27605238D01*
X-6138714Y27843333D01*
X-5388714Y28057619D02*
X-6138714Y28057619D01*
X-6138714Y28176666D01*
X-6103000Y28248095D01*
X-6031571Y28295714D01*
X-5960142Y28319523D01*
X-5817285Y28343333D01*
X-5710142Y28343333D01*
X-5567285Y28319523D01*
X-5495857Y28295714D01*
X-5424428Y28248095D01*
X-5388714Y28176666D01*
X-5388714Y28057619D01*
X-5388714Y12199261D02*
X-5745857Y12032595D01*
X-5388714Y11913547D02*
X-6138714Y11913547D01*
X-6138714Y12104023D01*
X-6103000Y12151642D01*
X-6067285Y12175452D01*
X-5995857Y12199261D01*
X-5888714Y12199261D01*
X-5817285Y12175452D01*
X-5781571Y12151642D01*
X-5745857Y12104023D01*
X-5745857Y11913547D01*
X-5603000Y12389738D02*
X-5603000Y12627833D01*
X-5388714Y12342119D02*
X-6138714Y12508785D01*
X-5388714Y12675452D01*
X-6138714Y12794500D02*
X-5388714Y12913547D01*
X-5924428Y13008785D01*
X-5388714Y13104023D01*
X-6138714Y13223071D01*
D11*
X-5423333Y19317619D02*
X-5090000Y18317619D01*
X-4756666Y19317619D01*
X-3851904Y18412857D02*
X-3899523Y18365238D01*
X-4042380Y18317619D01*
X-4137619Y18317619D01*
X-4280476Y18365238D01*
X-4375714Y18460476D01*
X-4423333Y18555714D01*
X-4470952Y18746190D01*
X-4470952Y18889047D01*
X-4423333Y19079523D01*
X-4375714Y19174761D01*
X-4280476Y19270000D01*
X-4137619Y19317619D01*
X-4042380Y19317619D01*
X-3899523Y19270000D01*
X-3851904Y19222380D01*
X-2851904Y18412857D02*
X-2899523Y18365238D01*
X-3042380Y18317619D01*
X-3137619Y18317619D01*
X-3280476Y18365238D01*
X-3375714Y18460476D01*
X-3423333Y18555714D01*
X-3470952Y18746190D01*
X-3470952Y18889047D01*
X-3423333Y19079523D01*
X-3375714Y19174761D01*
X-3280476Y19270000D01*
X-3137619Y19317619D01*
X-3042380Y19317619D01*
X-2899523Y19270000D01*
X-2851904Y19222380D01*
X-4562857Y20977619D02*
X-5039047Y20977619D01*
X-5039047Y21977619D01*
X-4229523Y21501428D02*
X-3896190Y21501428D01*
X-3753333Y20977619D02*
X-4229523Y20977619D01*
X-4229523Y21977619D01*
X-3753333Y21977619D01*
X-3324761Y20977619D02*
X-3324761Y21977619D01*
X-3086666Y21977619D01*
X-2943809Y21930000D01*
X-2848571Y21834761D01*
X-2800952Y21739523D01*
X-2753333Y21549047D01*
X-2753333Y21406190D01*
X-2800952Y21215714D01*
X-2848571Y21120476D01*
X-2943809Y21025238D01*
X-3086666Y20977619D01*
X-3324761Y20977619D01*
X-4901904Y24370000D02*
X-4997142Y24417619D01*
X-5140000Y24417619D01*
X-5282857Y24370000D01*
X-5378095Y24274761D01*
X-5425714Y24179523D01*
X-5473333Y23989047D01*
X-5473333Y23846190D01*
X-5425714Y23655714D01*
X-5378095Y23560476D01*
X-5282857Y23465238D01*
X-5140000Y23417619D01*
X-5044761Y23417619D01*
X-4901904Y23465238D01*
X-4854285Y23512857D01*
X-4854285Y23846190D01*
X-5044761Y23846190D01*
X-4425714Y23417619D02*
X-4425714Y24417619D01*
X-3854285Y23417619D01*
X-3854285Y24417619D01*
X-3378095Y23417619D02*
X-3378095Y24417619D01*
X-3140000Y24417619D01*
X-2997142Y24370000D01*
X-2901904Y24274761D01*
X-2854285Y24179523D01*
X-2806666Y23989047D01*
X-2806666Y23846190D01*
X-2854285Y23655714D01*
X-2901904Y23560476D01*
X-2997142Y23465238D01*
X-3140000Y23417619D01*
X-3378095Y23417619D01*
X55652857Y31184285D02*
X55652857Y30517619D01*
X55414761Y31565238D02*
X55176666Y30850952D01*
X55795714Y30850952D01*
X56176666Y31184285D02*
X56176666Y30184285D01*
X56176666Y31136666D02*
X56271904Y31184285D01*
X56462380Y31184285D01*
X56557619Y31136666D01*
X56605238Y31089047D01*
X56652857Y30993809D01*
X56652857Y30708095D01*
X56605238Y30612857D01*
X56557619Y30565238D01*
X56462380Y30517619D01*
X56271904Y30517619D01*
X56176666Y30565238D01*
X57081428Y30517619D02*
X57081428Y31184285D01*
X57081428Y31517619D02*
X57033809Y31470000D01*
X57081428Y31422380D01*
X57129047Y31470000D01*
X57081428Y31517619D01*
X57081428Y31422380D01*
X57557619Y31184285D02*
X57557619Y30517619D01*
X57557619Y31089047D02*
X57605238Y31136666D01*
X57700476Y31184285D01*
X57843333Y31184285D01*
X57938571Y31136666D01*
X57986190Y31041428D01*
X57986190Y30517619D01*
X58414761Y30565238D02*
X58510000Y30517619D01*
X58700476Y30517619D01*
X58795714Y30565238D01*
X58843333Y30660476D01*
X58843333Y30708095D01*
X58795714Y30803333D01*
X58700476Y30850952D01*
X58557619Y30850952D01*
X58462380Y30898571D01*
X58414761Y30993809D01*
X58414761Y31041428D01*
X58462380Y31136666D01*
X58557619Y31184285D01*
X58700476Y31184285D01*
X58795714Y31136666D01*
X62792857Y14974285D02*
X62792857Y14307619D01*
X62554761Y15355238D02*
X62316666Y14640952D01*
X62935714Y14640952D01*
X63316666Y14974285D02*
X63316666Y13974285D01*
X63316666Y14926666D02*
X63411904Y14974285D01*
X63602380Y14974285D01*
X63697619Y14926666D01*
X63745238Y14879047D01*
X63792857Y14783809D01*
X63792857Y14498095D01*
X63745238Y14402857D01*
X63697619Y14355238D01*
X63602380Y14307619D01*
X63411904Y14307619D01*
X63316666Y14355238D01*
X64221428Y14307619D02*
X64221428Y14974285D01*
X64221428Y15307619D02*
X64173809Y15260000D01*
X64221428Y15212380D01*
X64269047Y15260000D01*
X64221428Y15307619D01*
X64221428Y15212380D01*
X64697619Y14974285D02*
X64697619Y14307619D01*
X64697619Y14879047D02*
X64745238Y14926666D01*
X64840476Y14974285D01*
X64983333Y14974285D01*
X65078571Y14926666D01*
X65126190Y14831428D01*
X65126190Y14307619D01*
X65554761Y14355238D02*
X65650000Y14307619D01*
X65840476Y14307619D01*
X65935714Y14355238D01*
X65983333Y14450476D01*
X65983333Y14498095D01*
X65935714Y14593333D01*
X65840476Y14640952D01*
X65697619Y14640952D01*
X65602380Y14688571D01*
X65554761Y14783809D01*
X65554761Y14831428D01*
X65602380Y14926666D01*
X65697619Y14974285D01*
X65840476Y14974285D01*
X65935714Y14926666D01*
M02*
