M48
; DRILL file {KiCad (5.1.6-0-10_14)} date Monday, January 09, 2023 at 04:28:50 PM
; FORMAT={-:-/ absolute / metric / decimal}
; #@! TF.CreationDate,2023-01-09T16:28:50+09:00
; #@! TF.GenerationSoftware,Kicad,Pcbnew,(5.1.6-0-10_14)
; #@! TF.FileFunction,Plated,1,2,PTH
FMAT,2
METRIC
T1C0.400
T2C0.813
T3C1.000
T4C1.300
T5C2.200
%
G90
G05
T1
X-8.29Y14.92
X-6.9Y-1.64
X-6.9Y-20.62
X-6.9Y-39.58
X-6.9Y-58.53
X-6.75Y17.06
X-4.458Y21.418
X-3.19Y20.13
X-0.57Y19.93
X2.759Y-22.289
X2.834Y-60.314
X2.854Y-41.244
X3.02Y24.08
X6.13Y-1.62
X6.74Y26.15
X6.972Y11.308
X9.512Y24.262
X9.71Y22.03
X10.16Y31.76
X10.97Y7.98
X11.524Y-29.076
X12.0Y24.37
X12.15Y-1.57
X12.15Y-58.93
X12.225Y-20.585
X12.225Y-39.695
X12.615Y-49.145
X13.32Y19.906
X14.54Y24.41
X15.862Y19.906
X17.08Y19.94
X17.1Y23.375
X19.26Y22.07
X20.26Y20.8
X21.36Y23.89
X21.775Y-22.335
X21.854Y-60.344
X21.914Y-41.234
X22.46Y11.31
X24.396Y9.916
X24.84Y-1.61
X25.81Y20.8
X26.81Y23.02
X27.62Y-1.55
X28.56Y9.12
X31.2Y-1.58
X31.2Y-39.45
X31.2Y-58.96
X31.275Y-20.615
X32.09Y12.185
X40.9Y-22.32
X40.92Y-41.27
X40.929Y-60.319
X42.41Y31.255
X42.674Y21.914
X43.919Y-1.569
X45.67Y8.87
X47.86Y25.9
X47.89Y28.29
X48.02Y12.68
X50.25Y-20.68
X50.325Y-1.715
X50.325Y-39.595
X50.325Y-58.755
X52.0Y22.7
X52.0Y16.56
X52.93Y20.2
X55.56Y17.255
X57.45Y16.53
X59.885Y-22.385
X59.925Y-60.345
X59.984Y-41.264
X60.36Y25.86
X62.71Y6.96
X63.11Y-1.63
X63.637Y9.175
X64.64Y9.175
X65.18Y6.96
X69.3Y-20.43
X69.3Y-39.48
X69.375Y-1.645
X69.375Y-58.925
X70.25Y17.59
X71.09Y24.27
X78.969Y-22.279
X78.974Y-41.324
X79.064Y-60.284
X82.15Y-1.57
T2
X34.29Y-30.1
X41.91Y-30.1
X34.29Y8.0
X41.91Y8.0
X53.34Y8.0
X60.96Y8.0
X44.98Y28.51
X44.98Y25.97
X44.98Y23.43
X44.98Y20.89
X60.35Y12.66
X62.89Y12.66
X65.43Y12.66
X67.97Y12.66
X53.34Y-30.1
X60.96Y-30.1
X72.39Y-30.1
X80.01Y-30.1
X-5.728Y29.916
X-5.728Y14.696
X-4.458Y28.61
X-4.458Y13.37
X-3.188Y29.916
X-3.188Y14.696
X-1.918Y28.61
X-1.918Y13.37
X-0.648Y29.916
X-0.648Y14.696
X0.622Y28.61
X0.622Y13.37
X1.892Y29.916
X1.892Y14.696
X3.162Y28.61
X3.162Y13.37
X4.432Y29.916
X4.432Y14.696
X5.702Y28.61
X5.702Y13.37
X6.972Y29.916
X6.972Y14.696
X8.242Y28.61
X8.242Y13.37
X9.512Y29.916
X9.512Y14.696
X10.782Y28.61
X10.782Y13.37
X12.052Y29.916
X12.052Y14.696
X13.322Y28.61
X13.322Y13.37
X14.592Y29.916
X14.592Y14.696
X15.862Y28.61
X15.862Y13.37
X17.132Y29.916
X17.132Y14.696
X18.402Y28.61
X18.402Y13.37
X19.672Y29.916
X19.672Y14.696
X20.942Y28.61
X20.942Y13.37
X22.212Y29.916
X22.212Y14.696
X23.482Y28.61
X23.482Y13.37
X-3.81Y8.0
X3.81Y8.0
X34.29Y-11.05
X41.91Y-11.05
X-3.81Y-30.1
X3.81Y-30.1
X53.34Y-49.15
X60.96Y-49.15
X53.39Y10.62
X61.01Y10.62
X15.24Y-49.15
X22.86Y-49.15
X-3.81Y-49.15
X3.81Y-49.15
X72.39Y-11.05
X80.01Y-11.05
X53.34Y-11.05
X60.96Y-11.05
X72.39Y8.0
X80.01Y8.0
X15.24Y8.0
X22.86Y8.0
X72.39Y-49.15
X80.01Y-49.15
X72.37Y10.64
X79.99Y10.64
X37.808Y13.194
X44.92Y13.194
X34.29Y-49.15
X41.91Y-49.15
X15.24Y-30.1
X22.86Y-30.1
X-3.81Y-11.05
X3.81Y-11.05
X37.808Y16.344
X44.92Y16.344
X60.37Y30.99
X62.91Y30.99
X65.45Y30.99
X67.99Y30.99
X15.24Y-11.05
X22.86Y-11.05
X61.314Y27.706
X61.314Y15.26
X63.854Y27.706
X63.854Y15.26
X66.394Y27.706
X66.394Y15.26
X68.934Y27.706
X68.934Y15.26
T3
X47.42Y22.7
X47.42Y20.2
X47.42Y17.7
X61.92Y22.7
X61.92Y17.7
X67.025Y22.7
X67.025Y20.2
X67.025Y17.7
X81.525Y22.7
X81.525Y17.7
T4
X29.75Y25.45
X29.75Y18.95
T5
X54.92Y25.8
X54.92Y14.6
X74.525Y25.8
X74.525Y14.6
T3
G00X34.28Y29.02
M15
G01X34.28Y28.52
M16
G05
G00X34.28Y26.02
M15
G01X34.28Y25.52
M16
G05
G00X34.28Y22.02
M15
G01X34.28Y21.52
M16
G05
G00X36.03Y20.52
M15
G01X36.03Y20.02
M16
G05
G00X38.48Y20.52
M15
G01X38.48Y20.02
M16
G05
G00X40.23Y29.02
M15
G01X40.23Y28.52
M16
G05
G00X40.23Y26.02
M15
G01X40.23Y25.52
M16
G05
G00X40.23Y22.02
M15
G01X40.23Y21.52
M16
G05
T0
M30
