G04 #@! TF.GenerationSoftware,KiCad,Pcbnew,(5.1.6-0-10_14)*
G04 #@! TF.CreationDate,2023-01-09T16:42:19+09:00*
G04 #@! TF.ProjectId,cool644,636f6f6c-3634-4342-9e6b-696361645f70,rev?*
G04 #@! TF.SameCoordinates,Original*
G04 #@! TF.FileFunction,Copper,L2,Bot*
G04 #@! TF.FilePolarity,Positive*
%FSLAX46Y46*%
G04 Gerber Fmt 4.6, Leading zero omitted, Abs format (unit mm)*
G04 Created by KiCad (PCBNEW (5.1.6-0-10_14)) date 2023-01-09 16:42:19*
%MOMM*%
%LPD*%
G01*
G04 APERTURE LIST*
G04 #@! TA.AperFunction,ComponentPad*
%ADD10C,1.600000*%
G04 #@! TD*
G04 #@! TA.AperFunction,ComponentPad*
%ADD11R,2.000000X2.000000*%
G04 #@! TD*
G04 #@! TA.AperFunction,ComponentPad*
%ADD12C,2.000000*%
G04 #@! TD*
G04 #@! TA.AperFunction,ComponentPad*
%ADD13C,1.397000*%
G04 #@! TD*
G04 #@! TA.AperFunction,SMDPad,CuDef*
%ADD14R,1.300000X0.950000*%
G04 #@! TD*
G04 #@! TA.AperFunction,ComponentPad*
%ADD15R,1.397000X1.397000*%
G04 #@! TD*
G04 #@! TA.AperFunction,ViaPad*
%ADD16C,0.800000*%
G04 #@! TD*
G04 #@! TA.AperFunction,Conductor*
%ADD17C,0.250000*%
G04 #@! TD*
G04 APERTURE END LIST*
D10*
X167060000Y50550000D03*
X168910000Y50550000D03*
D11*
X168285000Y47710000D03*
D12*
X168285000Y45170000D03*
X168285000Y42630000D03*
X168285000Y40090000D03*
D13*
X132880000Y52040000D03*
X130340000Y52040000D03*
X127800000Y52040000D03*
X125260000Y52040000D03*
D14*
X153455000Y34560000D03*
D15*
X155490000Y34560000D03*
D13*
X147870000Y34560000D03*
D14*
X149905000Y34560000D03*
D13*
X125280000Y33710000D03*
X127820000Y33710000D03*
X130360000Y33710000D03*
X132900000Y33710000D03*
D14*
X195615000Y34500000D03*
D15*
X197650000Y34500000D03*
D13*
X190030000Y34500000D03*
D14*
X192065000Y34500000D03*
X172345000Y33050000D03*
D13*
X170310000Y33050000D03*
D15*
X177930000Y33050000D03*
D14*
X175895000Y33050000D03*
D12*
X189290000Y46720000D03*
X194290000Y48820000D03*
X199290000Y46720000D03*
X156970000Y46720000D03*
X151970000Y48820000D03*
X146970000Y46720000D03*
D16*
X159740000Y33610000D03*
X168900000Y52920000D03*
D17*
X195615000Y34500000D02*
X197650000Y34500000D01*
X190030000Y34500000D02*
X192065000Y34500000D01*
X149905000Y34560000D02*
X147870000Y34560000D01*
X170310000Y33050000D02*
X172345000Y33050000D01*
X175530000Y49310000D02*
X168300000Y49310000D01*
X177930000Y46910000D02*
X175530000Y49310000D01*
X168300000Y49310000D02*
X167060000Y50550000D01*
X177930000Y33050000D02*
X177930000Y46910000D01*
X175895000Y33050000D02*
X177930000Y33050000D01*
X155490000Y34560000D02*
X153455000Y34560000D01*
X169610001Y41304999D02*
X169610001Y35803591D01*
X168285000Y42630000D02*
X169610001Y41304999D01*
X134153590Y31820000D02*
X134048590Y31925000D01*
X134048590Y31925000D02*
X129605000Y31925000D01*
X169610001Y35803591D02*
X165626410Y31820000D01*
X165626410Y31820000D02*
X134153590Y31820000D01*
X127820000Y33710000D02*
X129605000Y31925000D01*
X129605000Y31925000D02*
X129710000Y31820000D01*
X165490000Y33640000D02*
X166380000Y34530000D01*
X166380000Y34530000D02*
X166380000Y45805000D01*
X166380000Y45805000D02*
X168285000Y47710000D01*
X165490000Y33610000D02*
X165490000Y33640000D01*
X159740000Y33610000D02*
X165490000Y33610000D01*
X166959999Y43844999D02*
X166959999Y33789999D01*
X165119990Y32270010D02*
X134339990Y32270010D01*
X166959999Y33789999D02*
X165440010Y32270010D01*
X168285000Y45170000D02*
X166959999Y43844999D01*
X165440010Y32270010D02*
X165119990Y32270010D01*
X134339990Y32270010D02*
X132900000Y33710000D01*
X199290000Y46720000D02*
X189290000Y46720000D01*
X168910000Y50550000D02*
X168910000Y52910000D01*
X168910000Y52910000D02*
X168900000Y52920000D01*
X140626499Y53063501D02*
X146970000Y46720000D01*
X125260000Y52040000D02*
X126283501Y53063501D01*
X126283501Y53063501D02*
X140626499Y53063501D01*
X156970000Y46720000D02*
X146970000Y46720000D01*
M02*
