G04 #@! TF.GenerationSoftware,KiCad,Pcbnew,(5.1.6-0-10_14)*
G04 #@! TF.CreationDate,2023-01-09T16:42:19+09:00*
G04 #@! TF.ProjectId,cool644,636f6f6c-3634-4342-9e6b-696361645f70,rev?*
G04 #@! TF.SameCoordinates,Original*
G04 #@! TF.FileFunction,Profile,NP*
%FSLAX46Y46*%
G04 Gerber Fmt 4.6, Leading zero omitted, Abs format (unit mm)*
G04 Created by KiCad (PCBNEW (5.1.6-0-10_14)) date 2023-01-09 16:42:19*
%MOMM*%
%LPD*%
G01*
G04 APERTURE LIST*
G04 #@! TA.AperFunction,Profile*
%ADD10C,0.150000*%
G04 #@! TD*
G04 #@! TA.AperFunction,Profile*
%ADD11C,0.050000*%
G04 #@! TD*
G04 APERTURE END LIST*
D10*
X120130000Y50830000D02*
X136080000Y50830000D01*
X164780000Y35950000D02*
G75*
G03*
X164780000Y35950000I-1100000J0D01*
G01*
X109760000Y35950000D02*
G75*
G03*
X109760000Y35950000I-1100000J0D01*
G01*
X164780000Y50110000D02*
G75*
G03*
X164780000Y50110000I-1100000J0D01*
G01*
X106100000Y32100000D02*
X106100000Y53270000D01*
X203220000Y30980000D02*
G75*
G03*
X204340000Y32100000I0J1120000D01*
G01*
X107220000Y54390000D02*
X203220000Y54390000D01*
X203220000Y30980000D02*
X107220000Y30980000D01*
X106100000Y32100000D02*
G75*
G03*
X107220000Y30980000I1120000J0D01*
G01*
X204340000Y32100000D02*
X204340000Y53270000D01*
X204340000Y53270000D02*
G75*
G03*
X203220000Y54390000I-1120000J0D01*
G01*
X107220000Y54390000D02*
G75*
G03*
X106100000Y53270000I0J-1120000D01*
G01*
X136080000Y50830000D02*
X136080000Y34860000D01*
X136080000Y34860000D02*
X120120000Y34860000D01*
X109760000Y50110000D02*
G75*
G03*
X109760000Y50110000I-1100000J0D01*
G01*
X120120000Y34860000D02*
X120130000Y50830000D01*
D11*
X181835000Y36300000D02*
X184185000Y36300000D01*
X184185000Y50500000D02*
X181835000Y50500000D01*
X184710000Y36825000D02*
X184710000Y49975000D01*
X181310000Y49975000D02*
X181310000Y36825000D01*
X184710000Y36825000D02*
G75*
G02*
X184185000Y36300000I-525000J0D01*
G01*
X181835000Y36300000D02*
G75*
G02*
X181310000Y36825000I0J525000D01*
G01*
X184185000Y50500000D02*
G75*
G02*
X184710000Y49975000I0J-525000D01*
G01*
X181310000Y49975000D02*
G75*
G02*
X181835000Y50500000I525000J0D01*
G01*
M02*
