G04 #@! TF.GenerationSoftware,KiCad,Pcbnew,(5.1.6-0-10_14)*
G04 #@! TF.CreationDate,2023-01-09T16:33:12+09:00*
G04 #@! TF.ProjectId,cool644,636f6f6c-3634-4342-9e6b-696361645f70,rev?*
G04 #@! TF.SameCoordinates,Original*
G04 #@! TF.FileFunction,Legend,Bot*
G04 #@! TF.FilePolarity,Positive*
%FSLAX46Y46*%
G04 Gerber Fmt 4.6, Leading zero omitted, Abs format (unit mm)*
G04 Created by KiCad (PCBNEW (5.1.6-0-10_14)) date 2023-01-09 16:33:12*
%MOMM*%
%LPD*%
G01*
G04 APERTURE LIST*
%ADD10C,0.150000*%
G04 APERTURE END LIST*
D10*
X163790000Y133060000D02*
X164690000Y133560000D01*
X164690000Y133560000D02*
X164690000Y132560000D01*
X164690000Y132560000D02*
X163790000Y133060000D01*
X163690000Y133560000D02*
X163690000Y132560000D01*
X166890000Y133810000D02*
X161490000Y133810000D01*
X161490000Y133810000D02*
X161490000Y132310000D01*
X161490000Y132310000D02*
X166890000Y132310000D01*
X166890000Y132310000D02*
X166890000Y133810000D01*
X170270000Y151540000D02*
X180430000Y151540000D01*
X180430000Y151540000D02*
X180430000Y149000000D01*
X180430000Y149000000D02*
X170270000Y149000000D01*
X170270000Y149000000D02*
X170270000Y151540000D01*
X128170000Y132200000D02*
X128170000Y133700000D01*
X122770000Y132200000D02*
X128170000Y132200000D01*
X122770000Y133700000D02*
X122770000Y132200000D01*
X128170000Y133700000D02*
X122770000Y133700000D01*
X124970000Y133450000D02*
X124970000Y132450000D01*
X125970000Y132450000D02*
X125070000Y132950000D01*
X125970000Y133450000D02*
X125970000Y132450000D01*
X125070000Y132950000D02*
X125970000Y133450000D01*
X191510000Y132320000D02*
X191510000Y133820000D01*
X186110000Y132320000D02*
X191510000Y132320000D01*
X186110000Y133820000D02*
X186110000Y132320000D01*
X191510000Y133820000D02*
X186110000Y133820000D01*
X188310000Y133570000D02*
X188310000Y132570000D01*
X189310000Y132570000D02*
X188410000Y133070000D01*
X189310000Y133570000D02*
X189310000Y132570000D01*
X188410000Y133070000D02*
X189310000Y133570000D01*
X169537142Y150344285D02*
X169537142Y149677619D01*
X169775238Y150725238D02*
X170013333Y150010952D01*
X169394285Y150010952D01*
X169013333Y150344285D02*
X169013333Y149344285D01*
X169013333Y150296666D02*
X168918095Y150344285D01*
X168727619Y150344285D01*
X168632380Y150296666D01*
X168584761Y150249047D01*
X168537142Y150153809D01*
X168537142Y149868095D01*
X168584761Y149772857D01*
X168632380Y149725238D01*
X168727619Y149677619D01*
X168918095Y149677619D01*
X169013333Y149725238D01*
X168108571Y149677619D02*
X168108571Y150344285D01*
X168108571Y150677619D02*
X168156190Y150630000D01*
X168108571Y150582380D01*
X168060952Y150630000D01*
X168108571Y150677619D01*
X168108571Y150582380D01*
X167632380Y150344285D02*
X167632380Y149677619D01*
X167632380Y150249047D02*
X167584761Y150296666D01*
X167489523Y150344285D01*
X167346666Y150344285D01*
X167251428Y150296666D01*
X167203809Y150201428D01*
X167203809Y149677619D01*
X166775238Y149725238D02*
X166680000Y149677619D01*
X166489523Y149677619D01*
X166394285Y149725238D01*
X166346666Y149820476D01*
X166346666Y149868095D01*
X166394285Y149963333D01*
X166489523Y150010952D01*
X166632380Y150010952D01*
X166727619Y150058571D01*
X166775238Y150153809D01*
X166775238Y150201428D01*
X166727619Y150296666D01*
X166632380Y150344285D01*
X166489523Y150344285D01*
X166394285Y150296666D01*
M02*
