G04 #@! TF.GenerationSoftware,KiCad,Pcbnew,(5.1.6-0-10_14)*
G04 #@! TF.CreationDate,2023-01-09T16:28:48+09:00*
G04 #@! TF.ProjectId,cool644,636f6f6c-3634-4342-9e6b-696361645f70,rev?*
G04 #@! TF.SameCoordinates,Original*
G04 #@! TF.FileFunction,Copper,L1,Top*
G04 #@! TF.FilePolarity,Positive*
%FSLAX46Y46*%
G04 Gerber Fmt 4.6, Leading zero omitted, Abs format (unit mm)*
G04 Created by KiCad (PCBNEW (5.1.6-0-10_14)) date 2023-01-09 16:28:48*
%MOMM*%
%LPD*%
G01*
G04 APERTURE LIST*
G04 #@! TA.AperFunction,SMDPad,CuDef*
%ADD10R,2.000000X2.000000*%
G04 #@! TD*
G04 #@! TA.AperFunction,SMDPad,CuDef*
%ADD11R,1.800000X2.000000*%
G04 #@! TD*
G04 #@! TA.AperFunction,SMDPad,CuDef*
%ADD12R,1.300000X0.950000*%
G04 #@! TD*
G04 #@! TA.AperFunction,ComponentPad*
%ADD13C,1.397000*%
G04 #@! TD*
G04 #@! TA.AperFunction,ComponentPad*
%ADD14R,1.397000X1.397000*%
G04 #@! TD*
G04 #@! TA.AperFunction,ComponentPad*
%ADD15O,1.700000X2.500000*%
G04 #@! TD*
G04 #@! TA.AperFunction,ComponentPad*
%ADD16C,2.000000*%
G04 #@! TD*
G04 #@! TA.AperFunction,ComponentPad*
%ADD17O,1.778000X1.397000*%
G04 #@! TD*
G04 #@! TA.AperFunction,ComponentPad*
%ADD18C,1.524000*%
G04 #@! TD*
G04 #@! TA.AperFunction,SMDPad,CuDef*
%ADD19R,1.524000X1.524000*%
G04 #@! TD*
G04 #@! TA.AperFunction,ComponentPad*
%ADD20R,1.500000X1.500000*%
G04 #@! TD*
G04 #@! TA.AperFunction,ComponentPad*
%ADD21C,2.800000*%
G04 #@! TD*
G04 #@! TA.AperFunction,ComponentPad*
%ADD22O,1.397000X1.778000*%
G04 #@! TD*
G04 #@! TA.AperFunction,ViaPad*
%ADD23C,0.800000*%
G04 #@! TD*
G04 #@! TA.AperFunction,Conductor*
%ADD24C,0.250000*%
G04 #@! TD*
G04 APERTURE END LIST*
D10*
X-5600000Y5080000D03*
X6900000Y2540000D03*
D11*
X-2800000Y-5900000D03*
D10*
X8100000Y-3700000D03*
X32500000Y5080000D03*
X45000000Y2540000D03*
D11*
X35300000Y-5900000D03*
D10*
X46200000Y-3700000D03*
D12*
X39875000Y8000000D03*
D13*
X41910000Y8000000D03*
D14*
X34290000Y8000000D03*
D12*
X36325000Y8000000D03*
X58925000Y8000000D03*
D13*
X60960000Y8000000D03*
D14*
X53340000Y8000000D03*
D12*
X55375000Y8000000D03*
X77975000Y8000000D03*
D13*
X80010000Y8000000D03*
D14*
X72390000Y8000000D03*
D12*
X74425000Y8000000D03*
X20825000Y8000000D03*
D13*
X22860000Y8000000D03*
D14*
X15240000Y8000000D03*
D12*
X17275000Y8000000D03*
D10*
X84300000Y-3700000D03*
D11*
X73400000Y-5900000D03*
D10*
X83100000Y2540000D03*
X70600000Y5080000D03*
D15*
X34280000Y21770000D03*
X38480000Y20270000D03*
X34280000Y28770000D03*
X34280000Y25770000D03*
X40230000Y28770000D03*
X40230000Y25770000D03*
X40230000Y21770000D03*
X36030000Y20270000D03*
D16*
X29750000Y25450000D03*
X29750000Y18950000D03*
D17*
X44980000Y28510000D03*
X44980000Y25970000D03*
X44980000Y23430000D03*
X44980000Y20890000D03*
D10*
X13450000Y5080000D03*
X25950000Y2540000D03*
D11*
X16250000Y-5900000D03*
D10*
X27150000Y-3700000D03*
D12*
X1775000Y-11050000D03*
D13*
X3810000Y-11050000D03*
D14*
X-3810000Y-11050000D03*
D12*
X-1775000Y-11050000D03*
X58925000Y-11050000D03*
D13*
X60960000Y-11050000D03*
D14*
X53340000Y-11050000D03*
D12*
X55375000Y-11050000D03*
X20825000Y-49150000D03*
D13*
X22860000Y-49150000D03*
D14*
X15240000Y-49150000D03*
D12*
X17275000Y-49150000D03*
X39875000Y-11050000D03*
D13*
X41910000Y-11050000D03*
D14*
X34290000Y-11050000D03*
D12*
X36325000Y-11050000D03*
X20825000Y-11050000D03*
D13*
X22860000Y-11050000D03*
D14*
X15240000Y-11050000D03*
D12*
X17275000Y-11050000D03*
X39875000Y-49150000D03*
D13*
X41910000Y-49150000D03*
D14*
X34290000Y-49150000D03*
D12*
X36325000Y-49150000D03*
X58925000Y-49150000D03*
D13*
X60960000Y-49150000D03*
D14*
X53340000Y-49150000D03*
D12*
X55375000Y-49150000D03*
D18*
X-5728000Y14696400D03*
X-3188000Y14696400D03*
X-648000Y14696400D03*
X1892000Y14696400D03*
X4432000Y14696400D03*
X6972000Y14696400D03*
X9512000Y14696400D03*
X12052000Y14696400D03*
X14592000Y14696400D03*
X17132000Y14696400D03*
X19672000Y14696400D03*
X22212000Y14696400D03*
X22212000Y29916400D03*
X19672000Y29916400D03*
X17132000Y29916400D03*
X14592000Y29916400D03*
X12052000Y29916400D03*
X9512000Y29916400D03*
X6972000Y29916400D03*
X4432000Y29916400D03*
X1892000Y29916400D03*
X-648000Y29916400D03*
X-3188000Y29916400D03*
X-5728000Y29916400D03*
X-4458000Y13370000D03*
X-1918000Y13370000D03*
X622000Y13370000D03*
X3162000Y13370000D03*
X5702000Y13370000D03*
X8242000Y13370000D03*
X10782000Y13370000D03*
X13322000Y13370000D03*
X15862000Y13370000D03*
X18402000Y13370000D03*
X20942000Y13370000D03*
X23482000Y13370000D03*
X23482000Y28610000D03*
X20942000Y28610000D03*
X18402000Y28610000D03*
X15862000Y28610000D03*
X13322000Y28610000D03*
X10782000Y28610000D03*
X8242000Y28610000D03*
X5702000Y28610000D03*
X3162000Y28610000D03*
X622000Y28610000D03*
X-1918000Y28610000D03*
X-4458000Y28610000D03*
D12*
X77955000Y10640000D03*
D13*
X79990000Y10640000D03*
D14*
X72370000Y10640000D03*
D12*
X74405000Y10640000D03*
D10*
X70600000Y-33020000D03*
X83100000Y-35560000D03*
D11*
X73400000Y-44000000D03*
D10*
X84300000Y-41800000D03*
D12*
X58925000Y-30100000D03*
D13*
X60960000Y-30100000D03*
D14*
X53340000Y-30100000D03*
D12*
X55375000Y-30100000D03*
D10*
X-5600000Y-13970000D03*
X6900000Y-16510000D03*
D11*
X-2800000Y-24950000D03*
D10*
X8100000Y-22750000D03*
X27150000Y-60850000D03*
D11*
X16250000Y-63050000D03*
D10*
X25950000Y-54610000D03*
X13450000Y-52070000D03*
X32500000Y-52070000D03*
X45000000Y-54610000D03*
D11*
X35300000Y-63050000D03*
D10*
X46200000Y-60850000D03*
X65250000Y-60850000D03*
D11*
X54350000Y-63050000D03*
D10*
X64050000Y-54610000D03*
X51550000Y-52070000D03*
X70600000Y-52070000D03*
X83100000Y-54610000D03*
D11*
X73400000Y-63050000D03*
D10*
X84300000Y-60850000D03*
X8100000Y-60850000D03*
D11*
X-2800000Y-63050000D03*
D10*
X6900000Y-54610000D03*
X-5600000Y-52070000D03*
X13450000Y-13970000D03*
X25950000Y-16510000D03*
D11*
X16250000Y-24950000D03*
D10*
X27150000Y-22750000D03*
X46200000Y-22750000D03*
D11*
X35300000Y-24950000D03*
D10*
X45000000Y-16510000D03*
X32500000Y-13970000D03*
X65250000Y-22750000D03*
D11*
X54350000Y-24950000D03*
D10*
X64050000Y-16510000D03*
X51550000Y-13970000D03*
X84300000Y-22750000D03*
D11*
X73400000Y-24950000D03*
D10*
X83100000Y-16510000D03*
X70600000Y-13970000D03*
X-5600000Y-33020000D03*
X6900000Y-35560000D03*
D11*
X-2800000Y-44000000D03*
D10*
X8100000Y-41800000D03*
X27150000Y-41800000D03*
D11*
X16250000Y-44000000D03*
D10*
X25950000Y-35560000D03*
X13450000Y-33020000D03*
X32500000Y-33020000D03*
X45000000Y-35560000D03*
D11*
X35300000Y-44000000D03*
D10*
X46200000Y-41800000D03*
X65250000Y-41800000D03*
D11*
X54350000Y-44000000D03*
D10*
X64050000Y-35560000D03*
X51550000Y-33020000D03*
D12*
X1775000Y-30100000D03*
D13*
X3810000Y-30100000D03*
D14*
X-3810000Y-30100000D03*
D12*
X-1775000Y-30100000D03*
D19*
X-6720000Y18880000D03*
X-6720000Y21420000D03*
X-6720000Y23960000D03*
D12*
X55425000Y10620000D03*
D14*
X53390000Y10620000D03*
D13*
X61010000Y10620000D03*
D12*
X58975000Y10620000D03*
X39875000Y-30100000D03*
D13*
X41910000Y-30100000D03*
D14*
X34290000Y-30100000D03*
D12*
X36325000Y-30100000D03*
X20825000Y-30100000D03*
D13*
X22860000Y-30100000D03*
D14*
X15240000Y-30100000D03*
D12*
X17275000Y-30100000D03*
X77975000Y-11050000D03*
D13*
X80010000Y-11050000D03*
D14*
X72390000Y-11050000D03*
D12*
X74425000Y-11050000D03*
X1775000Y8000000D03*
D13*
X3810000Y8000000D03*
D14*
X-3810000Y8000000D03*
D12*
X-1775000Y8000000D03*
D10*
X51550000Y5080000D03*
X64050000Y2540000D03*
D11*
X54350000Y-5900000D03*
D10*
X65250000Y-3700000D03*
D12*
X77975000Y-49150000D03*
D13*
X80010000Y-49150000D03*
D14*
X72390000Y-49150000D03*
D12*
X74425000Y-49150000D03*
X1775000Y-49150000D03*
D13*
X3810000Y-49150000D03*
D14*
X-3810000Y-49150000D03*
D12*
X-1775000Y-49150000D03*
X77975000Y-30100000D03*
D13*
X80010000Y-30100000D03*
D14*
X72390000Y-30100000D03*
D12*
X74425000Y-30100000D03*
D20*
X47420000Y22700000D03*
D16*
X47420000Y20200000D03*
X47420000Y17700000D03*
D21*
X54920000Y25800000D03*
X54920000Y14600000D03*
D16*
X61920000Y22700000D03*
X61920000Y17700000D03*
X81525001Y17700000D03*
X81525001Y22700000D03*
D21*
X74525001Y14600000D03*
X74525001Y25800000D03*
D16*
X67025001Y17700000D03*
X67025001Y20200000D03*
D20*
X67025001Y22700000D03*
D13*
X67970000Y12660000D03*
X65430000Y12660000D03*
X62890000Y12660000D03*
X60350000Y12660000D03*
D22*
X61314000Y15260000D03*
X63854000Y15260000D03*
X66394000Y15260000D03*
X68934000Y15260000D03*
X63854000Y27706000D03*
X66394000Y27706000D03*
X68934000Y27706000D03*
X61314000Y27706000D03*
D13*
X44920500Y16344239D03*
X37808500Y16344239D03*
X37808500Y13194239D03*
X44920500Y13194239D03*
X60370000Y30990000D03*
X62910000Y30990000D03*
X65450000Y30990000D03*
X67990000Y30990000D03*
D23*
X6130500Y-1620500D03*
X24840000Y-1610000D03*
X43918501Y-1568501D03*
X63110000Y-1630000D03*
X82150000Y-1570000D03*
X2759499Y-22289499D03*
X21775000Y-22335000D03*
X40900000Y-22320000D03*
X59885000Y-22385000D03*
X78969499Y-22279499D03*
X2854499Y-41244499D03*
X21914499Y-41234499D03*
X40920000Y-41270000D03*
X59984499Y-41264499D03*
X78974499Y-41324499D03*
X2834499Y-60314499D03*
X21854499Y-60344499D03*
X40929499Y-60319499D03*
X59925000Y-60345000D03*
X79064499Y-60284499D03*
X24396000Y9916000D03*
X11523501Y-29076499D03*
X12615000Y-49145000D03*
X-6900000Y-1640000D03*
X-6900000Y-20620000D03*
X-6900000Y-39580000D03*
X-6900000Y-58530000D03*
X32090000Y12185020D03*
X28560000Y9120000D03*
X22460000Y11310000D03*
X6972000Y11308000D03*
X12150000Y-1570000D03*
X12224999Y-20585001D03*
X12224999Y-39695001D03*
X12150000Y-58930000D03*
X10970000Y7980000D03*
X26810000Y23020000D03*
X21360000Y23890000D03*
X71090000Y24270000D03*
X31200000Y-1580000D03*
X31274999Y-20615001D03*
X31200000Y-39450000D03*
X31200000Y-58960000D03*
X27620000Y-1550000D03*
X45670000Y8870000D03*
X48020000Y12680000D03*
X50324999Y-1715001D03*
X50250000Y-20680000D03*
X50324999Y-39595001D03*
X50324999Y-58755001D03*
X63637347Y9175010D03*
X-8290000Y14920000D03*
X-6750000Y17060000D03*
X10160000Y31760000D03*
X52930000Y20200000D03*
X-3190000Y20130000D03*
X42410000Y31255000D03*
X3020000Y24080000D03*
X19260000Y22070000D03*
X60360000Y25860000D03*
X-4458000Y21418000D03*
X69374999Y-1645001D03*
X69300000Y-20430000D03*
X69300000Y-39480000D03*
X69374999Y-58925001D03*
X62710000Y6960000D03*
X65180000Y6960000D03*
X64640000Y9175010D03*
X25810000Y20800000D03*
X20260000Y20800000D03*
X47860000Y25900000D03*
X47890000Y28290000D03*
X12000000Y24370000D03*
X13320000Y19905567D03*
X52000000Y16560000D03*
X57450000Y16530000D03*
X9710000Y22030000D03*
X9512000Y24262000D03*
X42673510Y21913510D03*
X55560000Y17255000D03*
X52000000Y22700000D03*
X14540000Y24410000D03*
X15862000Y19905567D03*
X17100000Y23375000D03*
X17080000Y19940000D03*
X70250000Y17590000D03*
X-570000Y19930000D03*
X6740000Y26150000D03*
D24*
X6900000Y2540000D02*
X6900000Y-850000D01*
X5875001Y-1874999D02*
X4125001Y-1874999D01*
X6900000Y-850000D02*
X5875001Y-1874999D01*
X1925001Y-4074999D02*
X-974999Y-4074999D01*
X-974999Y-4074999D02*
X-2800000Y-5900000D01*
X4125001Y-1874999D02*
X1925001Y-4074999D01*
X-3810000Y8000000D02*
X-1775000Y8000000D01*
X25950000Y-487002D02*
X24910000Y-1527002D01*
X25950000Y2540000D02*
X25950000Y-487002D01*
X24910000Y-1527002D02*
X24910000Y-1540000D01*
X24575001Y-1874999D02*
X23173999Y-1874999D01*
X24910000Y-1540000D02*
X24840000Y-1610000D01*
X18075001Y-4074999D02*
X16250000Y-5900000D01*
X20973999Y-4074999D02*
X18075001Y-4074999D01*
X23173999Y-1874999D02*
X20973999Y-4074999D01*
X24840000Y-1610000D02*
X24575001Y-1874999D01*
X15240000Y8000000D02*
X17275000Y8000000D01*
X45000000Y2540000D02*
X45000000Y-470000D01*
X43595001Y-1874999D02*
X42205001Y-1874999D01*
X45000000Y-470000D02*
X43595001Y-1874999D01*
X37125001Y-4074999D02*
X35300000Y-5900000D01*
X40005001Y-4074999D02*
X37125001Y-4074999D01*
X42205001Y-1874999D02*
X40005001Y-4074999D01*
X34290000Y8000000D02*
X36325000Y8000000D01*
X64050000Y2540000D02*
X64050000Y-690000D01*
X62865001Y-1874999D02*
X61273999Y-1874999D01*
X64050000Y-690000D02*
X63110000Y-1630000D01*
X56175001Y-4074999D02*
X54350000Y-5900000D01*
X59073999Y-4074999D02*
X56175001Y-4074999D01*
X61273999Y-1874999D02*
X59073999Y-4074999D01*
X63110000Y-1630000D02*
X62865001Y-1874999D01*
X53340000Y8000000D02*
X55375000Y8000000D01*
X83100000Y2540000D02*
X83100000Y-600000D01*
X81825001Y-1874999D02*
X80335001Y-1874999D01*
X83100000Y-600000D02*
X81825001Y-1874999D01*
X75225001Y-4074999D02*
X73400000Y-5900000D01*
X78135001Y-4074999D02*
X75225001Y-4074999D01*
X80335001Y-1874999D02*
X78135001Y-4074999D01*
X72390000Y8000000D02*
X74425000Y8000000D01*
X6775001Y-16634999D02*
X6900000Y-16510000D01*
X5512003Y-20924999D02*
X6775001Y-19662001D01*
X6775001Y-19662001D02*
X6775001Y-16634999D01*
X4123999Y-20924999D02*
X5512003Y-20924999D01*
X1923999Y-23124999D02*
X2759499Y-22289499D01*
X-974999Y-23124999D02*
X1923999Y-23124999D01*
X-2800000Y-24950000D02*
X-974999Y-23124999D01*
X2759499Y-22289499D02*
X4123999Y-20924999D01*
X-3810000Y-11050000D02*
X-1775000Y-11050000D01*
X25950000Y-16510000D02*
X25950000Y-19530000D01*
X24555001Y-20924999D02*
X23185001Y-20924999D01*
X25950000Y-19530000D02*
X24555001Y-20924999D01*
X18075001Y-23124999D02*
X16250000Y-24950000D01*
X20985001Y-23124999D02*
X18075001Y-23124999D01*
X23185001Y-20924999D02*
X21775000Y-22335000D01*
X21775000Y-22335000D02*
X20985001Y-23124999D01*
X15240000Y-11050000D02*
X17275000Y-11050000D01*
X45000000Y-16510000D02*
X45000000Y-19790000D01*
X43865001Y-20924999D02*
X42185001Y-20924999D01*
X45000000Y-19790000D02*
X43865001Y-20924999D01*
X37125001Y-23124999D02*
X35300000Y-24950000D01*
X39985001Y-23124999D02*
X37125001Y-23124999D01*
X42185001Y-20924999D02*
X39985001Y-23124999D01*
X34290000Y-11050000D02*
X36325000Y-11050000D01*
X64050000Y-19460000D02*
X62585001Y-20924999D01*
X64050000Y-16510000D02*
X64050000Y-19460000D01*
X62585001Y-20924999D02*
X61345001Y-20924999D01*
X56175001Y-23124999D02*
X54350000Y-24950000D01*
X59145001Y-23124999D02*
X56175001Y-23124999D01*
X61345001Y-20924999D02*
X59885000Y-22385000D01*
X59885000Y-22385000D02*
X59145001Y-23124999D01*
X53340000Y-11050000D02*
X55375000Y-11050000D01*
X75225001Y-23124999D02*
X73400000Y-24950000D01*
X78123999Y-23124999D02*
X75225001Y-23124999D01*
X80323999Y-20924999D02*
X78969499Y-22279499D01*
X81712003Y-20924999D02*
X80323999Y-20924999D01*
X83100000Y-19537002D02*
X81712003Y-20924999D01*
X83100000Y-16510000D02*
X83100000Y-19537002D01*
X78969499Y-22279499D02*
X78123999Y-23124999D01*
X72390000Y-11050000D02*
X74425000Y-11050000D01*
X6900000Y-35560000D02*
X6900000Y-38600000D01*
X5525001Y-39974999D02*
X4165001Y-39974999D01*
X6900000Y-38600000D02*
X5525001Y-39974999D01*
X-974999Y-42174999D02*
X-2800000Y-44000000D01*
X1965001Y-42174999D02*
X-974999Y-42174999D01*
X4165001Y-39974999D02*
X1965001Y-42174999D01*
X-3810000Y-30100000D02*
X-1775000Y-30100000D01*
X25950000Y-35560000D02*
X25950000Y-38600000D01*
X25950000Y-38600000D02*
X24575001Y-39974999D01*
X24575001Y-39974999D02*
X23195001Y-39974999D01*
X18075001Y-42174999D02*
X16250000Y-44000000D01*
X20995001Y-42174999D02*
X18075001Y-42174999D01*
X23195001Y-39974999D02*
X20995001Y-42174999D01*
X17275000Y-30100000D02*
X15240000Y-30100000D01*
X45000000Y-35560000D02*
X45000000Y-38830000D01*
X45000000Y-38830000D02*
X43855001Y-39974999D01*
X43855001Y-39974999D02*
X42215001Y-39974999D01*
X37125001Y-42174999D02*
X35300000Y-44000000D01*
X40015001Y-42174999D02*
X37125001Y-42174999D01*
X42215001Y-39974999D02*
X40920000Y-41270000D01*
X40920000Y-41270000D02*
X40015001Y-42174999D01*
X34290000Y-30100000D02*
X36325000Y-30100000D01*
X64050000Y-35560000D02*
X64050000Y-38830000D01*
X62905001Y-39974999D02*
X61273999Y-39974999D01*
X64050000Y-38830000D02*
X62905001Y-39974999D01*
X56175001Y-42174999D02*
X54350000Y-44000000D01*
X59073999Y-42174999D02*
X56175001Y-42174999D01*
X61273999Y-39974999D02*
X59984499Y-41264499D01*
X59984499Y-41264499D02*
X59073999Y-42174999D01*
X55375000Y-30100000D02*
X53340000Y-30100000D01*
X81712003Y-39974999D02*
X83100000Y-38587002D01*
X83100000Y-38587002D02*
X83100000Y-35560000D01*
X80323999Y-39974999D02*
X81712003Y-39974999D01*
X78358998Y-41940000D02*
X78974499Y-41324499D01*
X75460000Y-41940000D02*
X78358998Y-41940000D01*
X73400000Y-44000000D02*
X75460000Y-41940000D01*
X78974499Y-41324499D02*
X80323999Y-39974999D01*
X72390000Y-30100000D02*
X74425000Y-30100000D01*
X-974999Y-61224999D02*
X1923999Y-61224999D01*
X-2800000Y-63050000D02*
X-974999Y-61224999D01*
X6900000Y-57637002D02*
X6900000Y-54610000D01*
X6358501Y-58178501D02*
X6351499Y-58178501D01*
X6358501Y-58178501D02*
X6900000Y-57637002D01*
X5535501Y-58994499D02*
X4154499Y-58994499D01*
X6351499Y-58178501D02*
X5535501Y-58994499D01*
X1923999Y-61224999D02*
X2834499Y-60314499D01*
X2834499Y-60314499D02*
X4154499Y-58994499D01*
X-3810000Y-49150000D02*
X-1775000Y-49150000D01*
X25950000Y-54610000D02*
X25950000Y-58010000D01*
X25950000Y-58010000D02*
X24940000Y-59020000D01*
X24940000Y-59020000D02*
X23160000Y-59020000D01*
X17080000Y-62220000D02*
X16250000Y-63050000D01*
X17190000Y-62220000D02*
X17080000Y-62220000D01*
X18185001Y-61224999D02*
X17190000Y-62220000D01*
X20955001Y-61224999D02*
X18185001Y-61224999D01*
X23160000Y-59020000D02*
X20955001Y-61224999D01*
X15240000Y-49150000D02*
X17275000Y-49150000D01*
X45000000Y-58010000D02*
X45000000Y-54610000D01*
X43990000Y-59020000D02*
X45000000Y-58010000D01*
X42228998Y-59020000D02*
X43990000Y-59020000D01*
X35300000Y-63050000D02*
X37250000Y-61100000D01*
X40148998Y-61100000D02*
X40929499Y-60319499D01*
X37250000Y-61100000D02*
X40148998Y-61100000D01*
X40929499Y-60319499D02*
X42228998Y-59020000D01*
X34290000Y-49150000D02*
X36325000Y-49150000D01*
X59045001Y-61224999D02*
X56175001Y-61224999D01*
X60296001Y-59973999D02*
X59925000Y-60345000D01*
X60324999Y-59973999D02*
X60296001Y-59973999D01*
X64050000Y-57829998D02*
X62854999Y-59024999D01*
X61273999Y-59024999D02*
X60324999Y-59973999D01*
X62854999Y-59024999D02*
X61273999Y-59024999D01*
X56175001Y-61224999D02*
X54350000Y-63050000D01*
X64050000Y-54610000D02*
X64050000Y-57829998D01*
X59925000Y-60345000D02*
X59045001Y-61224999D01*
X53340000Y-49150000D02*
X55375000Y-49150000D01*
X73400000Y-63050000D02*
X75450000Y-61000000D01*
X75450000Y-61000000D02*
X78370000Y-61000000D01*
X78370000Y-60978998D02*
X79064499Y-60284499D01*
X78370000Y-61000000D02*
X78370000Y-60978998D01*
X81712003Y-59024999D02*
X83100000Y-57637002D01*
X83100000Y-57637002D02*
X83100000Y-54610000D01*
X80323999Y-59024999D02*
X81712003Y-59024999D01*
X79064499Y-60284499D02*
X80323999Y-59024999D01*
X72390000Y-49150000D02*
X74425000Y-49150000D01*
X58925000Y8000000D02*
X60960000Y8000000D01*
X39875000Y8000000D02*
X41910000Y8000000D01*
X20825000Y8000000D02*
X22860000Y8000000D01*
X1775000Y8000000D02*
X3810000Y8000000D01*
X80010000Y8000000D02*
X77975000Y8000000D01*
X1775000Y-11050000D02*
X3810000Y-11050000D01*
X20825000Y-11050000D02*
X22860000Y-11050000D01*
X39875000Y-11050000D02*
X41910000Y-11050000D01*
X58925000Y-11050000D02*
X60960000Y-11050000D01*
X77975000Y-11050000D02*
X80010000Y-11050000D01*
X28475001Y-5434999D02*
X22860000Y-11050000D01*
X28475001Y5836999D02*
X28475001Y-5434999D01*
X24396000Y9916000D02*
X28475001Y5836999D01*
X24396000Y9916000D02*
X22244000Y9916000D01*
X20942000Y11218000D02*
X20942000Y13370000D01*
X22244000Y9916000D02*
X20942000Y11218000D01*
X77975000Y-30100000D02*
X80010000Y-30100000D01*
X60960000Y-30100000D02*
X58925000Y-30100000D01*
X39875000Y-30100000D02*
X41910000Y-30100000D01*
X22860000Y-30100000D02*
X20825000Y-30100000D01*
X3810000Y-30100000D02*
X1775000Y-30100000D01*
X11424999Y6167001D02*
X11424999Y-6364999D01*
X14592000Y9334002D02*
X11424999Y6167001D01*
X14592000Y14696400D02*
X14592000Y9334002D01*
X11424999Y-6364999D02*
X12440000Y-7380000D01*
X12440000Y-7380000D02*
X12440000Y-10470000D01*
X11499998Y-11410002D02*
X11499998Y-25649998D01*
X12440000Y-10470000D02*
X11499998Y-11410002D01*
X11523501Y-25673501D02*
X11523501Y-29076499D01*
X11499998Y-25649998D02*
X11523501Y-25673501D01*
X3810000Y-49150000D02*
X1775000Y-49150000D01*
X22860000Y-49150000D02*
X20825000Y-49150000D01*
X41910000Y-49150000D02*
X39875000Y-49150000D01*
X60960000Y-49150000D02*
X58925000Y-49150000D01*
X80010000Y-49150000D02*
X77975000Y-49150000D01*
X12615000Y-45775000D02*
X12615000Y-49145000D01*
X10798500Y-28728498D02*
X10798500Y-43958500D01*
X11073491Y-25893491D02*
X11073491Y-28453507D01*
X11049988Y-25869988D02*
X11073491Y-25893491D01*
X11049988Y-11223602D02*
X11049988Y-25869988D01*
X11989990Y-10283600D02*
X11049988Y-11223602D01*
X11989990Y-7566400D02*
X11989990Y-10283600D01*
X10974989Y6353401D02*
X10974990Y-6551400D01*
X10974990Y-6551400D02*
X11989990Y-7566400D01*
X10798500Y-43958500D02*
X12615000Y-45775000D01*
X12052000Y7430412D02*
X10974989Y6353401D01*
X11073491Y-28453507D02*
X10798500Y-28728498D01*
X12052000Y14696400D02*
X12052000Y7430412D01*
X4074999Y-64875001D02*
X8100000Y-60850000D01*
X-3676001Y-64875001D02*
X4074999Y-64875001D01*
X-6825001Y-61726001D02*
X-3676001Y-64875001D01*
X-6825001Y-53295001D02*
X-6825001Y-61726001D01*
X-5600000Y-52070000D02*
X-6825001Y-53295001D01*
X-3676001Y-45825001D02*
X4074999Y-45825001D01*
X4074999Y-45825001D02*
X8100000Y-41800000D01*
X-6825001Y-34245001D02*
X-6825001Y-42676001D01*
X-6825001Y-42676001D02*
X-3676001Y-45825001D01*
X-5600000Y-33020000D02*
X-6825001Y-34245001D01*
X-3676001Y-26775001D02*
X4074999Y-26775001D01*
X-6825001Y-23626001D02*
X-3676001Y-26775001D01*
X-6825001Y-15195001D02*
X-6825001Y-23626001D01*
X4074999Y-26775001D02*
X8100000Y-22750000D01*
X-5600000Y-13970000D02*
X-6825001Y-15195001D01*
X4074999Y-7725001D02*
X8100000Y-3700000D01*
X-3676001Y-7725001D02*
X4074999Y-7725001D01*
X-6825001Y-4576001D02*
X-3676001Y-7725001D01*
X-6825001Y3854999D02*
X-6825001Y-4576001D01*
X-5600000Y5080000D02*
X-6825001Y3854999D01*
X-5600000Y-47749000D02*
X-3676001Y-45825001D01*
X-5600000Y-52070000D02*
X-5600000Y-47749000D01*
X-5600000Y-28699000D02*
X-3676001Y-26775001D01*
X-5600000Y-33020000D02*
X-5600000Y-28699000D01*
X-5600000Y-9649000D02*
X-3676001Y-7725001D01*
X-5600000Y-13970000D02*
X-5600000Y-9649000D01*
X8225001Y3800001D02*
X8225001Y-3574999D01*
X6972000Y5053002D02*
X8225001Y3800001D01*
X8225001Y-3574999D02*
X8100000Y-3700000D01*
X43996424Y11910026D02*
X43996420Y11910030D01*
X44575614Y11910026D02*
X43996424Y11910026D01*
X45090599Y11395041D02*
X44575614Y11910026D01*
X43996420Y11910030D02*
X36839970Y11910030D01*
X36839970Y11910030D02*
X32449970Y11910030D01*
X32174980Y12185020D02*
X32090000Y12185020D01*
X32449970Y11910030D02*
X32174980Y12185020D01*
X26370000Y11310000D02*
X22460000Y11310000D01*
X28560000Y9120000D02*
X26370000Y11310000D01*
X6972000Y11308000D02*
X6972000Y5053002D01*
X6972000Y14696400D02*
X6972000Y11308000D01*
X46023023Y11395041D02*
X45555041Y11395041D01*
X45555041Y11395041D02*
X45090599Y11395041D01*
X48325041Y11395041D02*
X50125041Y11395041D01*
X45555041Y11395041D02*
X48325041Y11395041D01*
X48325041Y11395041D02*
X48705041Y11395041D01*
X50125041Y11395041D02*
X51160000Y12430000D01*
X61920000Y22700000D02*
X59240000Y22700000D01*
X59240000Y22700000D02*
X58150000Y23790000D01*
X58150000Y23790000D02*
X51770000Y23790000D01*
X51770000Y23790000D02*
X51160000Y23180000D01*
X51160000Y12430000D02*
X51160000Y23180000D01*
X23124999Y-64875001D02*
X27150000Y-60850000D01*
X12224999Y-61726001D02*
X15373999Y-64875001D01*
X12224999Y-54923999D02*
X12224999Y-61726001D01*
X15373999Y-64875001D02*
X23124999Y-64875001D01*
X13450000Y-53698998D02*
X12224999Y-54923999D01*
X13450000Y-52070000D02*
X13450000Y-53698998D01*
X23124999Y-45825001D02*
X27150000Y-41800000D01*
X15373999Y-45825001D02*
X23124999Y-45825001D01*
X12224999Y-42676001D02*
X15373999Y-45825001D01*
X12224999Y-34245001D02*
X12224999Y-39695001D01*
X13450000Y-33020000D02*
X12224999Y-34245001D01*
X15373999Y-26775001D02*
X23124999Y-26775001D01*
X23124999Y-26775001D02*
X27150000Y-22750000D01*
X12224999Y-15195001D02*
X12224999Y-20585001D01*
X13450000Y-13970000D02*
X12224999Y-15195001D01*
X23124999Y-7725001D02*
X27150000Y-3700000D01*
X15373999Y-7725001D02*
X23124999Y-7725001D01*
X12224999Y3854999D02*
X12224999Y-4576001D01*
X12224999Y-4576001D02*
X15373999Y-7725001D01*
X13450000Y5080000D02*
X12224999Y3854999D01*
X12224999Y-20585001D02*
X12224999Y-23626001D01*
X12224999Y-39695001D02*
X12224999Y-42676001D01*
X13450000Y-48957998D02*
X13460000Y-48947998D01*
X13450000Y-52070000D02*
X13450000Y-48957998D01*
X13460000Y-47739000D02*
X15373999Y-45825001D01*
X13460000Y-48947998D02*
X13460000Y-47739000D01*
X13450000Y-28540000D02*
X15294499Y-26695501D01*
X13450000Y-33020000D02*
X13450000Y-28540000D01*
X15294499Y-26695501D02*
X15373999Y-26775001D01*
X12224999Y-23626001D02*
X15294499Y-26695501D01*
X13450000Y-9649000D02*
X15373999Y-7725001D01*
X13450000Y-13970000D02*
X13450000Y-9649000D01*
X9512000Y9438000D02*
X10970000Y7980000D01*
X9512000Y14696400D02*
X9512000Y9438000D01*
X22230000Y23020000D02*
X21360000Y23890000D01*
X26810000Y23020000D02*
X22230000Y23020000D01*
X80785001Y23440000D02*
X81525001Y22700000D01*
X74100000Y23440000D02*
X74420000Y23440000D01*
X74420000Y23440000D02*
X80785001Y23440000D01*
X71920000Y23440000D02*
X74420000Y23440000D01*
X71090000Y24270000D02*
X71920000Y23440000D01*
X44730000Y-62370000D02*
X46200000Y-60900000D01*
X44730000Y-62530000D02*
X44730000Y-62370000D01*
X34423999Y-64875001D02*
X42384999Y-64875001D01*
X31274999Y-61726001D02*
X34423999Y-64875001D01*
X46200000Y-60900000D02*
X46200000Y-60850000D01*
X32500000Y-52070000D02*
X31274999Y-53295001D01*
X42384999Y-64875001D02*
X44730000Y-62530000D01*
X31274999Y-53295001D02*
X31274999Y-61726001D01*
X42174999Y-45825001D02*
X46200000Y-41800000D01*
X31274999Y-42676001D02*
X34423999Y-45825001D01*
X34423999Y-45825001D02*
X42174999Y-45825001D01*
X31274999Y-34245001D02*
X31274999Y-42676001D01*
X32500000Y-33020000D02*
X31274999Y-34245001D01*
X34625001Y-26775001D02*
X42174999Y-26775001D01*
X42174999Y-26775001D02*
X46200000Y-22750000D01*
X31274999Y-15195001D02*
X31274999Y-20615001D01*
X32500000Y-13970000D02*
X31274999Y-15195001D01*
X42174999Y-7725001D02*
X46200000Y-3700000D01*
X34423999Y-7725001D02*
X42174999Y-7725001D01*
X31274999Y-4576001D02*
X34423999Y-7725001D01*
X31274999Y3854999D02*
X31274999Y-4576001D01*
X32500000Y5080000D02*
X31274999Y3854999D01*
X32500000Y-48957998D02*
X32520000Y-48937998D01*
X32500000Y-52070000D02*
X32500000Y-48957998D01*
X32520000Y-47729000D02*
X34423999Y-45825001D01*
X32520000Y-48937998D02*
X32520000Y-47729000D01*
X31274999Y-23626001D02*
X31274999Y-20615001D01*
X34625001Y-26775001D02*
X34423999Y-26775001D01*
X34289499Y-26640501D02*
X34289499Y-26960501D01*
X34423999Y-26775001D02*
X34289499Y-26640501D01*
X34289499Y-26640501D02*
X31274999Y-23626001D01*
X32500000Y-28750000D02*
X32500000Y-29330000D01*
X32500000Y-29330000D02*
X32500000Y-29050000D01*
X34289499Y-26960501D02*
X32500000Y-28750000D01*
X32500000Y-33020000D02*
X32500000Y-29330000D01*
X32500000Y-9649000D02*
X34423999Y-7725001D01*
X32500000Y-13970000D02*
X32500000Y-9649000D01*
X17132000Y13562000D02*
X17132000Y14696400D01*
X17916499Y9023501D02*
X17132000Y9808000D01*
X27620000Y6055590D02*
X24652089Y9023501D01*
X24652089Y9023501D02*
X17916499Y9023501D01*
X17132000Y9808000D02*
X17132000Y13562000D01*
X27620000Y-1550000D02*
X27620000Y6055590D01*
X46325001Y8214999D02*
X46325001Y-3574999D01*
X46325001Y-3574999D02*
X46200000Y-3700000D01*
X45670000Y8870000D02*
X46325001Y8214999D01*
X53067091Y32013501D02*
X61886499Y32013501D01*
X50164990Y29111400D02*
X53067091Y32013501D01*
X50709990Y24693600D02*
X50164989Y25238601D01*
X50369990Y12680000D02*
X50709990Y13020000D01*
X50709990Y13020000D02*
X50709990Y24693600D01*
X50164989Y25238601D02*
X50164990Y29111400D01*
X48020000Y12680000D02*
X50369990Y12680000D01*
X62910000Y30990000D02*
X61886499Y32013501D01*
X53473999Y-64875001D02*
X61224999Y-64875001D01*
X61224999Y-64875001D02*
X65250000Y-60850000D01*
X50324999Y-53295001D02*
X50324999Y-58755001D01*
X50324999Y-61726001D02*
X53473999Y-64875001D01*
X51550000Y-52070000D02*
X50324999Y-53295001D01*
X61224999Y-45825001D02*
X65250000Y-41800000D01*
X50324999Y-42676001D02*
X53473999Y-45825001D01*
X53473999Y-45825001D02*
X61224999Y-45825001D01*
X50324999Y-34245001D02*
X50324999Y-39595001D01*
X51550000Y-33020000D02*
X50324999Y-34245001D01*
X50324999Y-23626001D02*
X53473999Y-26775001D01*
X61224999Y-26775001D02*
X65250000Y-22750000D01*
X50324999Y-15195001D02*
X50324999Y-23626001D01*
X53473999Y-26775001D02*
X61224999Y-26775001D01*
X51550000Y-13970000D02*
X50324999Y-15195001D01*
X61224999Y-7725001D02*
X65250000Y-3700000D01*
X53473999Y-7725001D02*
X61224999Y-7725001D01*
X50324999Y-4576001D02*
X53473999Y-7725001D01*
X50324999Y3854999D02*
X50324999Y-1715001D01*
X51550000Y5080000D02*
X50324999Y3854999D01*
X50324999Y-1715001D02*
X50324999Y-4576001D01*
X50324999Y-39595001D02*
X50324999Y-42676001D01*
X50324999Y-58755001D02*
X50324999Y-61726001D01*
X51550000Y-47749000D02*
X53473999Y-45825001D01*
X51550000Y-52070000D02*
X51550000Y-47749000D01*
X51550000Y-28699000D02*
X53473999Y-26775001D01*
X51550000Y-33020000D02*
X51550000Y-28699000D01*
X51550000Y-9649000D02*
X53473999Y-7725001D01*
X51550000Y-13970000D02*
X51550000Y-9649000D01*
X65375001Y3800001D02*
X63637347Y5537655D01*
X65375001Y-3574999D02*
X65375001Y3800001D01*
X65250000Y-3700000D02*
X65375001Y-3574999D01*
X51550000Y5220000D02*
X51550000Y5080000D01*
X45321999Y9595001D02*
X47174999Y9595001D01*
X45296998Y9570000D02*
X45321999Y9595001D01*
X44370000Y9570000D02*
X45296998Y9570000D01*
X43830010Y10109990D02*
X44370000Y9570000D01*
X28350772Y10109990D02*
X43830010Y10109990D01*
X23764362Y14696400D02*
X28350772Y10109990D01*
X47174999Y9595001D02*
X51550000Y5220000D01*
X22212000Y14696400D02*
X23764362Y14696400D01*
X63637347Y9175010D02*
X63637347Y5537655D01*
X-5951600Y14920000D02*
X-5728000Y14696400D01*
X-8290000Y14920000D02*
X-5951600Y14920000D01*
X-6720000Y23960000D02*
X-7990000Y23960000D01*
X-7990000Y23960000D02*
X-8850000Y23100000D01*
X-8850000Y23100000D02*
X-8850000Y18080000D01*
X-7830000Y17060000D02*
X-6750000Y17060000D01*
X-8850000Y18080000D02*
X-7830000Y17060000D01*
X-6815001Y24055001D02*
X-6720000Y23960000D01*
X-6815001Y30438161D02*
X-6815001Y24055001D01*
X-6249761Y31003401D02*
X-6815001Y30438161D01*
X-2666239Y31003401D02*
X-6249761Y31003401D01*
X-1918000Y30255162D02*
X-2666239Y31003401D01*
X-1918000Y28610000D02*
X-1918000Y30255162D01*
X34280000Y25770000D02*
X40230000Y25770000D01*
X40230000Y25640000D02*
X44980000Y20890000D01*
X40230000Y25770000D02*
X40230000Y25640000D01*
X46730000Y20890000D02*
X47420000Y20200000D01*
X44980000Y20890000D02*
X46730000Y20890000D01*
X3735600Y31760000D02*
X1892000Y29916400D01*
X10160000Y31760000D02*
X3735600Y31760000D01*
X53776000Y18054000D02*
X52930000Y18900000D01*
X52930000Y18900000D02*
X52930000Y20200000D01*
X61314000Y15260000D02*
X59793002Y15260000D01*
X56999002Y18054000D02*
X56114000Y18054000D01*
X59793002Y15260000D02*
X56999002Y18054000D01*
X56114000Y18054000D02*
X53776000Y18054000D01*
X-3188000Y20132000D02*
X-3190000Y20130000D01*
X-3188000Y29916400D02*
X-3188000Y20132000D01*
X34280000Y28770000D02*
X40230000Y28770000D01*
X42410000Y31255000D02*
X42410000Y29640000D01*
X41540000Y28770000D02*
X40230000Y28770000D01*
X42410000Y29640000D02*
X41540000Y28770000D01*
X3020000Y28468000D02*
X3162000Y28610000D01*
X3020000Y24080000D02*
X3020000Y28468000D01*
X3020000Y15824400D02*
X1892000Y14696400D01*
X-6720000Y18880000D02*
X2960000Y18880000D01*
X2960000Y18880000D02*
X3020000Y18820000D01*
X3020000Y18820000D02*
X3020000Y15824400D01*
X3020000Y24080000D02*
X3020000Y18820000D01*
X40154990Y21845010D02*
X40230000Y21770000D01*
X34355010Y21845010D02*
X40154990Y21845010D01*
X34280000Y21770000D02*
X34355010Y21845010D01*
X40230000Y19958285D02*
X40230000Y21770000D01*
X38966705Y18694990D02*
X40230000Y19958285D01*
X28463590Y22070000D02*
X31281875Y22070000D01*
X27918591Y21525001D02*
X28463590Y22070000D01*
X34656885Y18694990D02*
X38966705Y18694990D01*
X31281875Y22070000D02*
X34656885Y18694990D01*
X21164999Y21525001D02*
X27918591Y21525001D01*
X20620000Y22070000D02*
X21164999Y21525001D01*
X19260000Y22070000D02*
X20620000Y22070000D01*
X37808500Y13194239D02*
X37808500Y16344239D01*
X63854000Y15260000D02*
X63854000Y16683520D01*
X63854000Y16683520D02*
X64920480Y17750000D01*
X64920480Y17750000D02*
X64920480Y21909520D01*
X64920480Y21909520D02*
X63854000Y22976000D01*
X63770000Y25860000D02*
X63854000Y25944000D01*
X63854000Y25944000D02*
X63854000Y27706000D01*
X60360000Y25860000D02*
X63770000Y25860000D01*
X63854000Y22976000D02*
X63854000Y25944000D01*
X-4460000Y21420000D02*
X-4458000Y21418000D01*
X-6720000Y21420000D02*
X-4460000Y21420000D01*
X-5632999Y29821399D02*
X-5632999Y25622999D01*
X-5728000Y29916400D02*
X-5632999Y29821399D01*
X-4458000Y24448000D02*
X-4458000Y21418000D01*
X-5632999Y25622999D02*
X-4458000Y24448000D01*
X69374999Y-61726001D02*
X72523999Y-64875001D01*
X69374999Y-53295001D02*
X69374999Y-58925001D01*
X80274999Y-64875001D02*
X84300000Y-60850000D01*
X72523999Y-64875001D02*
X80274999Y-64875001D01*
X70600000Y-52070000D02*
X69374999Y-53295001D01*
X69374999Y-42676001D02*
X72523999Y-45825001D01*
X69374999Y-35873999D02*
X69374999Y-42676001D01*
X80274999Y-45825001D02*
X84300000Y-41800000D01*
X72523999Y-45825001D02*
X80274999Y-45825001D01*
X70600000Y-34648998D02*
X69374999Y-35873999D01*
X70600000Y-33020000D02*
X70600000Y-34648998D01*
X69374999Y-15195001D02*
X69374999Y-23626001D01*
X80274999Y-26775001D02*
X84300000Y-22750000D01*
X72523999Y-26775001D02*
X80274999Y-26775001D01*
X69374999Y-23626001D02*
X72523999Y-26775001D01*
X70600000Y-13970000D02*
X69374999Y-15195001D01*
X72523999Y-7725001D02*
X80274999Y-7725001D01*
X69374999Y-4576001D02*
X72523999Y-7725001D01*
X80274999Y-7725001D02*
X84300000Y-3700000D01*
X69374999Y3854999D02*
X69374999Y-1645001D01*
X70600000Y5080000D02*
X69374999Y3854999D01*
X69374999Y-1645001D02*
X69374999Y-4576001D01*
X69374999Y-58925001D02*
X69374999Y-61726001D01*
X70600000Y-47749000D02*
X72523999Y-45825001D01*
X70600000Y-52070000D02*
X70600000Y-47749000D01*
X70600000Y-28699000D02*
X72523999Y-26775001D01*
X70600000Y-33020000D02*
X70600000Y-28699000D01*
X70600000Y-9649000D02*
X72523999Y-7725001D01*
X70600000Y-13970000D02*
X70600000Y-9649000D01*
X70600000Y5080000D02*
X67060000Y5080000D01*
X23313771Y15783401D02*
X20759001Y15783401D01*
X20759001Y15783401D02*
X19672000Y14696400D01*
X28537172Y10560000D02*
X23313771Y15783401D01*
X44016411Y10559999D02*
X28537172Y10560000D01*
X44531399Y10045011D02*
X44016411Y10559999D01*
X46845011Y10045011D02*
X47361400Y10045010D01*
X46845011Y10045011D02*
X44531399Y10045011D01*
X50501409Y6905001D02*
X56175001Y6905001D01*
X47361400Y10045010D02*
X50501409Y6905001D01*
X56230000Y6960000D02*
X62710000Y6960000D01*
X56175001Y6905001D02*
X56230000Y6960000D01*
X65180000Y6960000D02*
X64640000Y7500000D01*
X67060000Y5080000D02*
X65180000Y6960000D01*
X64640000Y9175010D02*
X64640000Y7500000D01*
X55425000Y10620000D02*
X53390000Y10620000D01*
X61010000Y10620000D02*
X58975000Y10620000D01*
X25810000Y20800000D02*
X20260000Y20800000D01*
X77955000Y10640000D02*
X79990000Y10640000D01*
X72370000Y10640000D02*
X74405000Y10640000D01*
X8242000Y14808000D02*
X8242000Y15035162D01*
X8242000Y13370000D02*
X8242000Y14808000D01*
X6920000Y18630000D02*
X6014999Y19535001D01*
X6900000Y18610000D02*
X6920000Y18630000D01*
X6014999Y19535001D02*
X6014999Y26498001D01*
X6900000Y16910000D02*
X6900000Y18610000D01*
X6972000Y27455002D02*
X6972000Y29916400D01*
X6014999Y26498001D02*
X6972000Y27455002D01*
X8242000Y15568000D02*
X6900000Y16910000D01*
X8242000Y14808000D02*
X8242000Y15568000D01*
X48745001Y25014999D02*
X47860000Y25900000D01*
X48025241Y16344239D02*
X48745001Y17063999D01*
X44920500Y16344239D02*
X48025241Y16344239D01*
X48745001Y17063999D02*
X48745001Y25014999D01*
X68350002Y17063999D02*
X68350002Y23379998D01*
X66546003Y15260000D02*
X68350002Y17063999D01*
X66394000Y15260000D02*
X66546003Y15260000D01*
X66394000Y25336000D02*
X66394000Y27706000D01*
X68350002Y23379998D02*
X66394000Y25336000D01*
X5702000Y13370000D02*
X5702000Y15035162D01*
X4432000Y16305162D02*
X5702000Y15035162D01*
X4432000Y29916400D02*
X4432000Y17862000D01*
X4432000Y17862000D02*
X4432000Y16305162D01*
X27150000Y31980000D02*
X26173401Y31003401D01*
X5519001Y31003401D02*
X4432000Y29916400D01*
X26173401Y31003401D02*
X5519001Y31003401D01*
X31590000Y31980000D02*
X44180000Y31980000D01*
X31740000Y31980000D02*
X31590000Y31980000D01*
X31590000Y31980000D02*
X27150000Y31980000D01*
X44980000Y31180000D02*
X44980000Y28510000D01*
X44180000Y31980000D02*
X44980000Y31180000D01*
X49195011Y26984989D02*
X47890000Y28290000D01*
X49195011Y16480922D02*
X49195011Y26984989D01*
X45908328Y13194239D02*
X49195011Y16480922D01*
X44920500Y13194239D02*
X45908328Y13194239D01*
X68934000Y15260000D02*
X68934000Y27706000D01*
X12052000Y24422000D02*
X12000000Y24370000D01*
X12052000Y29916400D02*
X12052000Y24422000D01*
X13322000Y19903567D02*
X13320000Y19905567D01*
X13322000Y13370000D02*
X13322000Y14382000D01*
X13322000Y14382000D02*
X13322000Y19903567D01*
X13322000Y14382000D02*
X13322000Y15035162D01*
X34379055Y17700000D02*
X40800000Y17700000D01*
X30909075Y21169980D02*
X34379055Y17700000D01*
X22217157Y17133431D02*
X24799841Y17133431D01*
X28836390Y21169980D02*
X30909075Y21169980D01*
X17753793Y21596795D02*
X22217157Y17133431D01*
X14193205Y21596795D02*
X17753793Y21596795D01*
X40800000Y17700000D02*
X47420000Y17700000D01*
X13320000Y20723590D02*
X14193205Y21596795D01*
X24799841Y17133431D02*
X28836390Y21169980D01*
X13320000Y19905567D02*
X13320000Y20723590D01*
X52030000Y16530000D02*
X52000000Y16560000D01*
X56520000Y16530000D02*
X52030000Y16530000D01*
X56520000Y16530000D02*
X57450000Y16530000D01*
X10782000Y13370000D02*
X10782000Y15035162D01*
X10782000Y13370000D02*
X10782000Y18222000D01*
X10782000Y18222000D02*
X10782000Y20998000D01*
X9750000Y22030000D02*
X9710000Y22030000D01*
X10782000Y20998000D02*
X9750000Y22030000D01*
X9512000Y29916400D02*
X9512000Y24262000D01*
X11250000Y19230000D02*
X10782000Y18762000D01*
X12861410Y20878590D02*
X11250000Y19267180D01*
X12861410Y20901410D02*
X12861410Y20878590D01*
X17940193Y22046805D02*
X14006805Y22046805D01*
X31095475Y21619990D02*
X28649990Y21619990D01*
X22403557Y17583441D02*
X17940193Y22046805D01*
X10782000Y18762000D02*
X10782000Y18222000D01*
X28649990Y21619990D02*
X24613441Y17583441D01*
X11250000Y19267180D02*
X11250000Y19230000D01*
X42673510Y21913510D02*
X42673510Y19556490D01*
X34565455Y18150010D02*
X31095475Y21619990D01*
X14006805Y22046805D02*
X12861410Y20901410D01*
X24613441Y17583441D02*
X22403557Y17583441D01*
X41267030Y18150010D02*
X34565455Y18150010D01*
X42673510Y19556490D02*
X41267030Y18150010D01*
X55560000Y17255000D02*
X52795000Y17255000D01*
X52795000Y17255000D02*
X51960000Y18090000D01*
X51960000Y18090000D02*
X51960000Y22660000D01*
X51960000Y22660000D02*
X52000000Y22700000D01*
X15862000Y13370000D02*
X15862000Y15035162D01*
X14592000Y24462000D02*
X14540000Y24410000D01*
X14592000Y29916400D02*
X14592000Y24462000D01*
X15862000Y13370000D02*
X15862000Y19808000D01*
X15959567Y19905567D02*
X15862000Y19808000D01*
X44389213Y11460017D02*
X44904199Y10945031D01*
X43810020Y11460020D02*
X44389213Y11460017D01*
X28926390Y11460020D02*
X43810020Y11460020D01*
X15862000Y19905567D02*
X15862000Y20828785D01*
X23702989Y16683421D02*
X28926390Y11460020D01*
X22030757Y16683421D02*
X23702989Y16683421D01*
X16180000Y21146785D02*
X17567393Y21146785D01*
X15862000Y20828785D02*
X16180000Y21146785D01*
X17567393Y21146785D02*
X22030757Y16683421D01*
X60511717Y11636499D02*
X60518719Y11643501D01*
X59858719Y11636499D02*
X60511717Y11636499D01*
X44904199Y10945031D02*
X49914969Y10945031D01*
X49914969Y10945031D02*
X50552211Y10945031D01*
X65370490Y14115272D02*
X65370490Y21045488D01*
X64090000Y12310000D02*
X64090000Y12834782D01*
X65370490Y21045488D02*
X66147501Y21822499D01*
X61246499Y11643501D02*
X61253501Y11636499D01*
X60848283Y11643501D02*
X61246499Y11643501D01*
X54348501Y11643501D02*
X54355503Y11636499D01*
X63416499Y11636499D02*
X64090000Y12310000D01*
X52431499Y11643501D02*
X54348501Y11643501D01*
X60841281Y11636499D02*
X60848283Y11643501D01*
X51733029Y10945031D02*
X52431499Y11643501D01*
X64090000Y12834782D02*
X65370490Y14115272D01*
X61253501Y11636499D02*
X63416499Y11636499D01*
X54355503Y11636499D02*
X60841281Y11636499D01*
X66147501Y21822499D02*
X67025001Y22700000D01*
X49914969Y10945031D02*
X51733029Y10945031D01*
X17132000Y23407000D02*
X17100000Y23375000D01*
X17132000Y29916400D02*
X17132000Y23407000D01*
X18402000Y18618000D02*
X18402000Y13370000D01*
X17080000Y19940000D02*
X18402000Y18618000D01*
X67025001Y17700000D02*
X67417510Y17307491D01*
X67350000Y9890000D02*
X67970000Y10510000D01*
X65360000Y9890000D02*
X67350000Y9890000D01*
X47547801Y10495019D02*
X49019319Y9023501D01*
X54883501Y9023501D02*
X54970000Y9110000D01*
X47204979Y10495021D02*
X47547801Y10495019D01*
X44717799Y10495021D02*
X47204979Y10495021D01*
X54970000Y9110000D02*
X61540000Y9110000D01*
X44202812Y11010008D02*
X44717799Y10495021D01*
X43760010Y11010010D02*
X44202812Y11010008D01*
X49019319Y9023501D02*
X54883501Y9023501D01*
X65349989Y9900011D02*
X65360000Y9890000D01*
X28739990Y11010010D02*
X43760010Y11010010D01*
X62330011Y9900011D02*
X65349989Y9900011D01*
X61540000Y9110000D02*
X62330011Y9900011D01*
X23516589Y16233411D02*
X28739990Y11010010D01*
X18402000Y13370000D02*
X18402000Y15035162D01*
X19600249Y16233411D02*
X23516589Y16233411D01*
X18402000Y15035162D02*
X19600249Y16233411D01*
X70250000Y12790000D02*
X70250000Y17590000D01*
X67970000Y10510000D02*
X70250000Y12790000D01*
X622000Y21122000D02*
X-570000Y19930000D01*
X622000Y28610000D02*
X622000Y21122000D01*
X6740000Y26150000D02*
X6740000Y23410000D01*
X7180000Y22970000D02*
X13760000Y22970000D01*
X6740000Y23410000D02*
X7180000Y22970000D01*
X13760000Y22970000D02*
X14233185Y22496815D01*
X18097871Y22801501D02*
X17793185Y22496815D01*
X21256410Y22070000D02*
X20524909Y22801501D01*
X27784213Y22070000D02*
X21256410Y22070000D01*
X29750000Y24035787D02*
X27784213Y22070000D01*
X29750000Y25450000D02*
X29750000Y24035787D01*
X20524909Y22801501D02*
X18097871Y22801501D01*
X14233185Y22496815D02*
X17793185Y22496815D01*
X36030000Y20270000D02*
X38480000Y20270000D01*
M02*
