M48
; DRILL file {KiCad (5.1.6-0-10_14)} date Sunday, December 11, 2022 at 06:06:34 PM
; FORMAT={-:-/ absolute / metric / decimal}
; #@! TF.CreationDate,2022-12-11T18:06:34+09:00
; #@! TF.GenerationSoftware,Kicad,Pcbnew,(5.1.6-0-10_14)
; #@! TF.FileFunction,NonPlated,1,2,NPTH
FMAT,2
METRIC
T1C1.200
T2C1.700
T3C1.900
T4C3.000
T5C4.000
%
G90
G05
T1
X36.38Y30.57
X36.38Y23.57
X38.13Y30.57
X38.13Y23.57
T2
X52.07Y-38.1
X62.23Y-38.1
X52.07Y-19.05
X62.23Y-19.05
X33.02Y0.0
X43.18Y0.0
X13.97Y-38.1
X24.13Y-38.1
X33.02Y-19.05
X43.18Y-19.05
X71.12Y0.0
X81.28Y0.0
X52.07Y-57.15
X62.23Y-57.15
X71.12Y-38.1
X81.28Y-38.1
X52.07Y0.0
X62.23Y0.0
X-5.08Y-38.1
X5.08Y-38.1
X13.97Y0.0
X24.13Y0.0
X13.97Y-19.05
X24.13Y-19.05
X33.02Y-57.15
X43.18Y-57.15
X33.02Y-38.1
X43.18Y-38.1
X71.12Y-57.15
X81.28Y-57.15
X-5.08Y0.0
X5.08Y0.0
X71.12Y-19.05
X81.28Y-19.05
X13.97Y-57.15
X24.13Y-57.15
X-5.08Y-57.15
X5.08Y-57.15
X-5.08Y-19.05
X5.08Y-19.05
T3
X-5.5Y0.0
X5.5Y0.0
X70.7Y-19.05
X81.7Y-19.05
X13.55Y-57.15
X24.55Y-57.15
X-5.5Y-57.15
X5.5Y-57.15
X-5.5Y-19.05
X5.5Y-19.05
X51.65Y-38.1
X62.65Y-38.1
X51.65Y-19.05
X62.65Y-19.05
X32.6Y0.0
X43.6Y0.0
X13.55Y-38.1
X24.55Y-38.1
X32.6Y-19.05
X43.6Y-19.05
X70.7Y0.0
X81.7Y0.0
X51.65Y-57.15
X62.65Y-57.15
X70.7Y-38.1
X81.7Y-38.1
X51.65Y0.0
X62.65Y0.0
X-5.5Y-38.1
X5.5Y-38.1
X13.55Y0.0
X24.55Y0.0
X13.55Y-19.05
X24.55Y-19.05
X32.6Y-57.15
X43.6Y-57.15
X32.6Y-38.1
X43.6Y-38.1
X70.7Y-57.15
X81.7Y-57.15
T4
X71.2Y-22.75
X72.39Y-16.51
X73.66Y-13.97
X76.2Y-24.95
X78.74Y-13.97
X80.01Y-16.51
X81.2Y-22.75
X14.05Y-60.85
X15.24Y-54.61
X16.51Y-52.07
X19.05Y-63.05
X21.59Y-52.07
X22.86Y-54.61
X24.05Y-60.85
X-5.0Y-60.85
X-3.81Y-54.61
X-2.54Y-52.07
X0.0Y-63.05
X2.54Y-52.07
X3.81Y-54.61
X5.0Y-60.85
X-5.0Y-22.75
X-3.81Y-16.51
X-2.54Y-13.97
X0.0Y-24.95
X2.54Y-13.97
X3.81Y-16.51
X5.0Y-22.75
X52.15Y-41.8
X53.34Y-35.56
X54.61Y-33.02
X57.15Y-44.0
X59.69Y-33.02
X60.96Y-35.56
X62.15Y-41.8
X52.15Y-22.75
X53.34Y-16.51
X54.61Y-13.97
X57.15Y-24.95
X59.69Y-13.97
X60.96Y-16.51
X62.15Y-22.75
X33.1Y-3.7
X34.29Y2.54
X35.56Y5.08
X38.1Y-5.9
X40.64Y5.08
X41.91Y2.54
X43.1Y-3.7
X14.05Y-41.8
X15.24Y-35.56
X16.51Y-33.02
X19.05Y-44.0
X21.59Y-33.02
X22.86Y-35.56
X24.05Y-41.8
X33.1Y-22.75
X34.29Y-16.51
X35.56Y-13.97
X38.1Y-24.95
X40.64Y-13.97
X41.91Y-16.51
X43.1Y-22.75
X71.2Y-3.7
X72.39Y2.54
X73.66Y5.08
X76.2Y-5.9
X78.74Y5.08
X80.01Y2.54
X81.2Y-3.7
X52.15Y-60.85
X53.34Y-54.61
X54.61Y-52.07
X57.15Y-63.05
X59.69Y-52.07
X60.96Y-54.61
X62.15Y-60.85
X71.2Y-41.8
X72.39Y-35.56
X73.66Y-33.02
X76.2Y-44.0
X78.74Y-33.02
X80.01Y-35.56
X81.2Y-41.8
X52.15Y-3.7
X53.34Y2.54
X54.61Y5.08
X57.15Y-5.9
X59.69Y5.08
X60.96Y2.54
X62.15Y-3.7
X-5.0Y-41.8
X-3.81Y-35.56
X-2.54Y-33.02
X0.0Y-44.0
X2.54Y-33.02
X3.81Y-35.56
X5.0Y-41.8
X14.05Y-3.7
X15.24Y2.54
X16.51Y5.08
X19.05Y-5.9
X21.59Y5.08
X22.86Y2.54
X24.05Y-3.7
X14.05Y-22.75
X15.24Y-16.51
X16.51Y-13.97
X19.05Y-24.95
X21.59Y-13.97
X22.86Y-16.51
X24.05Y-22.75
X33.1Y-60.85
X34.29Y-54.61
X35.56Y-52.07
X38.1Y-63.05
X40.64Y-52.07
X41.91Y-54.61
X43.1Y-60.85
X33.1Y-41.8
X34.29Y-35.56
X35.56Y-33.02
X38.1Y-44.0
X40.64Y-33.02
X41.91Y-35.56
X43.1Y-41.8
X71.2Y-60.85
X72.39Y-54.61
X73.66Y-52.07
X76.2Y-63.05
X78.74Y-52.07
X80.01Y-54.61
X81.2Y-60.85
X-5.0Y-3.7
X-3.81Y2.54
X-2.54Y5.08
X0.0Y-5.9
X2.54Y5.08
X3.81Y2.54
X5.0Y-3.7
T5
X19.05Y-57.15
X0.0Y-19.05
X57.15Y-38.1
X38.1Y0.0
X76.2Y0.0
X76.2Y-38.1
X19.05Y0.0
X38.1Y-38.1
X0.0Y0.0
X57.15Y-19.05
X19.05Y-38.1
X57.15Y-57.15
X57.15Y0.0
X0.0Y-38.1
X19.05Y-19.05
X38.1Y-57.15
X76.2Y-57.15
X76.2Y-19.05
X0.0Y-57.15
X38.1Y-19.05
T0
M30
