999
"DXF R12 Output" (www.mydxf.blogspot.com)
 0 
SECTION
 2 
HEADER
 9 
$ACADVER
 1 
AC1009
 9 
$EXTMIN
 10 
 0 
 20 
 0 
 9 
$EXTMAX
 10 
 8.5 
 20 
 11 
 0 
ENDSEC
 0 
SECTION
 2 
ENTITIES
0
LINE
8
Layer 1
10
2.590040
20
0.935148
11
2.682620
21
0.711671
0
LINE
8
Layer 1
10
2.682620
20
0.711671
11
2.906096
21
0.619090
0
LINE
8
Layer 1
10
30.314900
20
28.375900
11
30.314900
21
22.991000
0
LINE
8
Layer 1
10
2.905660
20
0.619737
11
29.998800
21
0.619737
0
LINE
8
Layer 1
10
2.589540
20
26.821100
11
2.589540
21
0.935865
0
LINE
8
Layer 1
10
29.998800
20
28.692100
11
2.905660
21
28.692100
0
LINE
8
Layer 1
10
30.314900
20
0.935865
11
30.314900
21
22.991000
0
LINE
8
Layer 1
10
29.999400
20
0.619091
11
30.222876
21
0.711672
0
LINE
8
Layer 1
10
30.222876
20
0.711672
11
30.315455
21
0.935149
0
LINE
8
Layer 1
10
2.589540
20
28.375900
11
2.589540
21
26.821100
0
LINE
8
Layer 1
10
30.315500
20
28.375600
11
30.222921
21
28.599077
0
LINE
8
Layer 1
10
30.222921
20
28.599077
11
29.999445
21
28.691658
0
LINE
8
Layer 1
10
2.906090
20
28.691700
11
2.682603
21
28.599102
0
LINE
8
Layer 1
10
2.682603
20
28.599102
11
2.590040
21
28.375600
0
LINE
8
Layer 1
10
39.330100
20
0.256627
11
39.553602
21
0.349232
0
LINE
8
Layer 1
10
39.553602
20
0.349232
11
39.646158
21
0.572755
0
LINE
8
Layer 1
10
39.646100
20
27.666100
11
39.553519
21
27.889576
0
LINE
8
Layer 1
10
39.553519
20
27.889576
11
39.330042
21
27.982155
0
LINE
8
Layer 1
10
33.039300
20
27.666200
11
33.039300
21
0.573040
0
LINE
8
Layer 1
10
39.329600
20
27.982300
11
33.354700
21
27.982300
0
LINE
8
Layer 1
10
39.645800
20
0.573040
11
39.645800
21
27.666200
0
LINE
8
Layer 1
10
39.329600
20
0.256912
11
33.354700
21
0.256912
0
LINE
8
Layer 1
10
33.355400
20
27.982100
11
33.131905
21
27.889531
0
LINE
8
Layer 1
10
33.131905
20
27.889531
11
33.039314
21
27.666045
0
LINE
8
Layer 1
10
33.039300
20
0.572755
11
33.131865
21
0.349222
0
LINE
8
Layer 1
10
33.131865
20
0.349222
11
33.355386
21
0.256627
0
LINE
8
Layer 1
10
21.010500
20
38.068300
11
24.961800
21
38.068300
0
LINE
8
Layer 1
10
21.007600
20
36.640300
11
21.007600
21
32.689100
0
LINE
8
Layer 1
10
26.384000
20
36.640300
11
26.384000
21
32.689100
0
LINE
8
Layer 1
10
26.386800
20
48.820900
11
30.338100
21
48.820900
0
LINE
8
Layer 1
10
9.103880
20
32.454700
11
9.196435
21
32.231178
0
LINE
8
Layer 1
10
9.196435
20
32.231178
11
9.419936
21
32.138572
0
LINE
8
Layer 1
10
36.513300
20
32.138600
11
36.736848
21
32.231180
0
LINE
8
Layer 1
10
36.736848
20
32.231180
11
36.829428
21
32.454728
0
LINE
8
Layer 1
10
19.582600
20
42.019500
11
15.631300
21
42.019500
0
LINE
8
Layer 1
10
15.628500
20
47.393000
11
15.628500
21
43.441700
0
LINE
8
Layer 1
10
15.631300
20
42.019500
11
15.631300
21
38.068300
0
LINE
8
Layer 1
10
15.631300
20
38.068300
11
19.582600
21
38.068300
0
LINE
8
Layer 1
10
10.255000
20
47.393000
11
10.255000
21
43.441700
0
LINE
8
Layer 1
10
10.257900
20
42.019500
11
10.257900
21
38.068300
0
LINE
8
Layer 1
10
10.257900
20
38.068300
11
14.209100
21
38.068300
0
LINE
8
Layer 1
10
21.010500
20
48.820900
11
24.961800
21
48.820900
0
LINE
8
Layer 1
10
26.386800
20
38.068300
11
30.338100
21
38.068300
0
LINE
8
Layer 1
10
31.760300
20
36.640300
11
31.760300
21
32.689100
0
LINE
8
Layer 1
10
31.763200
20
48.820900
11
35.714400
21
48.820900
0
LINE
8
Layer 1
10
31.760300
20
32.689100
11
35.711600
21
32.689100
0
LINE
8
Layer 1
10
35.714400
20
38.068300
11
35.714400
21
42.019500
0
LINE
8
Layer 1
10
35.711600
20
32.689100
11
35.711600
21
36.640300
0
LINE
8
Layer 1
10
30.335200
20
36.640300
11
26.384000
21
36.640300
0
LINE
8
Layer 1
10
19.582600
20
38.068300
11
19.582600
21
42.019500
0
LINE
8
Layer 1
10
19.579700
20
32.689100
11
19.579700
21
36.640300
0
LINE
8
Layer 1
10
15.628500
20
43.441700
11
19.579700
21
43.441700
0
LINE
8
Layer 1
10
15.631300
20
52.771500
11
15.631300
21
48.820900
0
LINE
8
Layer 1
10
19.579700
20
47.393000
11
15.628500
21
47.393000
0
LINE
8
Layer 1
10
19.579700
20
43.441700
11
19.579700
21
47.393000
0
LINE
8
Layer 1
10
35.714400
20
42.019500
11
31.763200
21
42.019500
0
LINE
8
Layer 1
10
35.711600
20
43.441700
11
35.711600
21
47.393000
0
LINE
8
Layer 1
10
24.961800
20
42.019500
11
21.010500
21
42.019500
0
LINE
8
Layer 1
10
14.209100
20
48.820900
11
14.209100
21
52.771500
0
LINE
8
Layer 1
10
10.255000
20
32.689100
11
14.206200
21
32.689100
0
LINE
8
Layer 1
10
14.209100
20
38.068300
11
14.209100
21
42.019500
0
LINE
8
Layer 1
10
35.711600
20
47.393000
11
31.760300
21
47.393000
0
LINE
8
Layer 1
10
35.714400
20
52.771500
11
31.763200
21
52.771500
0
LINE
8
Layer 1
10
35.714400
20
48.820900
11
35.714400
21
52.771500
0
LINE
8
Layer 1
10
9.419870
20
32.139300
11
36.513000
21
32.139300
0
LINE
8
Layer 1
10
9.103740
20
53.355700
11
9.103740
21
32.455400
0
LINE
8
Layer 1
10
36.829100
20
32.455400
11
36.829100
21
53.355700
0
LINE
8
Layer 1
10
10.257900
20
52.771500
11
10.257900
21
48.820900
0
LINE
8
Layer 1
10
31.760300
20
43.441700
11
35.711600
21
43.441700
0
LINE
8
Layer 1
10
31.763200
20
52.771500
11
31.763200
21
48.820900
0
LINE
8
Layer 1
10
21.007600
20
47.393000
11
21.007600
21
43.441700
0
LINE
8
Layer 1
10
30.335200
20
32.689100
11
30.335200
21
36.640300
0
LINE
8
Layer 1
10
26.384000
20
43.441700
11
30.335200
21
43.441700
0
LINE
8
Layer 1
10
26.386800
20
52.771500
11
26.386800
21
48.820900
0
LINE
8
Layer 1
10
30.335200
20
47.393000
11
26.384000
21
47.393000
0
LINE
8
Layer 1
10
30.338100
20
52.771500
11
26.386800
21
52.771500
0
LINE
8
Layer 1
10
30.338100
20
48.820900
11
30.338100
21
52.771500
0
LINE
8
Layer 1
10
26.384000
20
47.393000
11
26.384000
21
43.441700
0
LINE
8
Layer 1
10
26.386800
20
42.019500
11
26.386800
21
38.068300
0
LINE
8
Layer 1
10
21.007600
20
32.689100
11
24.958900
21
32.689100
0
LINE
8
Layer 1
10
24.961800
20
38.068300
11
24.961800
21
42.019500
0
LINE
8
Layer 1
10
24.958900
20
32.689100
11
24.958900
21
36.640300
0
LINE
8
Layer 1
10
21.007600
20
43.441700
11
24.958900
21
43.441700
0
LINE
8
Layer 1
10
21.010500
20
52.771500
11
21.010500
21
48.820900
0
LINE
8
Layer 1
10
24.958900
20
47.393000
11
21.007600
21
47.393000
0
LINE
8
Layer 1
10
24.958900
20
43.441700
11
24.958900
21
47.393000
0
LINE
8
Layer 1
10
14.209100
20
42.019500
11
10.257900
21
42.019500
0
LINE
8
Layer 1
10
15.628500
20
36.640300
11
15.628500
21
32.689100
0
LINE
8
Layer 1
10
15.631300
20
48.820900
11
19.582600
21
48.820900
0
LINE
8
Layer 1
10
26.384000
20
32.689100
11
30.335200
21
32.689100
0
LINE
8
Layer 1
10
30.338100
20
38.068300
11
30.338100
21
42.019500
0
LINE
8
Layer 1
10
24.961800
20
48.820900
11
24.961800
21
52.771500
0
LINE
8
Layer 1
10
31.760300
20
47.393000
11
31.760300
21
43.441700
0
LINE
8
Layer 1
10
31.763200
20
42.019500
11
31.763200
21
38.068300
0
LINE
8
Layer 1
10
35.711600
20
36.640300
11
31.760300
21
36.640300
0
LINE
8
Layer 1
10
31.763200
20
38.068300
11
35.714400
21
38.068300
0
LINE
8
Layer 1
10
14.206200
20
32.689100
11
14.206200
21
36.640300
0
LINE
8
Layer 1
10
14.206200
20
36.640300
11
10.255000
21
36.640300
0
LINE
8
Layer 1
10
19.579700
20
36.640300
11
15.628500
21
36.640300
0
LINE
8
Layer 1
10
19.582600
20
52.771500
11
15.631300
21
52.771500
0
LINE
8
Layer 1
10
19.582600
20
48.820900
11
19.582600
21
52.771500
0
LINE
8
Layer 1
10
15.628500
20
32.689100
11
19.579700
21
32.689100
0
LINE
8
Layer 1
10
36.829100
20
53.355700
11
9.103740
21
53.355700
0
LINE
8
Layer 1
10
14.209100
20
52.771500
11
10.257900
21
52.771500
0
LINE
8
Layer 1
10
10.255000
20
36.640300
11
10.255000
21
32.689100
0
LINE
8
Layer 1
10
10.257900
20
48.820900
11
14.209100
21
48.820900
0
LINE
8
Layer 1
10
14.206200
20
47.393000
11
10.255000
21
47.393000
0
LINE
8
Layer 1
10
14.206200
20
43.441700
11
14.206200
21
47.393000
0
LINE
8
Layer 1
10
10.255000
20
43.441700
11
14.206200
21
43.441700
0
LINE
8
Layer 1
10
30.338100
20
42.019500
11
26.386800
21
42.019500
0
LINE
8
Layer 1
10
21.010500
20
42.019500
11
21.010500
21
38.068300
0
LINE
8
Layer 1
10
24.961800
20
52.771500
11
21.010500
21
52.771500
0
LINE
8
Layer 1
10
30.335200
20
43.441700
11
30.335200
21
47.393000
0
LINE
8
Layer 1
10
24.958900
20
36.640300
11
21.007600
21
36.640300
0
LINE
8
Layer 1
10
2.590040
20
0.935148
11
2.682620
21
0.711671
0
LINE
8
Layer 1
10
2.682620
20
0.711671
11
2.906096
21
0.619090
0
LINE
8
Layer 1
10
30.314900
20
28.375900
11
30.314900
21
22.991000
0
LINE
8
Layer 1
10
2.905660
20
0.619737
11
29.998800
21
0.619737
0
LINE
8
Layer 1
10
2.589540
20
26.821100
11
2.589540
21
0.935865
0
LINE
8
Layer 1
10
29.998800
20
28.692100
11
2.905660
21
28.692100
0
LINE
8
Layer 1
10
30.314900
20
0.935865
11
30.314900
21
22.991000
0
LINE
8
Layer 1
10
29.999400
20
0.619091
11
30.222876
21
0.711672
0
LINE
8
Layer 1
10
30.222876
20
0.711672
11
30.315455
21
0.935149
0
LINE
8
Layer 1
10
2.589540
20
28.375900
11
2.589540
21
26.821100
0
LINE
8
Layer 1
10
30.315500
20
28.375600
11
30.222921
21
28.599077
0
LINE
8
Layer 1
10
30.222921
20
28.599077
11
29.999445
21
28.691658
0
LINE
8
Layer 1
10
2.906090
20
28.691700
11
2.682603
21
28.599102
0
LINE
8
Layer 1
10
2.682603
20
28.599102
11
2.590040
21
28.375600
0
LINE
8
Layer 1
10
39.330100
20
0.256627
11
39.553602
21
0.349232
0
LINE
8
Layer 1
10
39.553602
20
0.349232
11
39.646158
21
0.572755
0
LINE
8
Layer 1
10
39.646100
20
27.666100
11
39.553519
21
27.889576
0
LINE
8
Layer 1
10
39.553519
20
27.889576
11
39.330042
21
27.982155
0
LINE
8
Layer 1
10
33.039300
20
27.666200
11
33.039300
21
0.573040
0
LINE
8
Layer 1
10
39.329600
20
27.982300
11
33.354700
21
27.982300
0
LINE
8
Layer 1
10
39.645800
20
0.573040
11
39.645800
21
27.666200
0
LINE
8
Layer 1
10
39.329600
20
0.256912
11
33.354700
21
0.256912
0
LINE
8
Layer 1
10
33.355400
20
27.982100
11
33.131905
21
27.889531
0
LINE
8
Layer 1
10
33.131905
20
27.889531
11
33.039314
21
27.666045
0
LINE
8
Layer 1
10
33.039300
20
0.572755
11
33.131865
21
0.349222
0
LINE
8
Layer 1
10
33.131865
20
0.349222
11
33.355386
21
0.256627
0
LINE
8
Layer 1
10
21.010500
20
38.068300
11
24.961800
21
38.068300
0
LINE
8
Layer 1
10
21.007600
20
36.640300
11
21.007600
21
32.689100
0
LINE
8
Layer 1
10
26.384000
20
36.640300
11
26.384000
21
32.689100
0
LINE
8
Layer 1
10
26.386800
20
48.820900
11
30.338100
21
48.820900
0
LINE
8
Layer 1
10
9.103880
20
32.454700
11
9.196435
21
32.231178
0
LINE
8
Layer 1
10
9.196435
20
32.231178
11
9.419936
21
32.138572
0
LINE
8
Layer 1
10
36.513300
20
32.138600
11
36.736848
21
32.231180
0
LINE
8
Layer 1
10
36.736848
20
32.231180
11
36.829428
21
32.454728
0
LINE
8
Layer 1
10
19.582600
20
42.019500
11
15.631300
21
42.019500
0
LINE
8
Layer 1
10
15.628500
20
47.393000
11
15.628500
21
43.441700
0
LINE
8
Layer 1
10
15.631300
20
42.019500
11
15.631300
21
38.068300
0
LINE
8
Layer 1
10
15.631300
20
38.068300
11
19.582600
21
38.068300
0
LINE
8
Layer 1
10
10.255000
20
47.393000
11
10.255000
21
43.441700
0
LINE
8
Layer 1
10
10.257900
20
42.019500
11
10.257900
21
38.068300
0
LINE
8
Layer 1
10
10.257900
20
38.068300
11
14.209100
21
38.068300
0
LINE
8
Layer 1
10
21.010500
20
48.820900
11
24.961800
21
48.820900
0
LINE
8
Layer 1
10
26.386800
20
38.068300
11
30.338100
21
38.068300
0
LINE
8
Layer 1
10
31.760300
20
36.640300
11
31.760300
21
32.689100
0
LINE
8
Layer 1
10
31.763200
20
48.820900
11
35.714400
21
48.820900
0
LINE
8
Layer 1
10
31.760300
20
32.689100
11
35.711600
21
32.689100
0
LINE
8
Layer 1
10
35.714400
20
38.068300
11
35.714400
21
42.019500
0
LINE
8
Layer 1
10
35.711600
20
32.689100
11
35.711600
21
36.640300
0
LINE
8
Layer 1
10
30.335200
20
36.640300
11
26.384000
21
36.640300
0
LINE
8
Layer 1
10
19.582600
20
38.068300
11
19.582600
21
42.019500
0
LINE
8
Layer 1
10
19.579700
20
32.689100
11
19.579700
21
36.640300
0
LINE
8
Layer 1
10
15.628500
20
43.441700
11
19.579700
21
43.441700
0
LINE
8
Layer 1
10
15.631300
20
52.771500
11
15.631300
21
48.820900
0
LINE
8
Layer 1
10
19.579700
20
47.393000
11
15.628500
21
47.393000
0
LINE
8
Layer 1
10
19.579700
20
43.441700
11
19.579700
21
47.393000
0
LINE
8
Layer 1
10
35.714400
20
42.019500
11
31.763200
21
42.019500
0
LINE
8
Layer 1
10
35.711600
20
43.441700
11
35.711600
21
47.393000
0
LINE
8
Layer 1
10
24.961800
20
42.019500
11
21.010500
21
42.019500
0
LINE
8
Layer 1
10
14.209100
20
48.820900
11
14.209100
21
52.771500
0
LINE
8
Layer 1
10
10.255000
20
32.689100
11
14.206200
21
32.689100
0
LINE
8
Layer 1
10
14.209100
20
38.068300
11
14.209100
21
42.019500
0
LINE
8
Layer 1
10
35.711600
20
47.393000
11
31.760300
21
47.393000
0
LINE
8
Layer 1
10
35.714400
20
52.771500
11
31.763200
21
52.771500
0
LINE
8
Layer 1
10
35.714400
20
48.820900
11
35.714400
21
52.771500
0
LINE
8
Layer 1
10
9.419870
20
32.139300
11
36.513000
21
32.139300
0
LINE
8
Layer 1
10
9.103740
20
53.355700
11
9.103740
21
32.455400
0
LINE
8
Layer 1
10
36.829100
20
32.455400
11
36.829100
21
53.355700
0
LINE
8
Layer 1
10
10.257900
20
52.771500
11
10.257900
21
48.820900
0
LINE
8
Layer 1
10
31.760300
20
43.441700
11
35.711600
21
43.441700
0
LINE
8
Layer 1
10
31.763200
20
52.771500
11
31.763200
21
48.820900
0
LINE
8
Layer 1
10
21.007600
20
47.393000
11
21.007600
21
43.441700
0
LINE
8
Layer 1
10
30.335200
20
32.689100
11
30.335200
21
36.640300
0
LINE
8
Layer 1
10
26.384000
20
43.441700
11
30.335200
21
43.441700
0
LINE
8
Layer 1
10
26.386800
20
52.771500
11
26.386800
21
48.820900
0
LINE
8
Layer 1
10
30.335200
20
47.393000
11
26.384000
21
47.393000
0
LINE
8
Layer 1
10
30.338100
20
52.771500
11
26.386800
21
52.771500
0
LINE
8
Layer 1
10
30.338100
20
48.820900
11
30.338100
21
52.771500
0
LINE
8
Layer 1
10
26.384000
20
47.393000
11
26.384000
21
43.441700
0
LINE
8
Layer 1
10
26.386800
20
42.019500
11
26.386800
21
38.068300
0
LINE
8
Layer 1
10
21.007600
20
32.689100
11
24.958900
21
32.689100
0
LINE
8
Layer 1
10
24.961800
20
38.068300
11
24.961800
21
42.019500
0
LINE
8
Layer 1
10
24.958900
20
32.689100
11
24.958900
21
36.640300
0
LINE
8
Layer 1
10
21.007600
20
43.441700
11
24.958900
21
43.441700
0
LINE
8
Layer 1
10
21.010500
20
52.771500
11
21.010500
21
48.820900
0
LINE
8
Layer 1
10
24.958900
20
47.393000
11
21.007600
21
47.393000
0
LINE
8
Layer 1
10
24.958900
20
43.441700
11
24.958900
21
47.393000
0
LINE
8
Layer 1
10
14.209100
20
42.019500
11
10.257900
21
42.019500
0
LINE
8
Layer 1
10
15.628500
20
36.640300
11
15.628500
21
32.689100
0
LINE
8
Layer 1
10
15.631300
20
48.820900
11
19.582600
21
48.820900
0
LINE
8
Layer 1
10
26.384000
20
32.689100
11
30.335200
21
32.689100
0
LINE
8
Layer 1
10
30.338100
20
38.068300
11
30.338100
21
42.019500
0
LINE
8
Layer 1
10
24.961800
20
48.820900
11
24.961800
21
52.771500
0
LINE
8
Layer 1
10
31.760300
20
47.393000
11
31.760300
21
43.441700
0
LINE
8
Layer 1
10
31.763200
20
42.019500
11
31.763200
21
38.068300
0
LINE
8
Layer 1
10
35.711600
20
36.640300
11
31.760300
21
36.640300
0
LINE
8
Layer 1
10
31.763200
20
38.068300
11
35.714400
21
38.068300
0
LINE
8
Layer 1
10
14.206200
20
32.689100
11
14.206200
21
36.640300
0
LINE
8
Layer 1
10
14.206200
20
36.640300
11
10.255000
21
36.640300
0
LINE
8
Layer 1
10
19.579700
20
36.640300
11
15.628500
21
36.640300
0
LINE
8
Layer 1
10
19.582600
20
52.771500
11
15.631300
21
52.771500
0
LINE
8
Layer 1
10
19.582600
20
48.820900
11
19.582600
21
52.771500
0
LINE
8
Layer 1
10
15.628500
20
32.689100
11
19.579700
21
32.689100
0
LINE
8
Layer 1
10
36.829100
20
53.355700
11
9.103740
21
53.355700
0
LINE
8
Layer 1
10
14.209100
20
52.771500
11
10.257900
21
52.771500
0
LINE
8
Layer 1
10
10.255000
20
36.640300
11
10.255000
21
32.689100
0
LINE
8
Layer 1
10
10.257900
20
48.820900
11
14.209100
21
48.820900
0
LINE
8
Layer 1
10
14.206200
20
47.393000
11
10.255000
21
47.393000
0
LINE
8
Layer 1
10
14.206200
20
43.441700
11
14.206200
21
47.393000
0
LINE
8
Layer 1
10
10.255000
20
43.441700
11
14.206200
21
43.441700
0
LINE
8
Layer 1
10
30.338100
20
42.019500
11
26.386800
21
42.019500
0
LINE
8
Layer 1
10
21.010500
20
42.019500
11
21.010500
21
38.068300
0
LINE
8
Layer 1
10
24.961800
20
52.771500
11
21.010500
21
52.771500
0
LINE
8
Layer 1
10
30.335200
20
43.441700
11
30.335200
21
47.393000
0
LINE
8
Layer 1
10
24.958900
20
36.640300
11
21.007600
21
36.640300
0
LINE
8
Layer 1
10
28.047400
20
-19.799000
11
27.954795
21
-19.575498
0
LINE
8
Layer 1
10
27.954795
20
-19.575498
11
27.731272
21
-19.482942
0
LINE
8
Layer 1
10
0.637976
20
-19.482900
11
0.414453
21
-19.575456
0
LINE
8
Layer 1
10
0.414453
20
-19.575456
11
0.321848
21
-19.798958
0
LINE
8
Layer 1
10
0.322422
20
-25.773700
11
0.322422
21
-19.799600
0
LINE
8
Layer 1
10
27.731200
20
-26.089700
11
27.954748
21
-25.997120
0
LINE
8
Layer 1
10
27.954748
20
-25.997120
11
28.047328
21
-25.773572
0
LINE
8
Layer 1
10
0.638550
20
-26.089900
11
27.731700
21
-26.089900
0
LINE
8
Layer 1
10
27.731700
20
-19.483400
11
0.638550
21
-19.483400
0
LINE
8
Layer 1
10
0.321848
20
-25.773600
11
0.414428
21
-25.997148
0
LINE
8
Layer 1
10
0.414428
20
-25.997148
11
0.637976
21
-26.089728
0
LINE
8
Layer 1
10
28.047800
20
-25.773700
11
28.047800
21
-19.799600
0
LINE
8
Layer 1
10
20.837100
20
-21.421800
11
20.837100
21
-24.969400
0
LINE
8
Layer 1
10
20.837100
20
-24.969400
11
17.063600
21
-24.969400
0
LINE
8
Layer 1
10
17.063600
20
-21.421800
11
20.837100
21
-21.421800
0
LINE
8
Layer 1
10
17.063600
20
-24.969400
11
17.063600
21
-21.421800
0
LINE
8
Layer 1
10
26.371100
20
-21.421800
11
26.371100
21
-24.969400
0
LINE
8
Layer 1
10
22.598300
20
-21.421800
11
26.371100
21
-21.421800
0
LINE
8
Layer 1
10
22.598300
20
-24.969400
11
22.598300
21
-21.421800
0
LINE
8
Layer 1
10
26.371100
20
-24.969400
11
22.598300
21
-24.969400
0
LINE
8
Layer 1
10
-5.539210
20
-24.904900
11
-5.542080
21
-20.397400
0
LINE
8
Layer 1
10
-10.043900
20
-24.904900
11
-5.539210
21
-24.904900
0
LINE
8
Layer 1
10
-10.043900
20
-20.397400
11
-10.043900
21
-24.904900
0
LINE
8
Layer 1
10
-1.583160
20
-19.708700
11
-1.675740
21
-19.485223
0
LINE
8
Layer 1
10
-1.675740
20
-19.485223
11
-1.899216
21
-19.392642
0
LINE
8
Layer 1
10
-28.992600
20
-19.392600
11
-29.216078
21
-19.485180
0
LINE
8
Layer 1
10
-29.216078
20
-19.485180
11
-29.308658
21
-19.708658
0
LINE
8
Layer 1
10
-29.308300
20
-25.683400
11
-29.308300
21
-19.709200
0
LINE
8
Layer 1
10
-1.899220
20
-25.999400
11
-1.675745
21
-25.906820
0
LINE
8
Layer 1
10
-1.675745
20
-25.906820
11
-1.583164
21
-25.683345
0
LINE
8
Layer 1
10
-28.992200
20
-25.999500
11
-1.899080
21
-25.999500
0
LINE
8
Layer 1
10
-1.899080
20
-19.393100
11
-28.992200
21
-19.393100
0
LINE
8
Layer 1
10
-29.308600
20
-25.683300
11
-29.216019
21
-25.906776
0
LINE
8
Layer 1
10
-29.216019
20
-25.906776
11
-28.992542
21
-25.999355
0
LINE
8
Layer 1
10
-1.582950
20
-25.683400
11
-1.582950
21
-19.709200
0
LINE
8
Layer 1
10
-5.542080
20
-20.397400
11
-10.043900
21
-20.397400
0
LINE
8
Layer 1
10
28.047400
20
-19.799000
11
27.954795
21
-19.575498
0
LINE
8
Layer 1
10
27.954795
20
-19.575498
11
27.731272
21
-19.482942
0
LINE
8
Layer 1
10
0.637976
20
-19.482900
11
0.414453
21
-19.575456
0
LINE
8
Layer 1
10
0.414453
20
-19.575456
11
0.321848
21
-19.798958
0
LINE
8
Layer 1
10
0.322422
20
-25.773700
11
0.322422
21
-19.799600
0
LINE
8
Layer 1
10
27.731200
20
-26.089700
11
27.954748
21
-25.997120
0
LINE
8
Layer 1
10
27.954748
20
-25.997120
11
28.047328
21
-25.773572
0
LINE
8
Layer 1
10
0.638550
20
-26.089900
11
27.731700
21
-26.089900
0
LINE
8
Layer 1
10
27.731700
20
-19.483400
11
0.638550
21
-19.483400
0
LINE
8
Layer 1
10
0.321848
20
-25.773600
11
0.414428
21
-25.997148
0
LINE
8
Layer 1
10
0.414428
20
-25.997148
11
0.637976
21
-26.089728
0
LINE
8
Layer 1
10
28.047800
20
-25.773700
11
28.047800
21
-19.799600
0
LINE
8
Layer 1
10
20.837100
20
-21.421800
11
20.837100
21
-24.969400
0
LINE
8
Layer 1
10
20.837100
20
-24.969400
11
17.063600
21
-24.969400
0
LINE
8
Layer 1
10
17.063600
20
-21.421800
11
20.837100
21
-21.421800
0
LINE
8
Layer 1
10
17.063600
20
-24.969400
11
17.063600
21
-21.421800
0
LINE
8
Layer 1
10
26.371100
20
-21.421800
11
26.371100
21
-24.969400
0
LINE
8
Layer 1
10
22.598300
20
-21.421800
11
26.371100
21
-21.421800
0
LINE
8
Layer 1
10
22.598300
20
-24.969400
11
22.598300
21
-21.421800
0
LINE
8
Layer 1
10
26.371100
20
-24.969400
11
22.598300
21
-24.969400
0
LINE
8
Layer 1
10
-5.539210
20
-24.904900
11
-5.542080
21
-20.397400
0
LINE
8
Layer 1
10
-10.043900
20
-24.904900
11
-5.539210
21
-24.904900
0
LINE
8
Layer 1
10
-10.043900
20
-20.397400
11
-10.043900
21
-24.904900
0
LINE
8
Layer 1
10
-1.583160
20
-19.708700
11
-1.675740
21
-19.485223
0
LINE
8
Layer 1
10
-1.675740
20
-19.485223
11
-1.899216
21
-19.392642
0
LINE
8
Layer 1
10
-28.992600
20
-19.392600
11
-29.216078
21
-19.485180
0
LINE
8
Layer 1
10
-29.216078
20
-19.485180
11
-29.308658
21
-19.708658
0
LINE
8
Layer 1
10
-29.308300
20
-25.683400
11
-29.308300
21
-19.709200
0
LINE
8
Layer 1
10
-1.899220
20
-25.999400
11
-1.675745
21
-25.906820
0
LINE
8
Layer 1
10
-1.675745
20
-25.906820
11
-1.583164
21
-25.683345
0
LINE
8
Layer 1
10
-28.992200
20
-25.999500
11
-1.899080
21
-25.999500
0
LINE
8
Layer 1
10
-1.899080
20
-19.393100
11
-28.992200
21
-19.393100
0
LINE
8
Layer 1
10
-29.308600
20
-25.683300
11
-29.216019
21
-25.906776
0
LINE
8
Layer 1
10
-29.216019
20
-25.906776
11
-28.992542
21
-25.999355
0
LINE
8
Layer 1
10
-1.582950
20
-25.683400
11
-1.582950
21
-19.709200
0
LINE
8
Layer 1
10
-5.542080
20
-20.397400
11
-10.043900
21
-20.397400
 0 
ENDSEC
 0 
EOF