G04 #@! TF.GenerationSoftware,KiCad,Pcbnew,(5.1.6-0-10_14)*
G04 #@! TF.CreationDate,2023-01-09T16:43:16+09:00*
G04 #@! TF.ProjectId,cool644,636f6f6c-3634-4342-9e6b-696361645f70,rev?*
G04 #@! TF.SameCoordinates,Original*
G04 #@! TF.FileFunction,Legend,Top*
G04 #@! TF.FilePolarity,Positive*
%FSLAX46Y46*%
G04 Gerber Fmt 4.6, Leading zero omitted, Abs format (unit mm)*
G04 Created by KiCad (PCBNEW (5.1.6-0-10_14)) date 2023-01-09 16:43:16*
%MOMM*%
%LPD*%
G01*
G04 APERTURE LIST*
%ADD10C,0.300000*%
%ADD11C,0.120000*%
%ADD12C,0.150000*%
G04 APERTURE END LIST*
D10*
X131890000Y78201428D02*
X131175714Y78201428D01*
X131175714Y79701428D01*
X132961428Y78272857D02*
X132818571Y78201428D01*
X132532857Y78201428D01*
X132390000Y78272857D01*
X132318571Y78415714D01*
X132318571Y78987142D01*
X132390000Y79130000D01*
X132532857Y79201428D01*
X132818571Y79201428D01*
X132961428Y79130000D01*
X133032857Y78987142D01*
X133032857Y78844285D01*
X132318571Y78701428D01*
X133461428Y79201428D02*
X134032857Y79201428D01*
X133675714Y78201428D02*
X133675714Y79487142D01*
X133747142Y79630000D01*
X133890000Y79701428D01*
X134032857Y79701428D01*
X134318571Y79201428D02*
X134890000Y79201428D01*
X134532857Y79701428D02*
X134532857Y78415714D01*
X134604285Y78272857D01*
X134747142Y78201428D01*
X134890000Y78201428D01*
X136461428Y78272857D02*
X136675714Y78201428D01*
X137032857Y78201428D01*
X137175714Y78272857D01*
X137247142Y78344285D01*
X137318571Y78487142D01*
X137318571Y78630000D01*
X137247142Y78772857D01*
X137175714Y78844285D01*
X137032857Y78915714D01*
X136747142Y78987142D01*
X136604285Y79058571D01*
X136532857Y79130000D01*
X136461428Y79272857D01*
X136461428Y79415714D01*
X136532857Y79558571D01*
X136604285Y79630000D01*
X136747142Y79701428D01*
X137104285Y79701428D01*
X137318571Y79630000D01*
X137961428Y78201428D02*
X137961428Y79201428D01*
X137961428Y79701428D02*
X137890000Y79630000D01*
X137961428Y79558571D01*
X138032857Y79630000D01*
X137961428Y79701428D01*
X137961428Y79558571D01*
X139318571Y78201428D02*
X139318571Y79701428D01*
X139318571Y78272857D02*
X139175714Y78201428D01*
X138890000Y78201428D01*
X138747142Y78272857D01*
X138675714Y78344285D01*
X138604285Y78487142D01*
X138604285Y78915714D01*
X138675714Y79058571D01*
X138747142Y79130000D01*
X138890000Y79201428D01*
X139175714Y79201428D01*
X139318571Y79130000D01*
X140604285Y78272857D02*
X140461428Y78201428D01*
X140175714Y78201428D01*
X140032857Y78272857D01*
X139961428Y78415714D01*
X139961428Y78987142D01*
X140032857Y79130000D01*
X140175714Y79201428D01*
X140461428Y79201428D01*
X140604285Y79130000D01*
X140675714Y78987142D01*
X140675714Y78844285D01*
X139961428Y78701428D01*
D11*
X125840000Y85690000D02*
X126540000Y85690000D01*
X130240000Y85690000D02*
X141740000Y85690000D01*
X141740000Y71690000D02*
X125840000Y71690000D01*
X125840000Y71690000D02*
X125840000Y85690000D01*
D12*
X176410000Y86020000D02*
X176410000Y88560000D01*
X186570000Y88560000D02*
X186570000Y86020000D01*
X176410000Y88560000D02*
X186570000Y88560000D01*
X176410000Y86020000D02*
X186570000Y86020000D01*
X158480000Y69810000D02*
X159380000Y70310000D01*
X159380000Y70310000D02*
X159380000Y69310000D01*
X159380000Y69310000D02*
X158480000Y69810000D01*
X158380000Y70310000D02*
X158380000Y69310000D01*
X161580000Y70560000D02*
X156180000Y70560000D01*
X156180000Y70560000D02*
X156180000Y69060000D01*
X156180000Y69060000D02*
X161580000Y69060000D01*
X161580000Y69060000D02*
X161580000Y70560000D01*
X176390000Y67690000D02*
X186550000Y67690000D01*
X176390000Y70230000D02*
X186550000Y70230000D01*
X186550000Y70230000D02*
X186550000Y67690000D01*
X176390000Y67690000D02*
X176390000Y70230000D01*
X116320000Y69750000D02*
X117220000Y70250000D01*
X117220000Y70250000D02*
X117220000Y69250000D01*
X117220000Y69250000D02*
X116320000Y69750000D01*
X116220000Y70250000D02*
X116220000Y69250000D01*
X119420000Y70500000D02*
X114020000Y70500000D01*
X114020000Y70500000D02*
X114020000Y69000000D01*
X114020000Y69000000D02*
X119420000Y69000000D01*
X119420000Y69000000D02*
X119420000Y70500000D01*
X139140000Y67550000D02*
X139140000Y69050000D01*
X133740000Y67550000D02*
X139140000Y67550000D01*
X133740000Y69050000D02*
X133740000Y67550000D01*
X139140000Y69050000D02*
X133740000Y69050000D01*
X135940000Y68800000D02*
X135940000Y67800000D01*
X136940000Y67800000D02*
X136040000Y68300000D01*
X136940000Y68800000D02*
X136940000Y67800000D01*
X136040000Y68300000D02*
X136940000Y68800000D01*
X180122857Y89604285D02*
X180122857Y88937619D01*
X179884761Y89985238D02*
X179646666Y89270952D01*
X180265714Y89270952D01*
X180646666Y89604285D02*
X180646666Y88604285D01*
X180646666Y89556666D02*
X180741904Y89604285D01*
X180932380Y89604285D01*
X181027619Y89556666D01*
X181075238Y89509047D01*
X181122857Y89413809D01*
X181122857Y89128095D01*
X181075238Y89032857D01*
X181027619Y88985238D01*
X180932380Y88937619D01*
X180741904Y88937619D01*
X180646666Y88985238D01*
X181551428Y88937619D02*
X181551428Y89604285D01*
X181551428Y89937619D02*
X181503809Y89890000D01*
X181551428Y89842380D01*
X181599047Y89890000D01*
X181551428Y89937619D01*
X181551428Y89842380D01*
X182027619Y89604285D02*
X182027619Y88937619D01*
X182027619Y89509047D02*
X182075238Y89556666D01*
X182170476Y89604285D01*
X182313333Y89604285D01*
X182408571Y89556666D01*
X182456190Y89461428D01*
X182456190Y88937619D01*
X182884761Y88985238D02*
X182980000Y88937619D01*
X183170476Y88937619D01*
X183265714Y88985238D01*
X183313333Y89080476D01*
X183313333Y89128095D01*
X183265714Y89223333D01*
X183170476Y89270952D01*
X183027619Y89270952D01*
X182932380Y89318571D01*
X182884761Y89413809D01*
X182884761Y89461428D01*
X182932380Y89556666D01*
X183027619Y89604285D01*
X183170476Y89604285D01*
X183265714Y89556666D01*
X180102857Y71274285D02*
X180102857Y70607619D01*
X179864761Y71655238D02*
X179626666Y70940952D01*
X180245714Y70940952D01*
X180626666Y71274285D02*
X180626666Y70274285D01*
X180626666Y71226666D02*
X180721904Y71274285D01*
X180912380Y71274285D01*
X181007619Y71226666D01*
X181055238Y71179047D01*
X181102857Y71083809D01*
X181102857Y70798095D01*
X181055238Y70702857D01*
X181007619Y70655238D01*
X180912380Y70607619D01*
X180721904Y70607619D01*
X180626666Y70655238D01*
X181531428Y70607619D02*
X181531428Y71274285D01*
X181531428Y71607619D02*
X181483809Y71560000D01*
X181531428Y71512380D01*
X181579047Y71560000D01*
X181531428Y71607619D01*
X181531428Y71512380D01*
X182007619Y71274285D02*
X182007619Y70607619D01*
X182007619Y71179047D02*
X182055238Y71226666D01*
X182150476Y71274285D01*
X182293333Y71274285D01*
X182388571Y71226666D01*
X182436190Y71131428D01*
X182436190Y70607619D01*
X182864761Y70655238D02*
X182960000Y70607619D01*
X183150476Y70607619D01*
X183245714Y70655238D01*
X183293333Y70750476D01*
X183293333Y70798095D01*
X183245714Y70893333D01*
X183150476Y70940952D01*
X183007619Y70940952D01*
X182912380Y70988571D01*
X182864761Y71083809D01*
X182864761Y71131428D01*
X182912380Y71226666D01*
X183007619Y71274285D01*
X183150476Y71274285D01*
X183245714Y71226666D01*
M02*
