G04 #@! TF.GenerationSoftware,KiCad,Pcbnew,(5.1.6-0-10_14)*
G04 #@! TF.CreationDate,2023-01-09T16:43:16+09:00*
G04 #@! TF.ProjectId,cool644,636f6f6c-3634-4342-9e6b-696361645f70,rev?*
G04 #@! TF.SameCoordinates,Original*
G04 #@! TF.FileFunction,Copper,L2,Bot*
G04 #@! TF.FilePolarity,Positive*
%FSLAX46Y46*%
G04 Gerber Fmt 4.6, Leading zero omitted, Abs format (unit mm)*
G04 Created by KiCad (PCBNEW (5.1.6-0-10_14)) date 2023-01-09 16:43:16*
%MOMM*%
%LPD*%
G01*
G04 APERTURE LIST*
G04 #@! TA.AperFunction,ComponentPad*
%ADD10C,2.000000*%
G04 #@! TD*
G04 #@! TA.AperFunction,ComponentPad*
%ADD11R,2.000000X2.000000*%
G04 #@! TD*
G04 #@! TA.AperFunction,ComponentPad*
%ADD12C,1.600000*%
G04 #@! TD*
G04 #@! TA.AperFunction,ComponentPad*
%ADD13C,1.397000*%
G04 #@! TD*
G04 #@! TA.AperFunction,ComponentPad*
%ADD14R,1.397000X1.397000*%
G04 #@! TD*
G04 #@! TA.AperFunction,SMDPad,CuDef*
%ADD15R,1.300000X0.950000*%
G04 #@! TD*
G04 #@! TA.AperFunction,ViaPad*
%ADD16C,0.800000*%
G04 #@! TD*
G04 #@! TA.AperFunction,Conductor*
%ADD17C,0.250000*%
G04 #@! TD*
G04 APERTURE END LIST*
D10*
X128715000Y75380000D03*
X128715000Y77920000D03*
X128715000Y80460000D03*
D11*
X128715000Y83000000D03*
D12*
X129340000Y85840000D03*
X127490000Y85840000D03*
D13*
X185300000Y87290000D03*
X182760000Y87290000D03*
X180220000Y87290000D03*
X177680000Y87290000D03*
X162690000Y69810000D03*
D14*
X155070000Y69810000D03*
D15*
X157105000Y69810000D03*
X160655000Y69810000D03*
D13*
X177660000Y68960000D03*
X180200000Y68960000D03*
X182740000Y68960000D03*
X185280000Y68960000D03*
X120530000Y69750000D03*
D14*
X112910000Y69750000D03*
D15*
X114945000Y69750000D03*
X118495000Y69750000D03*
X138215000Y68300000D03*
X134665000Y68300000D03*
D14*
X132630000Y68300000D03*
D13*
X140250000Y68300000D03*
D10*
X111270000Y81970000D03*
X116270000Y84070000D03*
X121270000Y81970000D03*
X163590000Y81970000D03*
X158590000Y84070000D03*
X153590000Y81970000D03*
D16*
X150820000Y68860000D03*
X136150000Y87660000D03*
D17*
X112910000Y80710000D02*
X116270000Y84070000D01*
X112910000Y69750000D02*
X112910000Y80710000D01*
X112910000Y69750000D02*
X114945000Y69750000D01*
X118495000Y69750000D02*
X120530000Y69750000D01*
X171770000Y85160000D02*
X171770000Y70760000D01*
X173900000Y87290000D02*
X171770000Y85160000D01*
X139226499Y67276499D02*
X140250000Y68300000D01*
X120530000Y69750000D02*
X123003501Y67276499D01*
X123003501Y67276499D02*
X139226499Y67276499D01*
X149880000Y69710000D02*
X153180000Y69710000D01*
X153788999Y69108999D02*
X154597998Y68300000D01*
X153788999Y69108999D02*
X153781001Y69108999D01*
X140250000Y68300000D02*
X148470000Y68300000D01*
X153781001Y69108999D02*
X153180000Y69710000D01*
X154597998Y68300000D02*
X161180000Y68300000D01*
X148470000Y68300000D02*
X149880000Y69710000D01*
X161180000Y68300000D02*
X162690000Y69810000D01*
X171770000Y70760000D02*
X170820000Y69810000D01*
X170820000Y69810000D02*
X162690000Y69810000D01*
X177680000Y87290000D02*
X173900000Y87290000D01*
X138215000Y68300000D02*
X140250000Y68300000D01*
X132630000Y68300000D02*
X134665000Y68300000D01*
X131565998Y68300000D02*
X127389999Y72475999D01*
X127389999Y85739999D02*
X127490000Y85840000D01*
X132630000Y68300000D02*
X131565998Y68300000D01*
X127389999Y72475999D02*
X127389999Y85739999D01*
X155070000Y80550000D02*
X158590000Y84070000D01*
X155070000Y69810000D02*
X155070000Y80550000D01*
X161579990Y67849990D02*
X161366400Y67849990D01*
X151830010Y67849990D02*
X150820000Y68860000D01*
X161579990Y67849990D02*
X151830010Y67849990D01*
X179089990Y67849990D02*
X161579990Y67849990D01*
X180200000Y68960000D02*
X179089990Y67849990D01*
X123370000Y87430000D02*
X121270000Y85330000D01*
X123370000Y87430000D02*
X134550000Y87430000D01*
X180220000Y87290000D02*
X179196499Y88313501D01*
X121270000Y81970000D02*
X121270000Y85330000D01*
X134550000Y87430000D02*
X135230000Y86750000D01*
X142322998Y86750000D02*
X143886499Y88313501D01*
X135230000Y86750000D02*
X142322998Y86750000D01*
X179196499Y88313501D02*
X143886499Y88313501D01*
X137253511Y88763511D02*
X136150000Y87660000D01*
X137540000Y88763511D02*
X137253511Y88763511D01*
X181286489Y88763511D02*
X179382899Y88763511D01*
X179382899Y88763511D02*
X137540000Y88763511D01*
X182760000Y87290000D02*
X181286489Y88763511D01*
M02*
