G04 #@! TF.GenerationSoftware,KiCad,Pcbnew,(5.1.6-0-10_14)*
G04 #@! TF.CreationDate,2023-01-09T16:42:19+09:00*
G04 #@! TF.ProjectId,cool644,636f6f6c-3634-4342-9e6b-696361645f70,rev?*
G04 #@! TF.SameCoordinates,Original*
G04 #@! TF.FileFunction,Legend,Top*
G04 #@! TF.FilePolarity,Positive*
%FSLAX46Y46*%
G04 Gerber Fmt 4.6, Leading zero omitted, Abs format (unit mm)*
G04 Created by KiCad (PCBNEW (5.1.6-0-10_14)) date 2023-01-09 16:42:19*
%MOMM*%
%LPD*%
G01*
G04 APERTURE LIST*
%ADD10C,0.300000*%
%ADD11C,0.120000*%
%ADD12C,0.150000*%
G04 APERTURE END LIST*
D10*
X170027142Y42951428D02*
X169527142Y43665714D01*
X169170000Y42951428D02*
X169170000Y44451428D01*
X169741428Y44451428D01*
X169884285Y44380000D01*
X169955714Y44308571D01*
X170027142Y44165714D01*
X170027142Y43951428D01*
X169955714Y43808571D01*
X169884285Y43737142D01*
X169741428Y43665714D01*
X169170000Y43665714D01*
X170670000Y42951428D02*
X170670000Y43951428D01*
X170670000Y44451428D02*
X170598571Y44380000D01*
X170670000Y44308571D01*
X170741428Y44380000D01*
X170670000Y44451428D01*
X170670000Y44308571D01*
X172027142Y43951428D02*
X172027142Y42737142D01*
X171955714Y42594285D01*
X171884285Y42522857D01*
X171741428Y42451428D01*
X171527142Y42451428D01*
X171384285Y42522857D01*
X172027142Y43022857D02*
X171884285Y42951428D01*
X171598571Y42951428D01*
X171455714Y43022857D01*
X171384285Y43094285D01*
X171312857Y43237142D01*
X171312857Y43665714D01*
X171384285Y43808571D01*
X171455714Y43880000D01*
X171598571Y43951428D01*
X171884285Y43951428D01*
X172027142Y43880000D01*
X172741428Y42951428D02*
X172741428Y44451428D01*
X173384285Y42951428D02*
X173384285Y43737142D01*
X173312857Y43880000D01*
X173170000Y43951428D01*
X172955714Y43951428D01*
X172812857Y43880000D01*
X172741428Y43808571D01*
X173884285Y43951428D02*
X174455714Y43951428D01*
X174098571Y44451428D02*
X174098571Y43165714D01*
X174170000Y43022857D01*
X174312857Y42951428D01*
X174455714Y42951428D01*
X176027142Y43022857D02*
X176241428Y42951428D01*
X176598571Y42951428D01*
X176741428Y43022857D01*
X176812857Y43094285D01*
X176884285Y43237142D01*
X176884285Y43380000D01*
X176812857Y43522857D01*
X176741428Y43594285D01*
X176598571Y43665714D01*
X176312857Y43737142D01*
X176170000Y43808571D01*
X176098571Y43880000D01*
X176027142Y44022857D01*
X176027142Y44165714D01*
X176098571Y44308571D01*
X176170000Y44380000D01*
X176312857Y44451428D01*
X176670000Y44451428D01*
X176884285Y44380000D01*
X177527142Y42951428D02*
X177527142Y43951428D01*
X177527142Y44451428D02*
X177455714Y44380000D01*
X177527142Y44308571D01*
X177598571Y44380000D01*
X177527142Y44451428D01*
X177527142Y44308571D01*
X178884285Y42951428D02*
X178884285Y44451428D01*
X178884285Y43022857D02*
X178741428Y42951428D01*
X178455714Y42951428D01*
X178312857Y43022857D01*
X178241428Y43094285D01*
X178170000Y43237142D01*
X178170000Y43665714D01*
X178241428Y43808571D01*
X178312857Y43880000D01*
X178455714Y43951428D01*
X178741428Y43951428D01*
X178884285Y43880000D01*
X180170000Y43022857D02*
X180027142Y42951428D01*
X179741428Y42951428D01*
X179598571Y43022857D01*
X179527142Y43165714D01*
X179527142Y43737142D01*
X179598571Y43880000D01*
X179741428Y43951428D01*
X180027142Y43951428D01*
X180170000Y43880000D01*
X180241428Y43737142D01*
X180241428Y43594285D01*
X179527142Y43451428D01*
D11*
X165410000Y36400000D02*
X165410000Y50400000D01*
X181310000Y36400000D02*
X165410000Y36400000D01*
X169810000Y50400000D02*
X181310000Y50400000D01*
X165410000Y50400000D02*
X166110000Y50400000D01*
D12*
X134150000Y53310000D02*
X123990000Y53310000D01*
X123990000Y53310000D02*
X123990000Y50770000D01*
X123990000Y50770000D02*
X134150000Y50770000D01*
X134150000Y50770000D02*
X134150000Y53310000D01*
X148980000Y33810000D02*
X148980000Y35310000D01*
X154380000Y33810000D02*
X148980000Y33810000D01*
X154380000Y35310000D02*
X154380000Y33810000D01*
X148980000Y35310000D02*
X154380000Y35310000D01*
X152180000Y35060000D02*
X152180000Y34060000D01*
X151180000Y34060000D02*
X152080000Y34560000D01*
X151180000Y35060000D02*
X151180000Y34060000D01*
X152080000Y34560000D02*
X151180000Y35060000D01*
X134170000Y32440000D02*
X134170000Y34980000D01*
X124010000Y32440000D02*
X134170000Y32440000D01*
X124010000Y34980000D02*
X124010000Y32440000D01*
X134170000Y34980000D02*
X124010000Y34980000D01*
X191140000Y33750000D02*
X191140000Y35250000D01*
X196540000Y33750000D02*
X191140000Y33750000D01*
X196540000Y35250000D02*
X196540000Y33750000D01*
X191140000Y35250000D02*
X196540000Y35250000D01*
X194340000Y35000000D02*
X194340000Y34000000D01*
X193340000Y34000000D02*
X194240000Y34500000D01*
X193340000Y35000000D02*
X193340000Y34000000D01*
X194240000Y34500000D02*
X193340000Y35000000D01*
X174520000Y33050000D02*
X173620000Y33550000D01*
X173620000Y33550000D02*
X173620000Y32550000D01*
X173620000Y32550000D02*
X174520000Y33050000D01*
X174620000Y33550000D02*
X174620000Y32550000D01*
X171420000Y33800000D02*
X176820000Y33800000D01*
X176820000Y33800000D02*
X176820000Y32300000D01*
X176820000Y32300000D02*
X171420000Y32300000D01*
X171420000Y32300000D02*
X171420000Y33800000D01*
X127772857Y54354285D02*
X127772857Y53687619D01*
X127534761Y54735238D02*
X127296666Y54020952D01*
X127915714Y54020952D01*
X128296666Y54354285D02*
X128296666Y53354285D01*
X128296666Y54306666D02*
X128391904Y54354285D01*
X128582380Y54354285D01*
X128677619Y54306666D01*
X128725238Y54259047D01*
X128772857Y54163809D01*
X128772857Y53878095D01*
X128725238Y53782857D01*
X128677619Y53735238D01*
X128582380Y53687619D01*
X128391904Y53687619D01*
X128296666Y53735238D01*
X129201428Y53687619D02*
X129201428Y54354285D01*
X129201428Y54687619D02*
X129153809Y54640000D01*
X129201428Y54592380D01*
X129249047Y54640000D01*
X129201428Y54687619D01*
X129201428Y54592380D01*
X129677619Y54354285D02*
X129677619Y53687619D01*
X129677619Y54259047D02*
X129725238Y54306666D01*
X129820476Y54354285D01*
X129963333Y54354285D01*
X130058571Y54306666D01*
X130106190Y54211428D01*
X130106190Y53687619D01*
X130534761Y53735238D02*
X130630000Y53687619D01*
X130820476Y53687619D01*
X130915714Y53735238D01*
X130963333Y53830476D01*
X130963333Y53878095D01*
X130915714Y53973333D01*
X130820476Y54020952D01*
X130677619Y54020952D01*
X130582380Y54068571D01*
X130534761Y54163809D01*
X130534761Y54211428D01*
X130582380Y54306666D01*
X130677619Y54354285D01*
X130820476Y54354285D01*
X130915714Y54306666D01*
X127792857Y36024285D02*
X127792857Y35357619D01*
X127554761Y36405238D02*
X127316666Y35690952D01*
X127935714Y35690952D01*
X128316666Y36024285D02*
X128316666Y35024285D01*
X128316666Y35976666D02*
X128411904Y36024285D01*
X128602380Y36024285D01*
X128697619Y35976666D01*
X128745238Y35929047D01*
X128792857Y35833809D01*
X128792857Y35548095D01*
X128745238Y35452857D01*
X128697619Y35405238D01*
X128602380Y35357619D01*
X128411904Y35357619D01*
X128316666Y35405238D01*
X129221428Y35357619D02*
X129221428Y36024285D01*
X129221428Y36357619D02*
X129173809Y36310000D01*
X129221428Y36262380D01*
X129269047Y36310000D01*
X129221428Y36357619D01*
X129221428Y36262380D01*
X129697619Y36024285D02*
X129697619Y35357619D01*
X129697619Y35929047D02*
X129745238Y35976666D01*
X129840476Y36024285D01*
X129983333Y36024285D01*
X130078571Y35976666D01*
X130126190Y35881428D01*
X130126190Y35357619D01*
X130554761Y35405238D02*
X130650000Y35357619D01*
X130840476Y35357619D01*
X130935714Y35405238D01*
X130983333Y35500476D01*
X130983333Y35548095D01*
X130935714Y35643333D01*
X130840476Y35690952D01*
X130697619Y35690952D01*
X130602380Y35738571D01*
X130554761Y35833809D01*
X130554761Y35881428D01*
X130602380Y35976666D01*
X130697619Y36024285D01*
X130840476Y36024285D01*
X130935714Y35976666D01*
M02*
