G04 #@! TF.GenerationSoftware,KiCad,Pcbnew,(5.1.6-0-10_14)*
G04 #@! TF.CreationDate,2023-01-09T16:42:19+09:00*
G04 #@! TF.ProjectId,cool644,636f6f6c-3634-4342-9e6b-696361645f70,rev?*
G04 #@! TF.SameCoordinates,Original*
G04 #@! TF.FileFunction,Legend,Bot*
G04 #@! TF.FilePolarity,Positive*
%FSLAX46Y46*%
G04 Gerber Fmt 4.6, Leading zero omitted, Abs format (unit mm)*
G04 Created by KiCad (PCBNEW (5.1.6-0-10_14)) date 2023-01-09 16:42:19*
%MOMM*%
%LPD*%
G01*
G04 APERTURE LIST*
%ADD10C,0.150000*%
G04 APERTURE END LIST*
D10*
X134150000Y50770000D02*
X123990000Y50770000D01*
X134150000Y53310000D02*
X123990000Y53310000D01*
X123990000Y53310000D02*
X123990000Y50770000D01*
X134150000Y50770000D02*
X134150000Y53310000D01*
X148980000Y33810000D02*
X148980000Y35310000D01*
X154380000Y33810000D02*
X148980000Y33810000D01*
X154380000Y35310000D02*
X154380000Y33810000D01*
X148980000Y35310000D02*
X154380000Y35310000D01*
X152180000Y35060000D02*
X152180000Y34060000D01*
X151180000Y34060000D02*
X152080000Y34560000D01*
X151180000Y35060000D02*
X151180000Y34060000D01*
X152080000Y34560000D02*
X151180000Y35060000D01*
X134170000Y32440000D02*
X134170000Y34980000D01*
X124010000Y34980000D02*
X124010000Y32440000D01*
X134170000Y34980000D02*
X124010000Y34980000D01*
X134170000Y32440000D02*
X124010000Y32440000D01*
X191140000Y33750000D02*
X191140000Y35250000D01*
X196540000Y33750000D02*
X191140000Y33750000D01*
X196540000Y35250000D02*
X196540000Y33750000D01*
X191140000Y35250000D02*
X196540000Y35250000D01*
X194340000Y35000000D02*
X194340000Y34000000D01*
X193340000Y34000000D02*
X194240000Y34500000D01*
X193340000Y35000000D02*
X193340000Y34000000D01*
X194240000Y34500000D02*
X193340000Y35000000D01*
X174520000Y33050000D02*
X173620000Y33550000D01*
X173620000Y33550000D02*
X173620000Y32550000D01*
X173620000Y32550000D02*
X174520000Y33050000D01*
X174620000Y33550000D02*
X174620000Y32550000D01*
X171420000Y33800000D02*
X176820000Y33800000D01*
X176820000Y33800000D02*
X176820000Y32300000D01*
X176820000Y32300000D02*
X171420000Y32300000D01*
X171420000Y32300000D02*
X171420000Y33800000D01*
X130437142Y54354285D02*
X130437142Y53687619D01*
X130675238Y54735238D02*
X130913333Y54020952D01*
X130294285Y54020952D01*
X129913333Y54354285D02*
X129913333Y53354285D01*
X129913333Y54306666D02*
X129818095Y54354285D01*
X129627619Y54354285D01*
X129532380Y54306666D01*
X129484761Y54259047D01*
X129437142Y54163809D01*
X129437142Y53878095D01*
X129484761Y53782857D01*
X129532380Y53735238D01*
X129627619Y53687619D01*
X129818095Y53687619D01*
X129913333Y53735238D01*
X129008571Y53687619D02*
X129008571Y54354285D01*
X129008571Y54687619D02*
X129056190Y54640000D01*
X129008571Y54592380D01*
X128960952Y54640000D01*
X129008571Y54687619D01*
X129008571Y54592380D01*
X128532380Y54354285D02*
X128532380Y53687619D01*
X128532380Y54259047D02*
X128484761Y54306666D01*
X128389523Y54354285D01*
X128246666Y54354285D01*
X128151428Y54306666D01*
X128103809Y54211428D01*
X128103809Y53687619D01*
X127675238Y53735238D02*
X127580000Y53687619D01*
X127389523Y53687619D01*
X127294285Y53735238D01*
X127246666Y53830476D01*
X127246666Y53878095D01*
X127294285Y53973333D01*
X127389523Y54020952D01*
X127532380Y54020952D01*
X127627619Y54068571D01*
X127675238Y54163809D01*
X127675238Y54211428D01*
X127627619Y54306666D01*
X127532380Y54354285D01*
X127389523Y54354285D01*
X127294285Y54306666D01*
X130457142Y36024285D02*
X130457142Y35357619D01*
X130695238Y36405238D02*
X130933333Y35690952D01*
X130314285Y35690952D01*
X129933333Y36024285D02*
X129933333Y35024285D01*
X129933333Y35976666D02*
X129838095Y36024285D01*
X129647619Y36024285D01*
X129552380Y35976666D01*
X129504761Y35929047D01*
X129457142Y35833809D01*
X129457142Y35548095D01*
X129504761Y35452857D01*
X129552380Y35405238D01*
X129647619Y35357619D01*
X129838095Y35357619D01*
X129933333Y35405238D01*
X129028571Y35357619D02*
X129028571Y36024285D01*
X129028571Y36357619D02*
X129076190Y36310000D01*
X129028571Y36262380D01*
X128980952Y36310000D01*
X129028571Y36357619D01*
X129028571Y36262380D01*
X128552380Y36024285D02*
X128552380Y35357619D01*
X128552380Y35929047D02*
X128504761Y35976666D01*
X128409523Y36024285D01*
X128266666Y36024285D01*
X128171428Y35976666D01*
X128123809Y35881428D01*
X128123809Y35357619D01*
X127695238Y35405238D02*
X127600000Y35357619D01*
X127409523Y35357619D01*
X127314285Y35405238D01*
X127266666Y35500476D01*
X127266666Y35548095D01*
X127314285Y35643333D01*
X127409523Y35690952D01*
X127552380Y35690952D01*
X127647619Y35738571D01*
X127695238Y35833809D01*
X127695238Y35881428D01*
X127647619Y35976666D01*
X127552380Y36024285D01*
X127409523Y36024285D01*
X127314285Y35976666D01*
M02*
