G04 #@! TF.GenerationSoftware,KiCad,Pcbnew,(5.1.6-0-10_14)*
G04 #@! TF.CreationDate,2023-01-09T16:43:16+09:00*
G04 #@! TF.ProjectId,cool644,636f6f6c-3634-4342-9e6b-696361645f70,rev?*
G04 #@! TF.SameCoordinates,Original*
G04 #@! TF.FileFunction,Legend,Bot*
G04 #@! TF.FilePolarity,Positive*
%FSLAX46Y46*%
G04 Gerber Fmt 4.6, Leading zero omitted, Abs format (unit mm)*
G04 Created by KiCad (PCBNEW (5.1.6-0-10_14)) date 2023-01-09 16:43:16*
%MOMM*%
%LPD*%
G01*
G04 APERTURE LIST*
%ADD10C,0.150000*%
G04 APERTURE END LIST*
D10*
X176410000Y86020000D02*
X176410000Y88560000D01*
X186570000Y86020000D02*
X176410000Y86020000D01*
X186570000Y88560000D02*
X186570000Y86020000D01*
X176410000Y88560000D02*
X186570000Y88560000D01*
X158480000Y69810000D02*
X159380000Y70310000D01*
X159380000Y70310000D02*
X159380000Y69310000D01*
X159380000Y69310000D02*
X158480000Y69810000D01*
X158380000Y70310000D02*
X158380000Y69310000D01*
X161580000Y70560000D02*
X156180000Y70560000D01*
X156180000Y70560000D02*
X156180000Y69060000D01*
X156180000Y69060000D02*
X161580000Y69060000D01*
X161580000Y69060000D02*
X161580000Y70560000D01*
X176390000Y70230000D02*
X186550000Y70230000D01*
X186550000Y70230000D02*
X186550000Y67690000D01*
X186550000Y67690000D02*
X176390000Y67690000D01*
X176390000Y67690000D02*
X176390000Y70230000D01*
X116320000Y69750000D02*
X117220000Y70250000D01*
X117220000Y70250000D02*
X117220000Y69250000D01*
X117220000Y69250000D02*
X116320000Y69750000D01*
X116220000Y70250000D02*
X116220000Y69250000D01*
X119420000Y70500000D02*
X114020000Y70500000D01*
X114020000Y70500000D02*
X114020000Y69000000D01*
X114020000Y69000000D02*
X119420000Y69000000D01*
X119420000Y69000000D02*
X119420000Y70500000D01*
X139140000Y67550000D02*
X139140000Y69050000D01*
X133740000Y67550000D02*
X139140000Y67550000D01*
X133740000Y69050000D02*
X133740000Y67550000D01*
X139140000Y69050000D02*
X133740000Y69050000D01*
X135940000Y68800000D02*
X135940000Y67800000D01*
X136940000Y67800000D02*
X136040000Y68300000D01*
X136940000Y68800000D02*
X136940000Y67800000D01*
X136040000Y68300000D02*
X136940000Y68800000D01*
X182787142Y89604285D02*
X182787142Y88937619D01*
X183025238Y89985238D02*
X183263333Y89270952D01*
X182644285Y89270952D01*
X182263333Y89604285D02*
X182263333Y88604285D01*
X182263333Y89556666D02*
X182168095Y89604285D01*
X181977619Y89604285D01*
X181882380Y89556666D01*
X181834761Y89509047D01*
X181787142Y89413809D01*
X181787142Y89128095D01*
X181834761Y89032857D01*
X181882380Y88985238D01*
X181977619Y88937619D01*
X182168095Y88937619D01*
X182263333Y88985238D01*
X181358571Y88937619D02*
X181358571Y89604285D01*
X181358571Y89937619D02*
X181406190Y89890000D01*
X181358571Y89842380D01*
X181310952Y89890000D01*
X181358571Y89937619D01*
X181358571Y89842380D01*
X180882380Y89604285D02*
X180882380Y88937619D01*
X180882380Y89509047D02*
X180834761Y89556666D01*
X180739523Y89604285D01*
X180596666Y89604285D01*
X180501428Y89556666D01*
X180453809Y89461428D01*
X180453809Y88937619D01*
X180025238Y88985238D02*
X179930000Y88937619D01*
X179739523Y88937619D01*
X179644285Y88985238D01*
X179596666Y89080476D01*
X179596666Y89128095D01*
X179644285Y89223333D01*
X179739523Y89270952D01*
X179882380Y89270952D01*
X179977619Y89318571D01*
X180025238Y89413809D01*
X180025238Y89461428D01*
X179977619Y89556666D01*
X179882380Y89604285D01*
X179739523Y89604285D01*
X179644285Y89556666D01*
X182767142Y71274285D02*
X182767142Y70607619D01*
X183005238Y71655238D02*
X183243333Y70940952D01*
X182624285Y70940952D01*
X182243333Y71274285D02*
X182243333Y70274285D01*
X182243333Y71226666D02*
X182148095Y71274285D01*
X181957619Y71274285D01*
X181862380Y71226666D01*
X181814761Y71179047D01*
X181767142Y71083809D01*
X181767142Y70798095D01*
X181814761Y70702857D01*
X181862380Y70655238D01*
X181957619Y70607619D01*
X182148095Y70607619D01*
X182243333Y70655238D01*
X181338571Y70607619D02*
X181338571Y71274285D01*
X181338571Y71607619D02*
X181386190Y71560000D01*
X181338571Y71512380D01*
X181290952Y71560000D01*
X181338571Y71607619D01*
X181338571Y71512380D01*
X180862380Y71274285D02*
X180862380Y70607619D01*
X180862380Y71179047D02*
X180814761Y71226666D01*
X180719523Y71274285D01*
X180576666Y71274285D01*
X180481428Y71226666D01*
X180433809Y71131428D01*
X180433809Y70607619D01*
X180005238Y70655238D02*
X179910000Y70607619D01*
X179719523Y70607619D01*
X179624285Y70655238D01*
X179576666Y70750476D01*
X179576666Y70798095D01*
X179624285Y70893333D01*
X179719523Y70940952D01*
X179862380Y70940952D01*
X179957619Y70988571D01*
X180005238Y71083809D01*
X180005238Y71131428D01*
X179957619Y71226666D01*
X179862380Y71274285D01*
X179719523Y71274285D01*
X179624285Y71226666D01*
M02*
