G04 #@! TF.GenerationSoftware,KiCad,Pcbnew,(5.1.6-0-10_14)*
G04 #@! TF.CreationDate,2023-01-09T16:43:16+09:00*
G04 #@! TF.ProjectId,cool644,636f6f6c-3634-4342-9e6b-696361645f70,rev?*
G04 #@! TF.SameCoordinates,Original*
G04 #@! TF.FileFunction,Profile,NP*
%FSLAX46Y46*%
G04 Gerber Fmt 4.6, Leading zero omitted, Abs format (unit mm)*
G04 Created by KiCad (PCBNEW (5.1.6-0-10_14)) date 2023-01-09 16:43:16*
%MOMM*%
%LPD*%
G01*
G04 APERTURE LIST*
G04 #@! TA.AperFunction,Profile*
%ADD10C,0.150000*%
G04 #@! TD*
G04 #@! TA.AperFunction,Profile*
%ADD11C,0.050000*%
G04 #@! TD*
G04 APERTURE END LIST*
D10*
X190430000Y86080000D02*
X174480000Y86080000D01*
X147980000Y71200000D02*
G75*
G03*
X147980000Y71200000I-1100000J0D01*
G01*
X203000000Y71200000D02*
G75*
G03*
X203000000Y71200000I-1100000J0D01*
G01*
X147980000Y85360000D02*
G75*
G03*
X147980000Y85360000I-1100000J0D01*
G01*
X204460000Y67350000D02*
X204460000Y88520000D01*
X107340000Y66230000D02*
G75*
G02*
X106220000Y67350000I0J1120000D01*
G01*
X203340000Y89640000D02*
X107340000Y89640000D01*
X107340000Y66230000D02*
X203340000Y66230000D01*
X204460000Y67350000D02*
G75*
G02*
X203340000Y66230000I-1120000J0D01*
G01*
X106220000Y67350000D02*
X106220000Y88520000D01*
X106220000Y88520000D02*
G75*
G02*
X107340000Y89640000I1120000J0D01*
G01*
X203340000Y89640000D02*
G75*
G02*
X204460000Y88520000I0J-1120000D01*
G01*
X174480000Y86080000D02*
X174480000Y70110000D01*
X174480000Y70110000D02*
X190440000Y70110000D01*
X203000000Y85360000D02*
G75*
G03*
X203000000Y85360000I-1100000J0D01*
G01*
X190440000Y70110000D02*
X190430000Y86080000D01*
D11*
X141740000Y85265000D02*
G75*
G02*
X142265000Y85790000I525000J0D01*
G01*
X144615000Y85790000D02*
G75*
G02*
X145140000Y85265000I0J-525000D01*
G01*
X142265000Y71590000D02*
G75*
G02*
X141740000Y72115000I0J525000D01*
G01*
X145140000Y72115000D02*
G75*
G02*
X144615000Y71590000I-525000J0D01*
G01*
X141740000Y85265000D02*
X141740000Y72115000D01*
X145140000Y72115000D02*
X145140000Y85265000D01*
X144615000Y85790000D02*
X142265000Y85790000D01*
X142265000Y71590000D02*
X144615000Y71590000D01*
M02*
